<svg xmlns="http://www.w3.org/2000/svg" width="1440" height="383" fill="none" viewBox="0 0 1440 383"><g clip-path="url(#clip0_9182_246684)"><path fill="url(#paint0_linear_9182_246684)" d="M-123.334 212.208c359.007 119.26 342.071-273.435 712.641-97.576C693.604 164.128 756.168 209.85 792.228 250v117H-404.5V243.419c53.433-45.76 107.991-88.739 281.166-31.211Z"/><path fill="#fff" d="M297.716 222.54c-.427.213-.4 1.31-.011 2.773a1.858 1.858 0 0 1-.698 1.977c-1.212.868-1.917 1.693-1.722 2.137.194.444 1.238.393 2.637-.047a1.623 1.623 0 0 1 1.866.693c.8 1.259 1.571 1.985 1.998 1.771.429-.214.402-1.313.01-2.775a1.862 1.862 0 0 1 .698-1.98c1.214-.868 1.919-1.694 1.725-2.137-.195-.445-1.238-.394-2.639.048a1.623 1.623 0 0 1-1.867-.695c-.798-1.257-1.569-1.98-1.997-1.765Zm112.654-66.733c-.508.125-.729 1.324-.642 3.013.044.854-.443 1.653-1.202 1.975-1.504.638-2.452 1.358-2.344 1.891.108.532 1.245.739 2.853.612.812-.064 1.563.432 1.853 1.224.576 1.57 1.242 2.554 1.75 2.429.511-.125.733-1.327.644-3.015-.046-.854.442-1.655 1.203-1.978 1.505-.638 2.453-1.358 2.344-1.89-.108-.532-1.244-.74-2.854-.612-.813.064-1.565-.433-1.855-1.226-.573-1.568-1.239-2.549-1.75-2.423m-39.824 14.329c-.757.186-1.239.979-1.078 1.772.161.792.905 1.283 1.662 1.097.757-.186 1.239-.979 1.078-1.771-.161-.792-.905-1.284-1.662-1.098Zm-93.082 35.173c-.532.524-.571 1.394-.083 1.945.487.549 1.314.571 1.847.048.534-.525.571-1.395.084-1.945-.487-.55-1.314-.572-1.848-.048Zm-33.436-4.779c-.677.666-.725 1.771-.107 2.47.619.698 1.669.726 2.347.06.678-.665.725-1.77.106-2.47-.619-.698-1.669-.725-2.346-.06Zm172.937 155.957c-1.038.255-1.699 1.342-1.478 2.428.221 1.086 1.24 1.759 2.278 1.504 1.037-.255 1.699-1.342 1.478-2.428-.221-1.085-1.241-1.759-2.278-1.504Zm10.7-161.475c-.756.186-1.239.979-1.078 1.772.161.792.905 1.283 1.662 1.097.757-.186 1.24-.979 1.078-1.771-.161-.792-.905-1.284-1.662-1.098Zm28.743 159.875c-1.037.255-1.699 1.342-1.478 2.427.221 1.086 1.241 1.76 2.278 1.504 1.038-.255 1.699-1.341 1.478-2.427-.221-1.086-1.241-1.759-2.278-1.504Zm-116.5-161.658c-.389.096-.637.504-.554.911.083.407.465.659.854.564.389-.096.637-.504.555-.911-.083-.407-.466-.66-.855-.564Zm-114.936 38.004a.932.932 0 0 0-.055 1.269.824.824 0 0 0 1.207.032.933.933 0 0 0 .054-1.27.824.824 0 0 0-1.206-.031m230.352 92.109c-.534.131-.874.69-.76 1.248.113.558.638.905 1.172.774.533-.131.873-.691.759-1.249-.113-.558-.638-.904-1.171-.773Zm-60.961 56.683c-.534.131-.874.69-.76 1.248.113.559.638.905 1.172.774.533-.131.873-.69.759-1.249-.113-.558-.638-.905-1.171-.773Zm-23.509-36.645c-.863.311-1.337 1.294-1.059 2.196.278.901 1.203 1.379 2.066 1.067.863-.311 1.337-1.294 1.059-2.196-.278-.901-1.204-1.379-2.066-1.067Z"/><g filter="url(#filter0_d_9182_246684)"><path fill="url(#paint1_linear_9182_246684)" d="M2139.14-460.722c647.89-10.808 87.59 615.872 87.59 615.872L2142.79 367H105v-75.226c51.817-29.54 128.711-41.473 240.941-22.912C840.31 350.621 766.54-123.061 1326.37 50.091c600.66 191.315 164.88-500.004 812.77-510.813Z"/></g><path fill="#fff" d="M-662.341 73.32c143.116 141.002 208.671 523.34 442.938 261.669C14.865 73.319 484.488 592.304 745.261 210.567 1006.03-171.171 1638.57 414.201 1642.47-41.697c3.9-455.897 242.79 355.6 332.14 51.669 89.36-303.932-157.33 507.553-468.91 702.069-311.58 194.517-487.51-244.36-834.344-91.787-346.836 152.574-509.389-266.852-908.754 13.981C-636.764 915.068-1187.87-444.449-662.341 73.32Z"/></g><defs><linearGradient id="paint0_linear_9182_246684" x1="-265.715" x2="-7.916" y1="159.918" y2="798.835" gradientUnits="userSpaceOnUse"><stop stop-color="#5D4AD4"/><stop offset=".39" stop-color="#212123"/></linearGradient><linearGradient id="paint1_linear_9182_246684" x1="1991.3" x2="1333.19" y1="-423.095" y2="95.255" gradientUnits="userSpaceOnUse"><stop stop-color="#212123"/><stop offset="1" stop-color="#6F58E9"/></linearGradient><clipPath id="clip0_9182_246684"><path fill="#fff" d="M-180 0h1800v382.5H-180z"/></clipPath><filter id="filter0_d_9182_246684" width="2387.66" height="868.825" x="93.107" y="-476.057" color-interpolation-filters="sRGB" filterUnits="userSpaceOnUse"><feFlood flood-opacity="0" result="BackgroundImageFix"/><feColorMatrix in="SourceAlpha" result="hardAlpha" values="0 0 0 0 0 0 0 0 0 0 0 0 0 0 0 0 0 0 127 0"/><feOffset dx="8.589" dy="5.286"/><feGaussianBlur stdDeviation="10.241"/><feComposite in2="hardAlpha" operator="out"/><feColorMatrix values="0 0 0 0 0.379167 0 0 0 0 0.254547 0 0 0 0 0.0126389 0 0 0 0.1 0"/><feBlend in2="BackgroundImageFix" result="effect1_dropShadow_9182_246684"/><feBlend in="SourceGraphic" in2="effect1_dropShadow_9182_246684" result="shape"/></filter></defs></svg>