<svg width="1440" height="785" viewBox="0 0 1440 785" fill="none" xmlns="http://www.w3.org/2000/svg">
<g clip-path="url(#clip0_10741_277723)">
<g filter="url(#filter0_d_10741_277723)">
<path d="M1042.36 397.233C694.986 152.802 586.079 580.483 244.594 271.459C146.29 182.5 93.6481 111.919 68.5241 56.5066L1868.14 56.5068L2119.93 283.742C2119.93 283.742 2077.75 777.78 1703.3 517.228C1328.85 256.677 1389.74 641.663 1042.36 397.233Z" fill="url(#paint0_linear_10741_277723)"/>
</g>
<g filter="url(#filter1_d_10741_277723)">
<path d="M-657.734 502.563C-430.494 191.039 -235.834 527.733 -32.5153 162.404C-18.5023 137.225 -5.2654 111.807 6.83818 86.9541L-416.56 71.1061L-1467.04 450.762L-1617.13 719.597C-1617.13 719.597 -1436.65 1131.95 -1190.84 798.669C-945.035 465.383 -884.973 814.088 -657.734 502.563Z" fill="url(#paint1_linear_10741_277723)"/>
</g>
<g filter="url(#filter2_d_10741_277723)">
<path d="M-630.877 428.321C-404.41 128.779 -220.488 459.873 -16.4136 107.541L-661.943 105.672L-1418.05 364.369L-1568.68 623.632C-1568.68 623.632 -1399.82 1028.16 -1154.91 707.742C-910.005 387.321 -857.344 727.862 -630.877 428.321Z" fill="url(#paint2_linear_10741_277723)"/>
</g>
<path d="M650.228 136.01C650.529 136.248 651.278 135.837 652.149 135.029C652.588 134.621 653.244 134.543 653.766 134.837C654.802 135.419 655.626 135.643 655.863 135.341C656.1 135.04 655.69 134.291 654.882 133.419C654.475 132.98 654.397 132.324 654.691 131.801C655.273 130.764 655.498 129.937 655.197 129.7C654.894 129.462 654.144 129.873 653.275 130.682C652.835 131.091 652.179 131.17 651.655 130.875C650.618 130.292 649.795 130.068 649.558 130.37C649.32 130.671 649.73 131.42 650.539 132.292C650.948 132.733 651.025 133.389 650.731 133.913C650.149 134.948 649.925 135.772 650.228 136.01Z" fill="white"/>
<path d="M480.821 221.256C481.272 221.475 482.112 220.739 482.996 219.461C483.443 218.815 484.257 218.531 485.008 218.759C486.494 219.209 487.61 219.262 487.827 218.81C488.045 218.359 487.31 217.518 486.033 216.633C485.388 216.187 485.104 215.372 485.332 214.621C485.783 213.132 485.837 212.014 485.385 211.795C484.932 211.576 484.09 212.313 483.208 213.592C482.762 214.239 481.946 214.524 481.195 214.296C479.706 213.845 478.591 213.792 478.373 214.243C478.156 214.695 478.891 215.536 480.17 216.421C480.815 216.868 481.099 217.684 480.871 218.436C480.419 219.922 480.367 221.037 480.821 221.256Z" fill="white"/>
<path d="M353.579 170.359C354.015 170.703 355.101 170.108 356.364 168.936C357.002 168.344 357.952 168.231 358.71 168.657C360.211 169.501 361.406 169.826 361.75 169.389C362.094 168.953 361.499 167.866 360.327 166.603C359.736 165.965 359.624 165.014 360.05 164.255C360.894 162.751 361.22 161.554 360.784 161.21C360.345 160.864 359.257 161.46 357.997 162.633C357.359 163.226 356.407 163.34 355.648 162.913C354.146 162.068 352.951 161.743 352.607 162.18C352.263 162.617 352.858 163.703 354.031 164.968C354.623 165.606 354.735 166.559 354.308 167.317C353.464 168.818 353.14 170.013 353.579 170.359Z" fill="white"/>
<path d="M391.326 194.375C391.976 194.888 392.918 194.776 393.43 194.125C393.942 193.475 393.831 192.532 393.181 192.02C392.531 191.507 391.589 191.619 391.077 192.27C390.565 192.92 390.676 193.863 391.326 194.375Z" fill="white"/>
<path d="M480.849 249.382C481.614 249.487 482.32 248.952 482.426 248.186C482.531 247.421 481.997 246.714 481.232 246.609C480.466 246.503 479.761 247.038 479.655 247.804C479.549 248.57 480.084 249.276 480.849 249.382Z" fill="white"/>
<path d="M499.407 280.501C500.379 280.635 501.275 279.955 501.409 278.983C501.543 278.011 500.864 277.113 499.892 276.979C498.921 276.845 498.025 277.525 497.89 278.498C497.756 279.47 498.435 280.367 499.407 280.501Z" fill="white"/>
<path d="M506.086 34.2967C506.977 34.9993 508.268 34.8459 508.97 33.9544C509.672 33.063 509.519 31.7711 508.628 31.0685C507.737 30.366 506.446 30.5193 505.744 31.4108C505.042 32.3023 505.195 33.5942 506.086 34.2967Z" fill="white"/>
<path d="M372.707 130.366C373.356 130.879 374.298 130.767 374.811 130.117C375.323 129.466 375.211 128.524 374.561 128.011C373.911 127.499 372.969 127.61 372.457 128.261C371.945 128.911 372.057 129.854 372.707 130.366Z" fill="white"/>
<path d="M478.557 2.31286C479.448 3.01541 480.739 2.86203 481.44 1.97056C482.142 1.07909 481.989 -0.212824 481.098 -0.915367C480.207 -1.61791 478.916 -1.46455 478.215 -0.573082C477.513 0.318387 477.666 1.61032 478.557 2.31286Z" fill="white"/>
<path d="M626.721 93.4224C627.451 93.9982 628.509 93.8729 629.085 93.1424C629.66 92.4119 629.534 91.3531 628.804 90.7773C628.074 90.202 627.016 90.3274 626.441 91.0579C625.866 91.7884 625.991 92.8471 626.721 93.4224Z" fill="white"/>
<path d="M429.794 204.975C430.128 205.239 430.613 205.181 430.877 204.847C431.14 204.512 431.083 204.027 430.748 203.763C430.414 203.5 429.929 203.557 429.666 203.892C429.402 204.226 429.46 204.712 429.794 204.975Z" fill="white"/>
<path d="M536.085 276.44C536.584 276.51 537.045 276.16 537.115 275.66C537.184 275.16 536.834 274.698 536.334 274.629C535.835 274.56 535.374 274.911 535.305 275.411C535.236 275.911 535.585 276.371 536.085 276.44Z" fill="white"/>
<path d="M454.623 23.751C455.081 24.1126 455.745 24.0338 456.106 23.5755C456.467 23.1172 456.389 22.4524 455.93 22.0908C455.472 21.7298 454.808 21.8092 454.447 22.2675C454.086 22.7257 454.165 23.3899 454.623 23.751Z" fill="white"/>
<path d="M539.566 37.8922C540.024 38.2537 540.688 38.1748 541.049 37.7164C541.41 37.2578 541.331 36.5935 540.873 36.232C540.415 35.8709 539.751 35.9498 539.39 36.4083C539.029 36.8667 539.108 37.5311 539.566 37.8922Z" fill="white"/>
<path d="M593.413 87.8506C593.788 88.1464 594.332 88.0818 594.628 87.7059C594.924 87.3301 594.86 86.7854 594.484 86.4895C594.109 86.1932 593.564 86.2578 593.268 86.6337C592.972 87.0096 593.037 87.5542 593.413 87.8506Z" fill="white"/>
<path d="M526.574 81.4124C527.393 81.9326 528.478 81.6898 528.997 80.8701C529.517 80.051 529.274 78.9655 528.455 78.4459C527.637 77.9257 526.552 78.169 526.032 78.9882C525.513 79.8078 525.756 80.8933 526.574 81.4124Z" fill="white"/>
<g filter="url(#filter3_d_10741_277723)">
<path d="M-123.106 36.3976C-122.002 37.5911 -120.902 38.773 -119.804 39.9435L189.002 10.0454L549.785 15.9922L1301.99 40.5288L1534.31 220.315C1378.98 362.191 1205.67 457.358 1078.19 350.668C784.547 104.896 783.418 413.143 511.206 182.869C240.138 -46.4366 140.206 317.158 -119.804 39.9435L-125.382 40.4836C-125.538 40.6593 -125.694 40.6982 -125.849 40.5288L-125.382 40.4836C-124.627 39.6327 -123.869 35.5732 -123.106 36.3976Z" fill="url(#paint3_linear_10741_277723)"/>
</g>
<path d="M168.941 35.265C421.041 -64.8704 573.061 235.533 833.452 216.723C1093.84 197.913 1078.36 426.075 1255.83 384.353C1433.29 342.63 1574.82 461.807 1544.41 613.393C1520.1 734.607 1937.7 762.278 2020.08 879.67C1972.1 1001.71 1950.29 1060.6 2006.64 987.692C2040.32 944.13 2040.72 909.084 2020.08 879.67C2115.17 637.762 2313.05 147.714 2208.69 -56.0006C2051.68 -362.491 1286.06 -125.625 997.474 -523.399C708.89 -921.173 233.986 -432.114 44.9137 -885.764C-272.805 -1720.55 -1287.72 -717.286 -1331.14 -271.578C-1361.38 38.8753 -1007.76 23.2925 -582.367 182.374C-156.973 341.455 -83.1592 135.4 168.941 35.265Z" fill="white"/>
<path d="M1474.98 691.14C1528.77 640.494 1531.3 555.862 1480.65 502.107C1429.99 448.344 1345.34 445.818 1291.54 496.464C1237.76 547.103 1235.21 631.734 1285.87 685.496C1336.52 739.252 1421.19 741.779 1474.98 691.14Z" fill="url(#paint4_linear_10741_277723)"/>
<path d="M1346.76 704.391C1316.88 698.554 1265.05 654.821 1296.81 612.79C1328.58 570.765 1419.16 602.582 1431.05 645.218C1442.94 687.854 1401.22 715.018 1346.76 704.391Z" fill="#C567CD"/>
<path d="M1390.23 562.495C1420.21 580.027 1437.44 539.567 1395.17 531.598C1374.03 527.61 1372.38 552.068 1390.23 562.495ZM1332.25 554.214C1339.85 532.278 1310.18 540.489 1304.42 557.553C1299.09 573.326 1324.66 576.171 1332.25 554.214ZM1474.98 691.14C1528.77 640.494 1531.3 555.862 1480.65 502.107C1429.99 448.344 1345.34 445.818 1291.54 496.464C1275.43 511.637 1263.92 529.863 1257.06 549.389C1260.79 582.847 1281.31 580.024 1296 544.371C1307.13 517.366 1339.75 501.972 1369.47 508.469C1394.33 513.909 1424.05 527.606 1440.63 511.997C1465.97 488.139 1519.36 564.21 1484.32 599.904C1449.28 635.591 1460.91 640.793 1457.93 670.508C1454.97 700.223 1432.91 672.527 1415.42 701.124C1410.43 709.251 1409.91 717.234 1411.67 724.486C1434.65 719.519 1456.62 708.427 1474.98 691.14ZM1467.74 571.295C1462.43 587.988 1474.22 588.525 1478.24 578.758C1482.26 568.998 1471.35 559.89 1467.74 571.295ZM1381.69 719.635C1398.15 725.672 1399.19 713.913 1389.62 709.471C1380.04 705.03 1370.45 715.515 1381.69 719.635ZM1254.83 631.342C1252.93 620.137 1256.03 614.862 1266.51 625.981C1284.65 645.234 1284.2 683.344 1303.98 694.327C1316.76 701.438 1355.66 715.972 1367.89 726.644C1337.63 723.153 1308.39 709.393 1285.87 685.496C1270.88 669.588 1260.56 650.974 1254.83 631.342Z" fill="url(#paint5_linear_10741_277723)"/>
<path d="M1414.51 678.176C1432.7 665.797 1424.21 641.88 1407.97 651.79C1391.72 661.7 1397.82 689.546 1414.51 678.176ZM1312.99 650.35C1288.89 644.783 1304.02 669.198 1320.33 679.913C1349.26 698.932 1337.09 655.923 1312.99 650.35Z" fill="white" fill-opacity="0.59"/>
<path d="M1358.82 695.724C1349.74 691.354 1349.47 673.989 1356.44 670.155C1360.63 667.863 1373.2 670.655 1383.1 678.286C1399.07 690.587 1377.73 704.8 1358.82 695.724Z" fill="#E262DC"/>
<path d="M1416.53 595.726C1376.47 611.295 1379.17 655.657 1411.67 645.887C1444.18 636.131 1458.88 615.774 1458.19 594.286C1457.48 572.792 1437.77 558.787 1431.13 579.384C1424.45 599.981 1416.53 595.726 1416.53 595.726Z" fill="#6B20A0"/>
<path d="M1428.75 639.005C1423.72 641.659 1418.04 643.984 1411.67 645.9C1385.78 653.682 1378.79 627.112 1397.28 608.112C1411.57 616.227 1423.16 627.034 1428.75 639.005Z" fill="#783B9D"/>
<path d="M1261.81 607.226C1265.33 600.434 1276.89 619.077 1285.88 632.767C1294.86 646.451 1308.39 642.826 1309.6 624.746C1310.82 606.667 1303.17 570.885 1296.03 585.43C1288.87 599.975 1275.5 598.234 1271.07 589.379C1266.64 580.532 1256.15 572.161 1255.05 586.222C1253.97 600.27 1252.55 625.058 1261.81 607.226Z" fill="#6B20A0"/>
<path d="M1287.27 634.687C1288.3 627.483 1291.29 620.121 1296.81 612.808C1300.01 608.578 1303.8 605.114 1308.04 602.312C1309.37 610.025 1310.02 618.453 1309.61 624.744C1308.45 641.9 1296.2 646.029 1287.27 634.687Z" fill="#783B9D"/>
<path d="M1384.81 495.691C1368.76 491.465 1344.53 473.692 1367.41 471.691C1390.29 469.691 1427.68 476.173 1423.38 485.433C1419.07 494.699 1402.13 500.229 1384.81 495.691Z" fill="#4A047C"/>
<path d="M1268.16 551.726C1268.89 542.359 1279.45 511.134 1293.63 508.205C1307.82 505.283 1293.06 526.972 1285.92 541.515C1278.77 556.071 1267.07 565.787 1268.16 551.726Z" fill="#4A047C"/>
<path d="M1343.15 535.856C1335.13 530.051 1336.84 522.248 1346.8 525.906C1356.75 529.556 1359.57 547.753 1343.15 535.856Z" fill="#6B20A0"/>
<path d="M1434.7 549.958C1425.36 549.679 1423.8 532.861 1435.87 533.222C1447.95 533.582 1450.8 550.439 1434.7 549.958Z" fill="#6B20A0"/>
<path d="M1331.83 586.612C1320.89 583.744 1331.26 570.874 1338.98 575.821C1346.69 580.767 1352.12 591.934 1331.83 586.612Z" fill="#6B20A0"/>
<path d="M1438.42 668.406C1435.31 658.821 1444.5 640.286 1449.28 656.153C1454.04 672.02 1443.22 683.223 1438.42 668.406Z" fill="#6B20A0"/>
<path d="M1325.5 499.996C1314.67 501.975 1315.88 488.704 1328.55 485.938C1341.21 483.171 1357.66 494.144 1325.5 499.996Z" fill="#4A047C"/>
<path d="M1431.43 708.544C1424.17 707.469 1431.87 693.884 1443.33 696.32C1454.79 698.757 1449.18 711.174 1431.43 708.544Z" fill="#6B20A0"/>
<path d="M1347.3 559.832C1341.78 556.656 1344.53 547.182 1352.25 552.126C1359.97 557.077 1354 563.717 1347.3 559.832Z" fill="#6B20A0"/>
<path d="M1410.69 578.507C1412.05 573.717 1418.89 567.747 1417.59 576.089C1416.28 584.444 1408.36 586.825 1410.69 578.507Z" fill="#6B20A0"/>
<path d="M1371.87 527.563C1362.2 524.707 1355.67 508.21 1370.12 515.971C1384.57 523.753 1381.74 530.473 1371.87 527.563Z" fill="#6B20A0"/>
<path d="M1349.61 640.075C1339.02 626.001 1319.42 615.593 1332.72 609.18C1346.01 602.761 1366.78 626.969 1372.99 646.535C1379.23 666.108 1357.68 650.793 1349.61 640.075Z" fill="white" fill-opacity="0.59"/>
<path d="M1360.38 612.629C1353.62 607.827 1350.28 599.753 1361.64 605.336C1373.02 610.918 1372.71 621.382 1360.38 612.629Z" fill="white" fill-opacity="0.59"/>
<path d="M1319.71 640.758C1313.85 638.358 1314.28 629.585 1321.65 628.762C1329 627.932 1328 644.147 1319.71 640.758Z" fill="white" fill-opacity="0.59"/>
<path d="M1388.7 523.59C1386.27 521.74 1386.87 516.488 1392.54 519.282C1398.23 522.077 1395.88 529.047 1388.7 523.59Z" fill="#6B20A0"/>
<path d="M1402.07 529.481C1399.81 528.741 1398.9 524.728 1403.8 525.332C1408.71 525.922 1408.75 531.663 1402.07 529.481Z" fill="#6B20A0"/>
<path d="M1420.95 584.36C1420.94 581.977 1424.48 579.869 1425.43 584.701C1426.4 589.547 1420.96 591.379 1420.95 584.36Z" fill="#6B20A0"/>
<path d="M1345.42 471.076C1350.14 470.409 1355.71 473.232 1346.45 475.507C1337.21 477.788 1331.46 473.047 1345.42 471.076Z" fill="#6B20A0"/>
<path d="M1431.64 471.672C1435.96 473.746 1439.03 479.172 1430.07 475.946C1421.1 472.713 1418.94 465.588 1431.64 471.672Z" fill="#6B20A0"/>
<path d="M1273.52 651.719C1276.09 655.78 1274.21 662.633 1267.87 655.278C1261.54 647.918 1265.95 639.77 1273.52 651.719Z" fill="#4A047C"/>
<path d="M1292.38 575.689C1289.25 579.324 1282.14 579.533 1287.34 571.334C1292.53 563.127 1301.61 564.961 1292.38 575.689Z" fill="#4A047C"/>
<path d="M1391.05 582.329C1385.8 587.271 1390.89 599.76 1395.16 593.83C1399.41 587.907 1397.09 576.648 1391.05 582.329Z" fill="#E262DC"/>
<path d="M1274.47 581.12C1272.09 585.499 1278.15 592.594 1279.65 587.773C1281.16 582.967 1277.2 576.08 1274.47 581.12Z" fill="#E262DC"/>
<path d="M1307.7 581.585C1305.33 585.962 1311.38 593.058 1312.89 588.247C1314.39 583.429 1310.44 576.545 1307.7 581.585Z" fill="#E262DC"/>
<path d="M1396.44 687C1394.07 691.379 1400.11 698.467 1401.62 693.658C1403.13 688.842 1399.17 681.965 1396.44 687Z" fill="white" fill-opacity="0.41"/>
<path d="M1373.36 608.45C1370.99 612.833 1377.03 619.926 1378.55 615.112C1380.05 610.304 1376.09 603.417 1373.36 608.45Z" fill="white" fill-opacity="0.41"/>
<path d="M1374.86 635.302C1373.14 638.507 1377.56 643.689 1378.65 640.175C1379.75 636.661 1376.87 631.628 1374.86 635.302Z" fill="white" fill-opacity="0.41"/>
<path d="M1382.86 608.344C1381.13 611.541 1385.54 616.724 1386.64 613.202C1387.74 609.687 1384.84 604.666 1382.86 608.344Z" fill="white" fill-opacity="0.41"/>
<path d="M1358.82 624.23C1357.1 627.437 1361.52 632.607 1362.61 629.094C1363.71 625.587 1360.82 620.556 1358.82 624.23Z" fill="#E262DC"/>
<path d="M1424.39 646.834C1422.66 650.021 1427.08 655.196 1428.18 651.689C1429.28 648.17 1426.38 643.147 1424.39 646.834Z" fill="white" fill-opacity="0.41"/>
<path d="M1335.88 692.073C1337.33 698.82 1354.05 699.992 1350.85 693.654C1347.66 687.31 1334.2 684.293 1335.88 692.073Z" fill="white" fill-opacity="0.41"/>
<path d="M1361.47 714.698C1362.15 717.872 1370 718.419 1368.5 715.438C1367 712.471 1360.69 711.052 1361.47 714.698Z" fill="#E262DC"/>
<path d="M1398.53 709.632C1399.21 712.802 1407.05 713.35 1405.56 710.377C1404.06 707.398 1397.74 705.985 1398.53 709.632Z" fill="#E262DC"/>
<path d="M1312.14 679.553C1311.55 682.733 1318.57 686.257 1318.34 682.942C1318.11 679.627 1312.83 675.881 1312.14 679.553Z" fill="white" fill-opacity="0.41"/>
<path d="M1440.42 640.094C1438.68 643.293 1443.1 648.472 1444.2 644.955C1445.3 641.444 1442.41 636.417 1440.42 640.094Z" fill="#E262DC"/>
<path d="M1332.16 644.713C1329.48 649.689 1336.34 657.74 1338.05 652.277C1339.75 646.806 1335.26 638.996 1332.16 644.713Z" fill="white" fill-opacity="0.41"/>
<path d="M1316.67 606.88C1314 611.849 1320.86 619.904 1322.57 614.435C1324.28 608.974 1319.78 601.164 1316.67 606.88Z" fill="white" fill-opacity="0.41"/>
<path d="M1254.18 387.103C1254.32 386.681 1253.59 386.035 1252.39 385.417C1251.78 385.105 1251.45 384.427 1251.56 383.742C1251.78 382.386 1251.7 381.403 1251.28 381.267C1250.87 381.132 1250.23 381.878 1249.61 383.104C1249.3 383.723 1248.63 384.071 1247.96 383.963C1246.63 383.75 1245.66 383.839 1245.52 384.26C1245.38 384.685 1246.11 385.331 1247.31 385.948C1247.92 386.259 1248.26 386.938 1248.15 387.624C1247.92 388.981 1248 389.964 1248.42 390.1C1248.83 390.235 1249.47 389.489 1250.09 388.262C1250.4 387.643 1251.07 387.294 1251.75 387.403C1253.08 387.617 1254.04 387.527 1254.18 387.103Z" fill="white"/>
<path d="M1243.58 503.9C1243.7 503.457 1242.92 502.817 1241.65 502.224C1241.01 501.925 1240.63 501.235 1240.72 500.52C1240.9 499.104 1240.77 498.087 1240.34 497.963C1239.9 497.84 1239.27 498.64 1238.68 499.937C1238.38 500.591 1237.69 500.98 1236.99 500.896C1235.6 500.729 1234.6 500.861 1234.47 501.303C1234.35 501.75 1235.13 502.391 1236.4 502.981C1237.04 503.28 1237.42 503.971 1237.33 504.687C1237.15 506.105 1237.28 507.121 1237.71 507.244C1238.15 507.369 1238.78 506.568 1239.38 505.27C1239.67 504.615 1240.36 504.225 1241.06 504.311C1242.45 504.479 1243.45 504.346 1243.58 503.9Z" fill="white"/>
<path d="M1156.57 578.481C1156.85 577.444 1156.24 576.386 1155.23 576.118C1154.21 575.849 1153.17 576.471 1152.89 577.508C1152.62 578.544 1153.22 579.602 1154.24 579.87C1155.26 580.139 1156.3 579.517 1156.57 578.481Z" fill="white"/>
<path d="M1167.73 608.656C1168 607.62 1167.4 606.562 1166.38 606.293C1165.37 606.025 1164.32 606.647 1164.05 607.683C1163.77 608.719 1164.38 609.777 1165.39 610.047C1166.41 610.315 1167.46 609.692 1167.73 608.656Z" fill="white"/>
<path d="M1216.46 398.772C1216.78 397.806 1216.26 396.772 1215.32 396.462C1214.37 396.151 1213.35 396.681 1213.03 397.646C1212.72 398.612 1213.24 399.646 1214.18 399.957C1215.13 400.267 1216.15 399.737 1216.46 398.772Z" fill="white"/>
<path d="M1197.85 624.476C1197.99 623.944 1197.68 623.399 1197.15 623.261C1196.63 623.123 1196.09 623.443 1195.95 623.976C1195.81 624.509 1196.12 625.053 1196.65 625.191C1197.17 625.33 1197.71 625.009 1197.85 624.476Z" fill="white"/>
<path d="M1219.35 464.722C1219.51 464.226 1219.24 463.693 1218.76 463.534C1218.27 463.374 1217.75 463.647 1217.58 464.144C1217.42 464.64 1217.69 465.172 1218.17 465.331C1218.66 465.491 1219.19 465.219 1219.35 464.722Z" fill="white"/>
<path d="M1190.74 483.483C1190.96 482.493 1190.35 481.513 1189.38 481.295C1188.41 481.078 1187.44 481.705 1187.22 482.695C1187 483.685 1187.6 484.664 1188.58 484.882C1189.55 485.1 1190.52 484.474 1190.74 483.483Z" fill="white"/>
<path d="M1208.95 652.822C1208.81 653.244 1209.54 653.889 1210.74 654.507C1211.35 654.819 1211.68 655.498 1211.57 656.182C1211.35 657.539 1211.43 658.521 1211.84 658.657C1212.26 658.792 1212.9 658.047 1213.52 656.821C1213.83 656.202 1214.5 655.854 1215.17 655.961C1216.5 656.175 1217.47 656.086 1217.61 655.664C1217.75 655.24 1217.02 654.593 1215.82 653.977C1215.21 653.665 1214.87 652.986 1214.98 652.301C1215.2 650.943 1215.12 649.961 1214.71 649.825C1214.3 649.689 1213.66 650.435 1213.04 651.662C1212.73 652.282 1212.05 652.63 1211.38 652.522C1210.05 652.307 1209.09 652.398 1208.95 652.822Z" fill="white"/>
<path d="M1256.91 648.65C1256.6 649.616 1257.11 650.65 1258.06 650.96C1259.01 651.271 1260.03 650.741 1260.34 649.775C1260.66 648.81 1260.14 647.775 1259.2 647.464C1258.25 647.154 1257.23 647.685 1256.91 648.65Z" fill="white"/>
<path d="M1336.23 407.846C1336.1 408.382 1336.43 408.919 1336.95 409.044C1337.48 409.17 1338.01 408.837 1338.14 408.301C1338.26 407.765 1337.94 407.229 1337.42 407.103C1336.89 406.977 1336.36 407.31 1336.23 407.846Z" fill="white"/>
<path d="M1236.72 628.488C1236.56 628.985 1236.83 629.517 1237.31 629.676C1237.8 629.836 1238.33 629.564 1238.49 629.067C1238.65 628.571 1238.38 628.039 1237.9 627.879C1237.41 627.719 1236.89 627.992 1236.72 628.488Z" fill="white"/>
<path d="M1270 590.875C1269.78 591.865 1270.39 592.844 1271.36 593.062C1272.33 593.28 1273.3 592.653 1273.52 591.663C1273.74 590.673 1273.14 589.693 1272.16 589.475C1271.19 589.257 1270.22 589.884 1270 590.875Z" fill="white"/>
<path d="M1276 452.853C1276 452.853 1266.8 465.921 1265.47 480.63C1263.33 504.264 1281.21 518.174 1289.35 519.259C1297.33 520.323 1309.5 520.072 1309.5 520.072C1309.5 520.072 1289.39 493.568 1289.54 483.316C1289.6 479.199 1292.51 467.762 1295.27 463.406L1276 452.853Z" fill="white"/>
<path d="M1265.47 480.631C1265.09 484.859 1265.35 488.774 1266.07 492.36C1268.83 505.924 1278.3 514.785 1285.29 517.99C1286.79 518.675 1288.17 519.102 1289.35 519.26C1297.33 520.322 1309.5 520.072 1309.5 520.072C1309.5 520.072 1289.39 493.569 1289.54 483.316C1289.6 479.2 1292.51 467.763 1295.27 463.405L1276 452.854C1276 452.854 1266.8 465.923 1265.47 480.631Z" fill="white"/>
<path d="M1288.19 520.453C1288.53 520.528 1288.86 520.586 1289.17 520.628C1297.16 521.692 1309.03 521.462 1309.53 521.451L1312.23 521.396L1310.58 519.226C1305.07 511.959 1290.78 491.342 1290.9 483.328C1290.96 479.484 1293.76 468.341 1296.42 464.148C1296.82 463.505 1296.64 462.654 1296.02 462.245C1295.39 461.837 1294.55 462.026 1294.14 462.669C1291.22 467.284 1288.25 479.079 1288.19 483.309C1288.06 492.25 1301.94 512.058 1306.8 518.721C1302.78 518.729 1295.08 518.634 1289.54 517.896C1282.45 516.952 1264.72 504.095 1266.83 480.747C1268.11 466.577 1277.02 453.778 1277.11 453.651C1277.55 453.03 1277.41 452.17 1276.8 451.731C1276.2 451.291 1275.35 451.438 1274.91 452.059C1274.53 452.605 1265.48 465.605 1264.13 480.517C1262.91 494.033 1268.01 503.615 1272.51 509.273C1277.7 515.812 1283.92 519.496 1288.19 520.453Z" fill="#371A45"/>
<path d="M1289.67 484.991C1289.67 484.991 1282.97 498.265 1265.64 489.675L1289.67 484.991Z" fill="white"/>
<path d="M1271.9 493.404C1285.26 496.396 1290.84 485.732 1290.9 485.607C1291.25 484.928 1290.98 484.099 1290.32 483.755C1289.66 483.413 1288.84 483.684 1288.5 484.361C1288.24 484.866 1282.13 496.291 1266.26 488.429C1265.59 488.099 1264.78 488.382 1264.45 489.067C1264.11 489.752 1264.39 490.576 1265.06 490.908C1267.53 492.135 1269.81 492.937 1271.9 493.404Z" fill="#371A45"/>
<path d="M1301.46 501.33C1311.97 489.1 1345.89 515.611 1344.19 523.187C1341.05 537.262 1314.46 578.899 1281.01 572.884C1252.93 567.834 1241.95 534.969 1253.8 523.644C1264.55 513.367 1280.28 511.846 1291.27 507.677L1301.46 501.33Z" fill="white"/>
<path d="M1251.63 548.738C1256.05 559.7 1266.13 570.205 1281.03 572.884C1300.66 576.412 1317.93 563.525 1329.48 549.429C1335.37 542.247 1339.77 534.755 1342.24 528.958C1343.19 526.749 1343.85 524.789 1344.21 523.183C1345.9 515.61 1311.98 489.098 1301.48 501.328L1298.51 503.176L1291.29 507.676C1280.29 511.845 1264.56 513.365 1253.81 523.643C1248.24 528.96 1247.72 539.03 1251.63 548.738Z" fill="white"/>
<path d="M1325.97 530.803C1334.28 531.917 1339.24 530.447 1341.78 529.197L1336.48 526.32C1336.48 526.32 1330.48 527.072 1325.97 530.803Z" fill="#E8E8E8"/>
<path d="M1302.49 502.229C1308.69 495.345 1322.74 503.233 1328.8 507.395C1333.41 510.609 1340.85 516.503 1342.78 521.816C1342.87 522.292 1342.98 522.57 1342.84 523.044C1342.28 525.416 1341.3 527.799 1340.23 530.106C1332.56 545.778 1319.89 560.871 1304.06 568.287C1282.33 578.586 1257.17 566.495 1251.33 543.021C1249.98 537.235 1250 530.407 1253.89 525.623C1254.24 525.186 1254.7 524.734 1255.12 524.353C1257.4 522.222 1259.97 520.434 1262.72 518.945C1271.76 513.953 1282.18 512.638 1291.51 508.321C1291.85 508.158 1292 507.746 1291.84 507.401C1291.7 507.091 1291.36 506.94 1291.05 507.03C1286.14 508.398 1281.13 509.425 1276.13 510.828C1268.32 513.017 1260.28 516.071 1253.98 521.571C1247.42 526.858 1246.7 536.053 1248.51 543.724C1252.21 559.61 1265.93 572.31 1281.85 574.501C1292.42 576.175 1303.25 572.907 1312.17 567.099C1325.41 558.389 1335.75 545.571 1342.7 531.276C1343.81 528.847 1344.83 526.371 1345.48 523.656C1345.57 523.317 1345.66 522.669 1345.61 522.276C1345.34 519.657 1343.67 517.495 1342.15 515.564C1336.99 509.497 1330.55 504.764 1323.6 501.048C1318.83 498.642 1313.76 496.573 1308.24 496.805C1305.38 496.937 1302.37 498.13 1300.45 500.427C1299.31 501.85 1301.29 503.563 1302.49 502.229Z" fill="#371A45"/>
<path d="M1248.3 533.282C1248.3 533.282 1241.26 522.661 1248.41 512.354C1256.46 500.731 1273.67 506.257 1276.43 518.61C1278.83 529.352 1248.3 533.282 1248.3 533.282Z" fill="white"/>
<path d="M1245.23 523.38C1245.51 529.071 1248.3 533.282 1248.3 533.282C1248.3 533.282 1278.83 529.351 1276.43 518.608C1275.29 513.514 1271.69 509.578 1267.29 507.532C1261.03 504.615 1253.14 505.524 1248.41 512.353C1245.76 516.172 1245.06 520.032 1245.23 523.38Z" fill="white"/>
<path d="M1263.54 507.703C1269.25 508.984 1273.87 513.445 1275.09 518.926C1275.35 520.069 1275.11 521.143 1274.38 522.209C1270.62 527.646 1255.54 530.849 1248.99 531.797C1247.64 529.362 1243.93 521.177 1249.5 513.142C1252.67 508.564 1257.63 506.549 1263.11 507.614C1263.25 507.642 1263.4 507.672 1263.54 507.703ZM1247.62 534.755L1248.44 534.649C1249.37 534.53 1271.16 531.642 1276.59 523.781C1277.78 522.06 1278.16 520.215 1277.74 518.295C1276.25 511.638 1270.57 506.254 1263.64 504.908C1257.16 503.648 1251.05 506.138 1247.29 511.567C1239.69 522.526 1247.08 533.944 1247.16 534.058L1247.62 534.755Z" fill="#371A45"/>
<path d="M1324.61 551.72C1324.61 551.72 1347.46 566.243 1360.4 555.583C1375.87 542.839 1369.34 511.176 1364.28 502.858C1358.17 492.8 1344.86 517.204 1344.86 517.204L1344.5 530.676L1336.48 526.321C1336.48 526.321 1323.68 527.925 1321.4 538.073C1319.13 548.221 1324.61 551.72 1324.61 551.72Z" fill="white"/>
<path d="M1321.4 538.073C1320.49 542.139 1320.82 545.136 1321.55 547.266C1322.64 550.463 1324.61 551.721 1324.61 551.721C1324.61 551.721 1347.46 566.242 1360.4 555.583C1375.87 542.84 1369.34 511.177 1364.28 502.859C1358.17 492.801 1344.86 517.205 1344.86 517.205L1344.55 529.045L1344.5 530.678L1336.47 526.322C1336.47 526.322 1323.68 527.925 1321.4 538.073Z" fill="white"/>
<path d="M1324.09 552.598C1332.47 557.81 1343.74 562.465 1353.75 560.32C1359.09 559.207 1363.67 555.308 1366.45 550.609C1371.91 541.343 1372.11 529.968 1370.72 519.629C1369.93 514.294 1367.89 504.841 1364.44 500.776C1357.24 493.552 1346.84 511.099 1343.7 516.542C1343.59 516.744 1343.53 516.962 1343.53 517.178L1343.17 530.65L1345.17 529.46L1337.14 525.105C1336.48 524.748 1335.66 525.003 1335.3 525.675C1334.95 526.347 1335.19 527.181 1335.85 527.538L1343.88 531.893C1344.54 532.25 1345.36 531.995 1345.71 531.323C1345.82 531.127 1345.87 530.91 1345.88 530.703L1346.24 517.231L1346.07 517.866C1348.52 513.549 1351.35 509.202 1354.73 505.588C1356.4 503.924 1359.04 501.226 1361.43 501.952C1362.27 502.253 1362.94 503.179 1363.37 503.989C1364.85 506.679 1365.75 509.634 1366.56 512.648C1369.4 524.344 1370.36 538.417 1364.15 549.174C1361.67 553.28 1357.86 556.581 1353.16 557.579C1343.89 559.562 1333.22 555.309 1325.17 550.843C1324.04 550.166 1322.98 551.839 1324.09 552.598Z" fill="#371A45"/>
<path d="M1352.67 560.405C1352.9 560.457 1353.15 560.448 1353.39 560.365C1355.86 559.517 1357.88 555.576 1358.29 550.782C1358.58 547.364 1358.5 535.66 1345.18 528.524C1344.52 528.169 1343.7 528.43 1343.35 529.104C1342.99 529.778 1343.24 530.611 1343.9 530.963C1355.43 537.143 1355.92 546.73 1355.59 550.565C1355.24 554.696 1353.59 557.394 1352.54 557.754C1351.83 557.998 1351.45 558.78 1351.68 559.5C1351.83 559.975 1352.22 560.305 1352.67 560.405Z" fill="#371A45"/>
<path d="M1294.14 474.121C1292.36 481.101 1292.31 488.566 1294.23 495.852C1294.62 497.337 1295.09 498.812 1295.64 500.273C1295.91 500.985 1296.21 501.696 1296.51 502.407C1297.45 504.542 1298.55 506.562 1299.77 508.461C1300.82 510.101 1301.98 511.649 1303.21 513.103C1304.71 514.86 1306.33 516.475 1308.05 517.946C1308.68 518.48 1309.32 518.996 1309.98 519.493C1321.97 528.574 1338.3 531.043 1352.93 524.521C1374.47 514.917 1384.14 489.444 1374.54 467.628C1372.68 463.428 1370.25 459.662 1367.37 456.401C1367.04 456.017 1366.7 455.641 1366.34 455.272C1365.41 454.282 1364.43 453.34 1363.42 452.452C1361.07 450.398 1358.51 448.621 1355.82 447.141C1353.12 445.658 1350.28 444.47 1347.34 443.601C1346.41 443.324 1345.46 443.077 1344.51 442.866C1343.08 442.549 1341.64 442.301 1340.17 442.134C1332.89 441.281 1325.3 442.313 1318.12 445.515C1305.73 451.038 1297.27 461.812 1294.14 474.121Z" fill="white"/>
<path d="M1344.52 443.011C1345.44 443.216 1346.37 443.458 1347.29 443.731C1350.21 444.598 1353.06 445.785 1355.74 447.26C1358.44 448.746 1360.99 450.527 1363.31 452.555C1364.32 453.439 1365.3 454.385 1366.23 455.367C1366.61 455.76 1366.94 456.128 1367.26 456.491C1370.18 459.8 1372.58 463.565 1374.4 467.684C1379.05 478.243 1379.34 489.975 1375.23 500.716C1371.15 511.372 1363.2 519.78 1352.86 524.391C1338.81 530.656 1322.4 528.737 1310.05 519.379C1309.39 518.882 1308.75 518.364 1308.12 517.836C1306.39 516.355 1304.77 514.731 1303.3 513.009C1302.05 511.54 1300.9 509.983 1299.87 508.382C1298.64 506.477 1297.55 504.446 1296.62 502.346C1296.29 501.566 1296 500.871 1295.76 500.22C1295.21 498.793 1294.74 497.31 1294.34 495.812C1292.48 488.737 1292.45 481.247 1294.25 474.151C1297.51 461.352 1306.22 450.96 1318.16 445.639C1325.07 442.559 1332.67 441.394 1340.14 442.269C1341.56 442.431 1343.01 442.677 1344.46 442.998C1344.48 443.003 1344.5 443.007 1344.52 443.011ZM1326.41 527.276C1335.19 529.242 1344.5 528.419 1352.97 524.645C1363.38 520.004 1371.38 511.541 1375.48 500.815C1379.63 490.003 1379.33 478.196 1374.65 467.568C1372.82 463.424 1370.4 459.635 1367.46 456.306C1367.14 455.94 1366.81 455.569 1366.43 455.173C1365.49 454.185 1364.51 453.233 1363.49 452.344C1361.16 450.303 1358.59 448.51 1355.87 447.016C1353.17 445.531 1350.31 444.337 1347.36 443.465C1346.42 443.185 1345.45 442.93 1344.52 442.728C1343.06 442.403 1341.6 442.157 1340.17 441.993C1332.65 441.112 1325 442.286 1318.05 445.385C1306.04 450.74 1297.26 461.201 1293.99 474.084C1292.18 481.226 1292.21 488.765 1294.08 495.885C1294.48 497.393 1294.96 498.886 1295.5 500.322C1295.75 500.975 1296.03 501.676 1296.37 502.46C1297.31 504.574 1298.4 506.618 1299.64 508.536C1300.68 510.146 1301.84 511.712 1303.1 513.192C1304.57 514.924 1306.2 516.558 1307.95 518.05C1308.57 518.58 1309.22 519.102 1309.88 519.602C1314.87 523.382 1320.52 525.956 1326.41 527.276Z" fill="#371A45"/>
<path d="M1344.33 443.922C1345.22 444.122 1346.13 444.36 1347.03 444.627C1349.9 445.475 1352.68 446.637 1355.31 448.082C1357.96 449.536 1360.45 451.28 1362.72 453.265C1363.71 454.129 1364.67 455.055 1365.58 456.017C1365.95 456.403 1366.27 456.76 1366.58 457.111C1369.44 460.356 1371.79 464.042 1373.57 468.072C1378.12 478.404 1378.41 489.881 1374.39 500.388C1370.4 510.81 1362.63 519.034 1352.51 523.544C1338.76 529.676 1322.7 527.794 1310.6 518.635C1309.97 518.15 1309.33 517.641 1308.72 517.124C1307.02 515.676 1305.44 514.086 1304.01 512.402C1302.78 510.963 1301.65 509.439 1300.65 507.873C1299.44 506.006 1298.37 504.018 1297.47 501.964C1297.14 501.203 1296.86 500.52 1296.62 499.885C1296.09 498.486 1295.62 497.034 1295.24 495.568C1293.42 488.647 1293.39 481.321 1295.15 474.38C1298.33 461.862 1306.85 451.697 1318.53 446.493C1325.29 443.479 1332.72 442.339 1340.04 443.195C1341.43 443.354 1342.85 443.595 1344.27 443.909C1344.29 443.914 1344.31 443.918 1344.33 443.922ZM1326.22 528.186C1335.19 530.195 1344.7 529.354 1353.34 525.499C1363.98 520.756 1372.15 512.109 1376.35 501.149C1380.58 490.103 1380.27 478.041 1375.49 467.186C1373.62 462.954 1371.15 459.085 1368.15 455.685C1367.83 455.315 1367.48 454.933 1367.09 454.526C1366.15 453.521 1365.14 452.549 1364.1 451.641C1361.72 449.557 1359.1 447.726 1356.32 446.201C1353.56 444.686 1350.64 443.466 1347.64 442.576C1346.67 442.289 1345.7 442.039 1344.74 441.823C1343.25 441.493 1341.75 441.24 1340.29 441.073C1332.61 440.174 1324.8 441.372 1317.7 444.538C1305.42 450.009 1296.46 460.698 1293.12 473.861C1291.26 481.158 1291.29 488.861 1293.21 496.136C1293.61 497.676 1294.1 499.199 1294.66 500.666C1294.91 501.331 1295.2 502.046 1295.55 502.845C1296.5 505.008 1297.62 507.094 1298.89 509.052C1299.94 510.696 1301.13 512.296 1302.41 513.806C1303.92 515.575 1305.58 517.245 1307.37 518.767C1308.01 519.309 1308.67 519.842 1309.34 520.351C1314.44 524.21 1320.21 526.839 1326.22 528.186Z" fill="#371A45"/>
<path d="M1344.26 444.225C1345.14 444.424 1346.05 444.659 1346.94 444.924C1349.79 445.767 1352.55 446.921 1355.16 448.354C1357.79 449.799 1360.26 451.53 1362.52 453.5C1363.5 454.359 1364.45 455.277 1365.35 456.232C1365.72 456.616 1366.04 456.969 1366.35 457.317C1369.19 460.54 1371.52 464.199 1373.29 468.202C1377.81 478.456 1378.1 489.849 1374.1 500.278C1370.14 510.621 1362.43 518.783 1352.38 523.26C1344.22 526.902 1335.23 527.696 1326.75 525.799C1321.06 524.525 1315.61 522.038 1310.78 518.386C1310.15 517.904 1309.52 517.399 1308.91 516.885C1307.23 515.448 1305.65 513.87 1304.23 512.198C1303.02 510.769 1301.9 509.257 1300.9 507.702C1299.7 505.848 1298.64 503.875 1297.74 501.835C1297.41 501.08 1297.14 500.403 1296.9 499.772C1296.37 498.382 1295.91 496.941 1295.53 495.485C1293.72 488.616 1293.69 481.344 1295.44 474.456C1298.6 462.03 1307.06 451.941 1318.65 446.776C1325.36 443.784 1332.74 442.653 1340 443.503C1341.38 443.661 1342.79 443.899 1344.2 444.213C1344.22 444.217 1344.24 444.221 1344.26 444.225ZM1326.15 528.488C1335.18 530.51 1344.75 529.663 1353.46 525.781C1364.17 521.007 1372.4 512.298 1376.63 501.259C1380.89 490.135 1380.58 477.989 1375.76 467.057C1373.88 462.796 1371.4 458.9 1368.38 455.477C1368.05 455.105 1367.7 454.719 1367.31 454.309C1366.36 453.299 1365.34 452.32 1364.29 451.406C1361.9 449.307 1359.26 447.464 1356.46 445.927C1353.69 444.402 1350.75 443.175 1347.72 442.279C1346.75 441.99 1345.76 441.738 1344.8 441.52C1343.3 441.187 1341.79 440.933 1340.32 440.766C1332.59 439.86 1324.72 441.066 1317.58 444.254C1305.21 449.765 1296.19 460.53 1292.82 473.787C1290.95 481.135 1290.98 488.892 1292.91 496.218C1293.32 497.769 1293.81 499.303 1294.37 500.78C1294.62 501.449 1294.92 502.168 1295.27 502.972C1296.23 505.151 1297.36 507.252 1298.63 509.224C1299.69 510.878 1300.88 512.489 1302.18 514.01C1303.69 515.791 1305.37 517.472 1307.17 519.005C1307.81 519.552 1308.48 520.088 1309.15 520.599C1314.28 524.486 1320.09 527.132 1326.15 528.488Z" fill="#371A45"/>
<path d="M1292.79 485.092C1299.25 515.273 1332.69 529.584 1354.53 508.559C1369.39 494.255 1366.92 468.444 1352.34 454.837C1341.73 444.935 1327.1 439.936 1307.47 452.301C1307.47 452.301 1299.63 459.135 1297.01 466.138C1294.39 473.14 1293.01 480.403 1293.01 480.403L1292.79 485.092Z" fill="#6630EA"/>
<path opacity="0.35" d="M1354.54 508.558C1332.7 529.585 1299.26 515.271 1292.79 485.092L1292.84 484.141C1309.69 506.783 1341.02 513.57 1363.5 492.728C1362.06 498.634 1359.12 504.144 1354.54 508.558Z" fill="#212123"/>
<path d="M1299.76 508.462L1299.76 508.461L1299.76 508.462ZM1339.86 443.487C1344.84 445.191 1349.69 448.22 1354.26 452.49C1362.54 460.212 1367.5 471.941 1367.54 483.866C1367.58 494.515 1363.74 504.102 1356.72 510.859C1349.02 518.266 1339.68 522.002 1329.69 521.664C1319.05 521.301 1308.54 516.183 1300.84 507.61C1299.67 505.785 1298.63 503.842 1297.74 501.835C1297.41 501.08 1297.14 500.403 1296.9 499.773C1296.37 498.382 1295.91 496.941 1295.53 495.486C1293.72 488.616 1293.69 481.344 1295.44 474.456C1298.6 462.031 1307.06 451.942 1318.65 446.776C1325.31 443.804 1332.64 442.667 1339.86 443.487ZM1322.29 523.478C1324.69 524.017 1327.13 524.334 1329.58 524.417C1340.31 524.781 1350.33 520.782 1358.57 512.852C1366.14 505.561 1370.29 495.256 1370.25 483.834C1370.21 471.159 1364.92 458.68 1356.1 450.453C1351.21 445.883 1345.99 442.645 1340.6 440.827L1340.47 440.782L1340.33 440.766C1332.59 439.86 1324.72 441.066 1317.58 444.254C1305.21 449.765 1296.19 460.531 1292.82 473.787C1290.95 481.135 1290.98 488.892 1292.91 496.218C1293.32 497.769 1293.81 499.303 1294.37 500.78C1294.62 501.449 1294.92 502.168 1295.27 502.972C1296.23 505.151 1297.35 507.252 1298.63 509.224L1298.76 509.392C1305.19 516.587 1313.5 521.508 1322.29 523.478Z" fill="#371A45"/>
<path d="M1292.79 485.094L1292.78 485.093L1292.79 485.094ZM1335.84 446.56C1341.44 447.815 1346.76 450.783 1351.78 455.465C1359.22 462.404 1363.68 472.943 1363.72 483.655C1363.75 493.236 1360.28 501.864 1353.96 507.949C1344.75 516.818 1332.7 519.817 1320.87 516.178C1307.32 512.008 1296.89 500.074 1293.62 485.016L1293.84 480.501C1293.98 479.805 1295.34 472.958 1297.79 466.434C1300.2 459.99 1307.32 453.561 1307.97 452.985C1317.87 446.763 1327.19 444.623 1335.84 446.56ZM1323.16 518.537C1334.66 521.113 1346.16 517.779 1355.1 509.173C1361.76 502.76 1365.41 493.69 1365.38 483.635C1365.34 472.463 1360.68 461.465 1352.91 454.214C1339.53 441.728 1324.1 440.843 1307.04 451.585L1306.94 451.663C1306.61 451.948 1298.9 458.721 1296.23 465.845C1293.62 472.835 1292.21 480.178 1292.2 480.251L1292.18 480.371L1291.95 485.171L1291.98 485.281C1295.34 500.982 1306.22 513.441 1320.37 517.797C1321.3 518.083 1322.23 518.329 1323.16 518.537Z" fill="#371A45"/>
<path d="M1369.71 520.253C1364.37 526.812 1356.04 529.107 1351.11 525.376C1346.18 521.645 1346.51 513.303 1351.85 506.743C1351.89 506.702 1351.92 506.659 1351.96 506.619C1357.3 500.155 1365.55 497.915 1370.45 501.619C1374.26 504.502 1374.92 510.136 1372.57 515.573C1371.88 517.175 1370.92 518.761 1369.71 520.253Z" fill="white"/>
<path d="M1368.68 519.38C1363.81 525.371 1356.3 527.564 1351.94 524.269C1350.32 523.042 1349.33 521.174 1349.06 518.871C1348.65 515.288 1350.09 511.08 1352.91 507.617C1357.79 501.627 1365.3 499.434 1369.65 502.729C1371.27 503.956 1372.27 505.823 1372.53 508.126C1372.94 511.709 1371.5 515.917 1368.68 519.38ZM1354.16 528.243C1359.48 529.434 1366.18 526.755 1370.76 521.127C1374.1 517.031 1375.72 512.168 1375.22 507.787C1374.87 504.716 1373.51 502.201 1371.28 500.514C1365.79 496.359 1356.61 498.762 1350.83 505.871C1347.5 509.966 1345.87 514.829 1346.37 519.211C1346.72 522.282 1348.08 524.797 1350.31 526.483C1351.46 527.349 1352.76 527.929 1354.16 528.243Z" fill="#371A45"/>
<path d="M1369.77 521.628C1365.39 526.959 1358.81 529.02 1355.07 526.232C1351.32 523.445 1351.83 516.863 1356.21 511.532C1360.58 506.201 1367.16 504.14 1370.91 506.927C1374.65 509.715 1374.14 516.297 1369.77 521.628Z" fill="white"/>
<path d="M1368.25 507.215C1368.93 507.367 1369.55 507.639 1370.09 508.039C1371.44 509.042 1371.87 510.547 1372 511.632C1372.32 514.442 1371.1 517.85 1368.72 520.748C1364.87 525.439 1358.98 527.439 1355.86 525.117C1354.51 524.113 1354.08 522.609 1353.95 521.524C1353.63 518.714 1354.85 515.306 1357.23 512.407C1360.42 508.525 1365 506.486 1368.25 507.215ZM1357.14 528.657C1361.4 529.612 1366.86 527.295 1370.79 522.503C1373.64 519.03 1375.1 514.837 1374.69 511.287C1374.42 508.958 1373.38 507.064 1371.7 505.812C1367.33 502.553 1360.06 504.68 1355.16 510.653C1352.31 514.126 1350.85 518.318 1351.26 521.869C1351.53 524.198 1352.57 526.091 1354.25 527.344C1355.11 527.988 1356.09 528.421 1357.14 528.657Z" fill="#371A45"/>
<path opacity="0.7" d="M1312.38 461.261C1313.17 460.615 1314.06 459.951 1315.06 459.268C1317.67 457.494 1320.7 456.441 1323.84 456.247C1323.86 456.246 1323.88 456.245 1323.89 456.244C1326.82 456.066 1329.73 456.383 1332.52 457.008C1344.01 459.581 1353.49 467.368 1353.49 467.368C1354.52 467.187 1348.37 453.649 1333.23 449.229C1332.84 449.115 1332.46 449.016 1332.07 448.93C1324.39 447.21 1317.08 450.646 1312.16 453.981C1310.44 455.141 1309.02 456.29 1307.97 457.205L1307.96 457.21C1307.93 457.24 1307.9 457.27 1307.86 457.301C1309.7 458.877 1311.32 460.289 1312.38 461.261Z" fill="white"/>
<path opacity="0.7" d="M1350.47 498.539C1353.05 499.117 1355.96 497.597 1357.38 494.731C1359.03 491.419 1358.08 487.564 1355.26 486.122C1354.88 485.928 1354.49 485.787 1354.09 485.697C1351.5 485.118 1348.6 486.639 1347.17 489.505C1345.53 492.817 1346.48 496.671 1349.3 498.114C1349.67 498.309 1350.07 498.449 1350.47 498.539Z" fill="white"/>
<path opacity="0.7" d="M1344.46 503.624C1346.04 503.176 1347.61 502.634 1349.17 501.995C1348.98 501.291 1348.53 500.709 1347.87 500.441C1347.77 500.397 1347.66 500.363 1347.55 500.338C1346.42 500.085 1345.18 500.823 1344.66 502.119C1344.46 502.621 1344.4 503.14 1344.46 503.624Z" fill="white"/>
<path opacity="0.7" d="M1346.16 505.689C1347.29 505.942 1348.53 505.203 1349.04 503.908C1349.3 503.259 1349.33 502.583 1349.17 501.993C1347.62 502.632 1346.04 503.174 1344.46 503.622C1344.56 504.504 1345.05 505.266 1345.83 505.586C1345.94 505.629 1346.05 505.664 1346.16 505.689Z" fill="white"/>
<path d="M1300.3 531.402L1300.28 524.408L1263.55 516.207L1262.38 522.724C1262.27 523.316 1262.45 523.922 1262.86 524.354L1277.87 540.291C1279.35 541.856 1281.65 542.266 1283.58 541.306L1298.91 533.674C1299.76 533.248 1300.31 532.365 1300.3 531.402Z" fill="white"/>
<path d="M1300.3 531.4L1300.3 531.399L1300.3 531.4ZM1298.93 525.518L1298.95 531.415C1298.95 531.845 1298.7 532.245 1298.32 532.434L1282.99 540.067C1281.59 540.765 1279.93 540.469 1278.85 539.331L1263.84 523.394C1263.73 523.279 1263.68 523.117 1263.71 522.958L1264.63 517.859L1298.93 525.518ZM1280.04 543.051C1281.4 543.354 1282.85 543.197 1284.17 542.541L1299.5 534.908C1300.81 534.253 1301.66 532.87 1301.66 531.385L1301.64 524.391C1301.64 523.75 1301.2 523.199 1300.59 523.061L1300.59 523.061L1263.85 514.859C1263.49 514.778 1263.11 514.851 1262.8 515.061C1262.49 515.27 1262.28 515.598 1262.22 515.969L1261.05 522.485C1260.86 523.508 1261.17 524.563 1261.88 525.31L1276.89 541.247C1277.77 542.177 1278.87 542.787 1280.04 543.051Z" fill="#371A45"/>
<path d="M1299.37 522.723L1282.41 507.473C1281.56 506.714 1280.35 506.551 1279.33 507.061L1265.06 514.203C1263.35 515.063 1262.95 517.374 1264.28 518.75L1279.27 534.217C1280.08 535.056 1281.32 535.291 1282.38 534.809L1298.63 527.451C1300.5 526.606 1300.89 524.089 1299.37 522.723Z" fill="white"/>
<path d="M1299.37 522.722L1299.37 522.721L1299.37 522.722ZM1280.87 508.176C1281.1 508.228 1281.32 508.339 1281.5 508.506L1298.47 523.757C1298.84 524.092 1299.01 524.572 1298.93 525.075C1298.86 525.578 1298.55 525.985 1298.09 526.191L1281.84 533.55C1281.29 533.796 1280.65 533.674 1280.23 533.245L1265.25 517.778C1264.93 517.44 1264.79 516.977 1264.86 516.507C1264.95 516.038 1265.23 515.648 1265.65 515.437L1279.92 508.295C1280.22 508.143 1280.56 508.106 1280.87 508.176ZM1280.34 536.329C1281.19 536.519 1282.1 536.44 1282.92 536.065L1299.18 528.707C1300.48 528.118 1301.39 526.914 1301.61 525.487C1301.83 524.059 1301.33 522.638 1300.27 521.686L1283.31 506.436C1282.05 505.304 1280.26 505.064 1278.74 505.824L1264.47 512.967C1263.26 513.575 1262.43 514.701 1262.2 516.055C1261.96 517.41 1262.37 518.745 1263.31 519.719L1278.3 535.187C1278.86 535.771 1279.58 536.158 1280.34 536.329Z" fill="#371A45"/>
<path d="M1280.54 544.886C1278.8 540.055 1271.15 526.718 1257.43 528.218C1243.15 529.779 1235.62 549.808 1234.75 551.348C1233.15 551.608 1225.81 551.745 1222.99 556.386C1222.19 557.717 1221.48 559.604 1221.9 561.656C1223.91 571.365 1236.8 573.66 1243.58 572.444C1253.92 570.585 1264.73 555.555 1264.73 555.555C1264.73 555.555 1271.15 556.774 1275.35 553.849C1279.82 550.744 1280.54 544.886 1280.54 544.886Z" fill="white"/>
<path d="M1221.9 561.659C1223.91 571.368 1236.8 573.663 1243.58 572.446C1253.92 570.588 1264.73 555.556 1264.73 555.556C1264.73 555.556 1271.15 556.776 1275.35 553.852C1279.82 550.747 1280.54 544.887 1280.54 544.887C1280.01 543.423 1278.94 541.176 1277.32 538.8C1273.6 533.335 1266.99 527.177 1257.43 528.221C1254.35 528.557 1251.59 529.753 1249.14 531.435C1240.22 537.554 1235.43 550.143 1234.75 551.35C1233.15 551.609 1225.81 551.748 1222.99 556.39C1222.97 556.44 1222.93 556.489 1222.9 556.54C1222.13 557.861 1221.49 559.682 1221.9 561.659Z" fill="white"/>
<path d="M1281.19 544.65C1279.69 539.195 1276.32 534.425 1271.9 530.989C1264.95 525.467 1255.11 525.163 1247.95 530.611C1241.2 535.602 1236.99 543.131 1233.59 550.671L1234.57 549.989C1234.29 550.026 1233.89 550.06 1233.51 550.096C1229.88 550.44 1226.03 551.206 1223.21 553.848C1219.64 557.398 1219.54 562.09 1222.16 566.229C1227.01 574.014 1240.88 576.388 1248.65 572.231C1252.86 570.068 1256.5 566.875 1259.73 563.464C1261.84 561.166 1263.75 558.714 1265.28 555.953C1265.65 555.261 1264.77 554.59 1264.22 555.142C1262.1 557.305 1260.01 559.506 1257.88 561.613C1252.81 566.61 1246.66 571.786 1239.3 571.23C1233.89 570.976 1227.77 569.328 1224.68 564.588C1223.99 563.489 1223.5 562.242 1223.31 560.952C1223.01 558.563 1224.59 555.955 1226.73 554.819C1229.19 553.392 1232.18 553.053 1234.99 552.706C1235.86 552.594 1236.12 551.645 1236.43 550.996C1238.44 546.473 1240.84 542.033 1243.95 538.2C1247.14 534.266 1251.3 530.796 1256.26 529.839C1264.1 528.304 1270.97 532.478 1275.69 538.59C1277.29 540.61 1278.74 542.811 1279.93 545.125C1280.27 545.844 1281.38 545.433 1281.19 544.65Z" fill="#371A45"/>
<path d="M1258.63 563.728C1259.17 563.85 1259.76 563.622 1260.07 563.115C1260.41 562.574 1268.3 549.743 1264.31 538.674C1259.99 526.674 1249.42 529.712 1249.31 529.743C1248.59 529.96 1248.18 530.727 1248.39 531.456C1248.59 532.185 1249.34 532.6 1250.06 532.384C1250.39 532.287 1258.32 530.087 1261.77 539.641C1265.29 549.424 1257.86 561.531 1257.79 561.652C1257.39 562.297 1257.57 563.147 1258.2 563.55C1258.34 563.637 1258.48 563.695 1258.63 563.728Z" fill="#371A45"/>
<path d="M1307.44 568.479C1310.82 560.208 1301.49 540.604 1296.26 534.995C1292.17 531.409 1287.85 534.025 1287.96 539.128C1287.96 539.128 1298.9 550.778 1299.06 571.869C1299.06 571.869 1305.04 574.197 1307.44 568.479Z" fill="white"/>
<path d="M1288.19 537.034C1288.03 537.668 1287.94 538.37 1287.96 539.129C1287.96 539.129 1298.9 550.78 1299.06 571.869C1299.06 571.869 1305.04 574.197 1307.44 568.479C1308 567.104 1308.21 565.416 1308.15 563.53C1307.84 554.074 1300.62 539.673 1296.26 534.995C1292.78 531.94 1289.13 533.387 1288.19 537.034Z" fill="white"/>
<path d="M1306.2 567.951C1304.8 571.288 1301.89 571.146 1300.41 570.824C1299.97 552.034 1291.29 540.886 1289.33 538.596C1289.42 536.884 1290.14 535.519 1291.27 534.971C1292.44 534.404 1293.92 534.778 1295.33 535.996C1300.69 541.795 1309.23 560.533 1306.2 567.951ZM1299.76 573.507C1302.48 574.117 1306.71 573.749 1308.7 569.01L1308.7 568.998C1312.43 559.889 1302.6 539.765 1297.26 534.042C1297.23 534.009 1297.19 533.978 1297.16 533.948C1294.92 531.983 1292.29 531.437 1290.12 532.485C1287.9 533.56 1286.55 536.12 1286.61 539.166C1286.62 539.509 1286.75 539.836 1286.98 540.083C1287.09 540.195 1297.57 551.641 1297.72 571.889C1297.72 572.452 1298.06 572.953 1298.58 573.154C1298.92 573.288 1299.32 573.41 1299.76 573.507Z" fill="#371A45"/>
<path d="M1276.14 518.537C1274 519.124 1271.91 518.173 1271.45 516.411L1270.69 513.436L1278.42 511.314L1279.19 514.289C1279.64 516.05 1278.28 517.951 1276.14 518.537Z" fill="#22A7F0"/>
<path d="M1278.14 515.639C1278.27 515.275 1278.29 514.905 1278.2 514.557L1277.98 513.702C1277.91 513.815 1277.83 513.925 1277.75 514.031L1278.07 515.287C1278.1 515.404 1278.12 515.521 1278.14 515.639Z" fill="#BCE4FA"/>
<path d="M1276.15 518.536C1274.02 519.122 1271.92 518.169 1271.47 516.408L1270.7 513.432L1278.44 511.31L1278.85 512.911L1275.05 513.952L1275.82 516.926C1275.97 517.491 1276.28 517.974 1276.71 518.347C1276.53 518.419 1276.35 518.483 1276.15 518.536Z" fill="#1C7AEA"/>
<path d="M1277.7 512.576L1278.21 514.554C1278.35 515.099 1278.21 515.699 1277.82 516.245C1277.39 516.854 1276.7 517.313 1275.89 517.534C1275.08 517.757 1274.27 517.711 1273.59 517.405C1272.99 517.133 1272.58 516.682 1272.44 516.137L1271.93 514.159L1277.7 512.576ZM1273.71 519.613C1274.57 519.806 1275.5 519.78 1276.4 519.53C1277.66 519.185 1278.75 518.448 1279.46 517.454C1280.22 516.394 1280.48 515.173 1280.18 514.015L1279.41 511.039C1279.34 510.775 1279.17 510.549 1278.94 510.413C1278.71 510.276 1278.43 510.239 1278.17 510.312L1270.43 512.433C1269.89 512.583 1269.57 513.15 1269.71 513.701L1270.47 516.677C1270.77 517.835 1271.58 518.765 1272.75 519.295C1273.06 519.433 1273.38 519.539 1273.71 519.613Z" fill="#371A45"/>
<path d="M1275.37 515.557C1273.23 516.143 1271.14 515.192 1270.68 513.434C1270.23 511.675 1271.59 509.774 1273.73 509.188C1275.87 508.602 1277.97 509.552 1278.42 511.311C1278.87 513.069 1277.51 514.97 1275.37 515.557Z" fill="#22A7F0"/>
<path d="M1275.08 515.629C1275.08 515.628 1275.08 515.629 1275.08 515.629C1275.08 515.629 1275.08 515.628 1275.08 515.629Z" fill="#BAD7F9"/>
<path d="M1275.44 515.536C1276.16 515.327 1276.79 514.967 1277.29 514.515C1276.79 514.966 1276.16 515.326 1275.44 515.536L1275.44 515.536Z" fill="#BCE4FA"/>
<path d="M1275.08 515.627C1275.18 515.607 1275.27 515.584 1275.37 515.558C1275.39 515.55 1275.42 515.544 1275.44 515.536L1275.44 515.536C1275.42 515.543 1275.39 515.55 1275.37 515.558C1275.27 515.584 1275.18 515.607 1275.08 515.627Z" fill="#BAD7F9"/>
<path d="M1274.67 515.698C1274.81 515.681 1274.94 515.659 1275.08 515.631C1275.08 515.63 1275.08 515.63 1275.08 515.63C1275.08 515.63 1275.08 515.629 1275.08 515.629C1275.18 515.609 1275.27 515.586 1275.37 515.56C1275.4 515.552 1275.42 515.545 1275.45 515.538C1276.16 515.328 1276.79 514.969 1277.29 514.517C1278.24 513.655 1278.71 512.455 1278.42 511.314C1278.13 510.189 1277.16 509.395 1275.95 509.123C1275.26 508.97 1274.5 508.981 1273.73 509.193C1273.5 509.256 1273.27 509.337 1273.06 509.43C1273.59 509.365 1274.1 509.391 1274.58 509.498C1275.79 509.77 1276.76 510.564 1277.05 511.69C1277.45 513.258 1276.41 514.937 1274.67 515.698Z" fill="#BCE4FA"/>
<path d="M1275.38 515.557C1273.24 516.143 1271.14 515.193 1270.69 513.433C1270.23 511.676 1271.6 509.776 1273.74 509.189C1273.87 509.153 1274 509.125 1274.12 509.102C1273 509.967 1272.42 511.279 1272.74 512.518C1273.16 514.172 1275.04 515.11 1277.04 514.729C1276.57 515.097 1276.01 515.384 1275.38 515.557Z" fill="#1C7AEA"/>
<path d="M1275.72 510.135C1276.57 510.327 1277.25 510.852 1277.44 511.584C1277.58 512.128 1277.44 512.728 1277.05 513.272C1276.61 513.882 1275.93 514.34 1275.12 514.562L1275.12 514.562C1274.31 514.785 1273.49 514.739 1272.82 514.433C1272.22 514.161 1271.81 513.711 1271.67 513.167C1271.36 511.982 1272.43 510.618 1273.99 510.189C1274.59 510.025 1275.19 510.017 1275.72 510.135ZM1272.93 516.64C1273.79 516.832 1274.72 516.807 1275.63 516.557C1276.89 516.213 1277.97 515.475 1278.69 514.482C1279.45 513.422 1279.7 512.202 1279.41 511.045C1278.81 508.739 1276.15 507.46 1273.48 508.194C1270.8 508.928 1269.11 511.401 1269.7 513.707C1270 514.863 1270.81 515.793 1271.98 516.322C1272.28 516.46 1272.6 516.566 1272.93 516.64Z" fill="#371A45"/>
<path d="M1271.05 527.384C1271.33 527.447 1271.63 527.42 1271.91 527.287L1278.59 524.133C1279.71 523.604 1280.95 523.411 1282.17 523.573L1285.3 523.99C1286.76 524.183 1288.26 524.015 1289.64 523.503L1296.46 520.984C1297.17 520.723 1297.54 519.933 1297.29 519.218C1297.04 518.502 1296.26 518.134 1295.56 518.395L1288.74 520.914C1287.76 521.274 1286.7 521.393 1285.68 521.257L1282.54 520.84C1280.81 520.61 1279.06 520.885 1277.47 521.636L1270.79 524.789C1270.11 525.11 1269.81 525.93 1270.12 526.62C1270.3 527.025 1270.65 527.295 1271.05 527.384Z" fill="#371A45"/>
<path d="M1251.73 526.389C1251.73 526.389 1253.39 538.093 1263.91 539.862C1274.42 541.633 1283.18 524.003 1281.4 514.775C1279.29 503.871 1265.33 500.456 1258.29 516.158L1251.73 526.389Z" fill="white"/>
<path d="M1251.73 526.388C1251.73 526.388 1253.25 537.148 1262.65 539.595C1263.05 539.7 1263.47 539.79 1263.91 539.862C1274.42 541.631 1283.18 524.002 1281.4 514.774C1279.37 504.334 1266.5 500.757 1259.22 514.254L1259.22 514.261C1258.9 514.859 1258.58 515.489 1258.29 516.157L1251.73 526.388Z" fill="white"/>
<path d="M1251.71 526.386C1251.71 526.386 1253.24 537.145 1262.64 539.592L1265.73 531.648L1263.69 527.094C1263.69 527.094 1255.31 526.216 1259.21 514.259C1258.88 514.857 1258.57 515.487 1258.27 516.155L1251.71 526.386Z" fill="#E8E8E8"/>
<path d="M1259.5 538.332C1260.76 539.038 1262.22 539.58 1263.91 539.862C1272.99 541.392 1280.76 528.445 1281.56 518.944C1281.16 515.795 1279.88 512 1276.18 510.377C1270.67 507.955 1264.26 511.995 1259.78 522.498C1257.49 527.88 1255.3 534.663 1259.5 538.332Z" fill="#F7F4FE"/>
<path d="M1259.48 538.33C1260.75 539.037 1262.2 539.578 1263.89 539.861C1269.91 540.877 1275.35 535.53 1278.57 529.041C1275.57 532.428 1271.88 534.455 1268 533.466C1258.06 530.923 1261.59 521.484 1263.88 516.102C1264.16 515.43 1264.46 514.786 1264.76 514.168C1262.95 516.23 1261.25 519.006 1259.76 522.496C1257.47 527.878 1255.28 534.661 1259.48 538.33Z" fill="#C4BBFF"/>
<path d="M1280.18 518.987C1279.6 525.319 1275.83 532.716 1271.37 536.25C1268.97 538.151 1266.53 538.91 1264.12 538.504C1262.73 538.273 1261.44 537.832 1260.27 537.194C1256.9 534.101 1258.88 528.012 1261 523.037C1263.54 517.083 1266.85 513.027 1270.32 511.617C1272.13 510.885 1273.91 510.893 1275.62 511.643C1278.14 512.75 1279.67 515.22 1280.18 518.987ZM1259.48 538.333L1259.48 538.332L1259.48 538.333ZM1262.81 541.058C1263.09 541.12 1263.37 541.175 1263.65 541.223C1266.8 541.752 1270.04 540.782 1273.02 538.418C1278.14 534.365 1282.29 526.22 1282.89 519.052L1282.9 518.904L1282.89 518.759C1282.28 513.955 1280.14 510.62 1276.71 509.113C1274.35 508.077 1271.8 508.06 1269.33 509.06C1265.13 510.769 1261.39 515.229 1258.52 521.96C1256.01 527.85 1253.75 535.154 1258.6 539.382L1258.7 539.473L1258.82 539.54C1260.05 540.231 1261.39 540.74 1262.81 541.058Z" fill="#371A45"/>
<path d="M1280.93 522.551C1281.35 522.645 1281.81 522.536 1282.15 522.217C1282.7 521.701 1282.74 520.836 1282.24 520.277C1282.04 520.057 1277.27 514.865 1265.35 512.466C1264.62 512.319 1263.9 512.806 1263.75 513.553C1263.6 514.289 1264.06 515.004 1264.77 515.164C1264.78 515.166 1264.79 515.169 1264.8 515.171C1275.78 517.363 1280.19 522.1 1280.24 522.146C1280.43 522.358 1280.67 522.493 1280.93 522.551Z" fill="#371A45"/>
<path d="M1279.01 528.779C1279.54 528.898 1280.12 528.682 1280.44 528.194C1280.86 527.559 1280.69 526.704 1280.07 526.284C1279.76 526.072 1272.28 521.056 1261.49 518.23C1260.77 518.031 1260.03 518.485 1259.83 519.222C1259.64 519.959 1260.07 520.711 1260.8 520.9C1271.12 523.604 1278.49 528.534 1278.56 528.583C1278.7 528.679 1278.86 528.744 1279.01 528.779Z" fill="#371A45"/>
<path d="M1276.08 534.157C1276.63 534.281 1277.22 534.042 1277.53 533.523C1277.92 532.872 1277.73 532.025 1277.09 531.632C1276.78 531.442 1269.47 526.971 1259.51 524.4C1258.78 524.215 1258.05 524.659 1257.86 525.397C1257.67 526.134 1258.1 526.885 1258.83 527.071C1268.38 529.537 1275.6 533.947 1275.67 533.991C1275.8 534.071 1275.94 534.126 1276.08 534.157Z" fill="#371A45"/>
<path d="M1272.06 538.555C1272.62 538.681 1273.22 538.427 1273.53 537.889C1273.91 537.227 1273.68 536.387 1273.04 536.01C1272.78 535.864 1266.75 532.39 1257.52 530.001C1256.79 529.818 1256.05 530.261 1255.86 530.998C1255.67 531.736 1256.1 532.485 1256.83 532.673C1265.69 534.964 1271.62 538.373 1271.68 538.406C1271.8 538.476 1271.93 538.526 1272.06 538.555Z" fill="#371A45"/>
<path d="M1298.69 464.304C1296.42 467.304 1296.32 465.997 1295.56 467.373C1293.76 470.62 1295.58 472.69 1297.05 473.311C1300.07 474.591 1303.72 472.474 1305.78 469.746C1307.7 467.206 1308.83 462.966 1306.82 460.344C1305.85 459.07 1303.4 457.83 1300.79 460.439C1299.68 461.544 1300.95 461.304 1298.69 464.304Z" fill="#E0E0E0"/>
<path d="M1297.05 473.311C1300.07 474.591 1303.72 472.474 1305.78 469.747C1305.86 469.638 1305.94 469.529 1306.02 469.412C1304.84 469.314 1303.26 468.819 1303.67 466.815C1303.98 465.249 1301.92 463.975 1299.55 463.048C1299.34 463.39 1299.06 463.804 1298.68 464.307C1296.42 467.305 1296.32 465.999 1295.56 467.376C1293.76 470.621 1295.58 472.689 1297.05 473.311Z" fill="#E0E0E0"/>
<path d="M1297.05 473.311C1300.07 474.591 1303.72 472.474 1305.78 469.747C1305.86 469.638 1305.94 469.529 1306.02 469.412C1304.84 469.314 1303.26 468.819 1303.67 466.815C1303.98 465.249 1301.92 463.975 1299.55 463.048C1299.34 463.39 1299.06 463.804 1298.68 464.307C1296.42 467.305 1296.32 465.999 1295.56 467.376C1293.76 470.621 1295.58 472.689 1297.05 473.311Z" fill="#C5C4C6"/>
<path d="M1304.47 460C1305.16 460.154 1305.7 460.589 1306.01 460.986C1307.61 463.086 1306.74 466.773 1304.97 469.126C1303.14 471.545 1299.97 473.435 1297.43 472.359C1296.9 472.132 1296.23 471.594 1295.95 470.765C1295.67 469.934 1295.83 468.963 1296.43 467.878C1296.6 467.578 1296.61 467.571 1296.82 467.468C1297.43 467.16 1298.14 466.71 1299.48 464.932C1300.82 463.153 1301.06 462.341 1301.19 461.661C1301.24 461.437 1301.24 461.418 1301.48 461.178C1302.36 460.306 1303.24 459.892 1304.1 459.947C1304.23 459.955 1304.35 459.973 1304.47 460ZM1297.62 474.582C1300.87 475.311 1304.48 473.145 1306.57 470.375C1308.79 467.439 1309.91 462.703 1307.61 459.708C1306.8 458.649 1305.54 457.967 1304.24 457.884C1303.24 457.821 1301.7 458.084 1300.07 459.707C1299.42 460.349 1299.3 460.779 1299.2 461.274C1299.13 461.62 1299.03 462.142 1297.87 463.683C1296.71 465.224 1296.24 465.461 1295.93 465.618C1295.48 465.842 1295.1 466.077 1294.66 466.876C1293.55 468.897 1293.7 470.476 1294.02 471.445C1294.44 472.696 1295.42 473.752 1296.64 474.269C1296.96 474.404 1297.29 474.508 1297.62 474.582Z" fill="#371A45"/>
<path d="M1269.97 450.491L1283.15 461.717C1283.15 461.717 1295.25 470.11 1295.79 470.524C1297.58 471.919 1300.84 470.656 1303.06 467.706C1303.08 467.679 1303.11 467.649 1303.12 467.621C1305.29 464.694 1305.61 461.226 1303.84 459.846C1303.3 459.43 1292.15 449.781 1292.15 449.781L1278.02 439.813C1278.02 439.813 1272.49 441.22 1270.96 442.279C1270.82 442.373 1270.72 442.465 1270.65 442.553C1269.84 443.629 1269.97 450.491 1269.97 450.491Z" fill="#AAAAAA"/>
<path d="M1273.56 450.863L1284.87 460.497C1284.87 460.497 1295.25 467.7 1295.71 468.056C1297.25 469.253 1300.05 468.168 1301.95 465.637C1301.97 465.613 1301.99 465.588 1302.01 465.564L1274.41 443.815C1274.29 443.895 1274.2 443.974 1274.14 444.05C1273.45 444.974 1273.56 450.863 1273.56 450.863Z" fill="#909091"/>
<path d="M1271.43 443.201L1271.43 443.2L1271.43 443.201ZM1291.52 450.601C1292.83 451.735 1302.68 460.252 1303.21 460.668C1304 461.276 1304.01 462.451 1303.94 463.098C1303.82 464.374 1303.2 465.826 1302.26 467.081C1301.3 468.356 1300.11 469.313 1298.91 469.778C1298.31 470.009 1297.19 470.308 1296.41 469.7C1295.87 469.284 1285.19 461.873 1283.77 460.888L1270.98 449.995C1270.95 447.126 1271.12 443.856 1271.46 443.179C1272.01 442.677 1275.08 441.65 1277.81 440.928L1291.52 450.601ZM1296.62 472.029C1297.52 472.23 1298.54 472.124 1299.62 471.708C1301.17 471.108 1302.68 469.908 1303.87 468.33C1305.06 466.752 1305.8 464.961 1305.97 463.287C1306.15 461.433 1305.61 459.919 1304.46 459.022C1304.06 458.713 1297.28 452.854 1292.81 448.991L1292.73 448.93L1278.23 438.694L1277.78 438.808C1275.2 439.465 1270.74 440.744 1269.85 441.928L1269.85 441.929C1268.95 443.115 1268.9 447.819 1268.95 450.517L1268.96 450.984L1282.57 462.57C1287.42 465.93 1294.77 471.04 1295.16 471.346C1295.6 471.681 1296.09 471.909 1296.62 472.029Z" fill="#371A45"/>
<path d="M1267.78 440.327C1266.75 441.693 1263.99 449.715 1263.99 449.715C1263.99 449.715 1282.09 462.751 1283.91 463.628C1286.51 464.881 1290.35 463.795 1293.18 460.039C1296.01 456.284 1296.04 452.246 1294.17 450.025C1292.85 448.468 1275.71 434.163 1275.71 434.163C1275.71 434.163 1268.81 438.962 1267.78 440.327Z" fill="#AAAAAA"/>
<path d="M1263.99 449.712C1263.99 449.712 1282.08 462.752 1283.91 463.627C1286.51 464.882 1290.35 463.793 1293.18 460.04C1293.47 459.653 1293.73 459.263 1293.96 458.874C1296 455.471 1295.85 452.018 1294.17 450.024C1292.85 448.468 1275.71 434.162 1275.71 434.162C1275.71 434.162 1271.31 437.224 1269.01 439.149C1268.43 439.638 1267.98 440.051 1267.78 440.325C1266.75 441.692 1263.99 449.712 1263.99 449.712Z" fill="#8976FF"/>
<path d="M1284.4 447.266C1285.07 446.69 1285.75 446.195 1286.45 445.784C1284.41 444.046 1282.22 442.199 1280.5 440.746C1280.38 441.675 1280.14 442.64 1279.78 443.608L1284.4 447.266Z" fill="#F1EEFF"/>
<path d="M1267.87 449.913C1267.87 449.913 1282.6 460.532 1284.08 461.245C1286.2 462.266 1289.32 461.379 1291.63 458.323C1291.87 458.008 1292.08 457.69 1292.27 457.373L1271.95 441.311C1271.48 441.709 1271.11 442.044 1270.95 442.269C1270.11 443.381 1267.87 449.913 1267.87 449.913Z" fill="#6630EA"/>
<path d="M1275.66 435.453C1282.52 441.184 1292.51 449.638 1293.4 450.7C1294.81 452.373 1295.1 455.813 1292.39 459.414C1289.67 463.013 1286.33 463.635 1284.36 462.691C1283.12 462.093 1272.46 454.531 1265.21 449.315C1266.29 446.242 1267.97 441.779 1268.59 440.949C1269.22 440.12 1273.02 437.31 1275.66 435.453ZM1284.77 465.009C1287.83 465.693 1291.45 464.042 1293.99 460.662C1296.91 456.791 1297.31 452.138 1294.95 449.346C1293.62 447.767 1278.13 434.83 1276.37 433.36L1275.79 432.871L1275.16 433.309C1273.98 434.126 1268.06 438.274 1266.98 439.701C1265.91 441.128 1263.51 448.013 1263.04 449.379L1262.79 450.111L1263.41 450.557C1265.27 451.897 1281.63 463.672 1283.48 464.561C1283.9 464.761 1284.33 464.909 1284.77 465.009Z" fill="#371A45"/>
<path d="M1292.25 461.416C1292.38 461.444 1292.51 461.397 1292.6 461.284C1292.71 461.131 1292.68 460.915 1292.53 460.802L1267.17 441.625C1267.02 441.513 1266.81 441.544 1266.7 441.696C1266.59 441.85 1266.62 442.066 1266.77 442.179L1292.12 461.356C1292.16 461.385 1292.2 461.406 1292.25 461.416Z" fill="#371A45"/>
<path d="M1289.19 460.611C1289.14 460.812 1289.26 461.01 1289.46 461.054C1289.66 461.099 1289.85 460.972 1289.9 460.771C1289.94 460.57 1289.82 460.372 1289.62 460.328C1289.43 460.284 1289.23 460.411 1289.19 460.611Z" fill="#371A45"/>
<path d="M1286.9 458.935C1286.86 459.136 1286.98 459.334 1287.18 459.378C1287.38 459.422 1287.57 459.296 1287.62 459.094C1287.66 458.894 1287.54 458.696 1287.34 458.652C1287.15 458.608 1286.95 458.734 1286.9 458.935Z" fill="#371A45"/>
<path d="M1284.66 457.251C1284.62 457.452 1284.74 457.651 1284.94 457.695C1285.13 457.739 1285.33 457.612 1285.38 457.411C1285.42 457.211 1285.3 457.012 1285.1 456.968C1284.9 456.924 1284.71 457.051 1284.66 457.251Z" fill="#371A45"/>
<path d="M1282.42 455.568C1282.37 455.769 1282.5 455.967 1282.69 456.011C1282.89 456.055 1283.09 455.928 1283.13 455.728C1283.18 455.527 1283.05 455.329 1282.86 455.284C1282.66 455.24 1282.46 455.367 1282.42 455.568Z" fill="#371A45"/>
<path d="M1280.15 453.889C1280.11 454.09 1280.23 454.288 1280.43 454.332C1280.62 454.376 1280.82 454.25 1280.86 454.048C1280.91 453.848 1280.79 453.65 1280.59 453.606C1280.39 453.562 1280.2 453.688 1280.15 453.889Z" fill="#371A45"/>
<path d="M1277.9 452.21C1277.86 452.41 1277.98 452.609 1278.18 452.653C1278.38 452.697 1278.57 452.57 1278.62 452.369C1278.66 452.169 1278.54 451.97 1278.34 451.926C1278.15 451.882 1277.95 452.009 1277.9 452.21Z" fill="#371A45"/>
<path d="M1275.66 450.525C1275.62 450.725 1275.74 450.923 1275.94 450.968C1276.14 451.012 1276.33 450.885 1276.38 450.685C1276.42 450.483 1276.3 450.285 1276.1 450.241C1275.9 450.197 1275.71 450.324 1275.66 450.525Z" fill="#371A45"/>
<path d="M1272.32 432.29L1261.33 446.86C1262.51 451.019 1266.05 452.019 1267.39 452.248C1267.41 452.255 1267.44 452.26 1267.46 452.261C1267.52 452.273 1267.57 452.279 1267.62 452.286C1267.8 452.312 1267.9 452.317 1267.9 452.317C1270.61 452.538 1274.09 450.619 1276.66 447.209C1279.23 443.802 1280.15 439.89 1279.23 437.293C1279.23 437.293 1279.17 437.13 1279.05 436.864C1278.52 435.661 1276.65 432.348 1272.32 432.29Z" fill="#E0E0E0"/>
<path d="M1261.33 446.862C1262.51 451.022 1266.05 452.021 1267.39 452.25C1267.41 452.256 1267.44 452.261 1267.46 452.263C1267.52 452.277 1267.57 452.281 1267.62 452.289C1267.8 452.314 1267.9 452.32 1267.9 452.32C1270.61 452.541 1274.09 450.621 1276.66 447.211C1276.88 446.93 1277.08 446.643 1277.27 446.356C1279.37 443.167 1280.07 439.677 1279.22 437.293C1279.22 437.293 1279.17 437.129 1279.05 436.866C1278.52 435.661 1276.65 432.348 1272.32 432.29L1266.19 440.414L1261.33 446.862Z" fill="#F1EEFF"/>
<path d="M1261.32 446.862C1262.49 451.023 1266.03 452.021 1267.37 452.25C1267.39 452.256 1267.42 452.261 1267.44 452.263C1267.5 452.277 1267.55 452.281 1267.61 452.289C1267.78 452.314 1267.89 452.32 1267.89 452.32C1270.59 452.541 1274.08 450.621 1276.65 447.211C1276.86 446.93 1277.06 446.643 1277.25 446.356C1276.05 446.265 1274.72 445.701 1274.84 443.609C1274.94 442.012 1270.01 440.944 1266.18 440.414L1261.32 446.862Z" fill="#8976FF"/>
<path d="M1267.57 451.237L1267.55 451.232C1266.36 451.028 1263.57 450.218 1262.45 447.055L1272.77 433.355C1276.11 433.631 1277.61 436.181 1278.11 437.304C1278.19 437.496 1278.24 437.619 1278.24 437.64C1279.07 439.991 1278.11 443.58 1275.84 446.589C1273.57 449.599 1270.41 451.488 1267.97 451.29C1267.93 451.287 1267.86 451.282 1267.75 451.265L1267.57 451.237ZM1267.52 451.233L1267.51 451.232L1267.52 451.233ZM1266.8 453.191C1266.93 453.221 1267.05 453.245 1267.15 453.263C1267.2 453.271 1267.24 453.281 1267.29 453.287C1267.34 453.296 1267.38 453.302 1267.43 453.308C1267.68 453.345 1267.82 453.352 1267.82 453.352C1270.94 453.606 1274.73 451.443 1277.45 447.838C1280.16 444.234 1281.23 439.958 1280.16 436.944C1280.16 436.93 1280.09 436.735 1279.96 436.435C1279.43 435.243 1277.3 431.332 1272.32 431.266L1271.8 431.258L1260.2 446.656L1260.34 447.155C1261.58 451.552 1265.21 452.836 1266.8 453.191Z" fill="#371A45"/>
<path d="M1264.06 437.442C1260.69 441.907 1260.17 447.236 1262.88 449.344C1265.6 451.453 1270.53 449.543 1273.9 445.077C1277.26 440.613 1277.79 435.284 1275.07 433.175C1272.36 431.066 1267.42 432.977 1264.06 437.442Z" fill="#F1EEFF"/>
<path d="M1273.24 433.447C1273.69 433.549 1274.1 433.735 1274.45 434.007C1275.47 434.803 1275.93 436.276 1275.75 438.155C1275.55 440.212 1274.6 442.451 1273.09 444.458C1270.12 448.393 1265.73 450.253 1263.5 448.524C1261.27 446.794 1261.89 442.007 1264.86 438.073C1266.37 436.066 1268.26 434.554 1270.16 433.817C1271.31 433.373 1272.36 433.251 1273.24 433.447ZM1264.27 451.109C1267.45 451.822 1271.64 449.767 1274.7 445.707C1276.44 443.396 1277.53 440.782 1277.77 438.344C1278.03 435.729 1277.29 433.603 1275.69 432.36C1274.09 431.117 1271.87 430.949 1269.45 431.886C1267.19 432.76 1264.99 434.514 1263.25 436.824C1259.49 441.817 1259.05 447.679 1262.26 450.17C1262.86 450.635 1263.54 450.946 1264.27 451.109Z" fill="#371A45"/>
<path d="M1265.63 438.676C1263.2 441.901 1262.56 445.549 1264.21 446.825C1265.85 448.101 1269.15 446.52 1271.58 443.295C1274.01 440.07 1274.65 436.422 1273.01 435.147C1271.36 433.871 1268.06 435.452 1265.63 438.676Z" fill="#57DBFF"/>
<path d="M1264.22 446.818C1264.89 447.336 1265.83 447.382 1266.87 447.043C1267.89 446.71 1269.01 446.007 1270.07 445.004C1270.6 444.505 1271.12 443.927 1271.6 443.29C1274.03 440.064 1274.67 436.416 1273.03 435.139C1272.5 434.732 1271.8 434.618 1271.02 434.757C1269.71 434.986 1268.15 435.93 1266.74 437.398C1266.36 437.787 1266 438.212 1265.65 438.672C1263.22 441.894 1262.58 445.542 1264.22 446.818Z" fill="#F1EEFF"/>
<path d="M1266.89 447.042C1267.9 446.709 1269.03 446.006 1270.08 445.002C1269 440.825 1270.27 436.68 1271.03 434.756C1269.72 434.984 1268.16 435.928 1266.75 437.396C1265.36 441.647 1266.08 445.013 1266.89 447.042Z" fill="#F7F4FE"/>
<path d="M1272.07 435.448C1272.27 435.494 1272.46 435.576 1272.61 435.694C1273.76 436.589 1273.41 439.759 1271.06 442.877C1268.71 445.994 1265.79 447.169 1264.63 446.274C1264.06 445.826 1263.85 444.85 1264.07 443.595C1264.32 442.163 1265.07 440.563 1266.18 439.091C1268.22 436.383 1270.7 435.141 1272.07 435.448ZM1264.88 447.871C1266.93 448.33 1269.87 446.714 1272.13 443.709C1274.83 440.127 1275.4 436.124 1273.43 434.595C1271.47 433.066 1267.81 434.676 1265.11 438.258C1263.87 439.904 1263.03 441.717 1262.74 443.364C1262.42 445.169 1262.8 446.592 1263.81 447.371C1264.12 447.618 1264.48 447.783 1264.88 447.871Z" fill="#371A45"/>
<path d="M1288.13 444.66C1288.13 444.66 1288 446.899 1290.37 450.019C1292.93 453.387 1294.72 452.704 1295.65 453.731C1296.59 454.759 1298.63 457.45 1301.15 457.525C1304.56 457.628 1307.32 454.057 1305.82 450.333C1304.32 446.61 1301.16 447.066 1300.63 446.33C1292.53 434.979 1284.62 441.266 1284.62 441.266L1288.13 444.66Z" fill="white"/>
<path d="M1291.78 441.101C1294.5 441.71 1297.11 443.74 1299.54 447.145C1299.96 447.743 1300.62 447.933 1301.3 448.134C1302.4 448.455 1303.76 448.854 1304.57 450.864C1305.09 452.147 1304.97 453.495 1304.24 454.563C1303.54 455.591 1302.4 456.183 1301.2 456.147C1299.55 456.1 1297.91 454.22 1297.03 453.21C1296.89 453.053 1296.77 452.91 1296.66 452.79C1296.11 452.183 1295.43 451.944 1294.83 451.735C1293.92 451.412 1292.88 451.047 1291.45 449.17C1289.48 446.566 1289.49 444.722 1289.49 444.704C1289.52 444.301 1289.36 443.934 1289.08 443.657L1286.9 441.556C1287.92 441.128 1289.42 440.735 1291.17 440.988C1291.37 441.018 1291.58 441.056 1291.78 441.101ZM1300.13 458.779C1300.44 458.849 1300.77 458.892 1301.1 458.902C1303.22 458.966 1305.23 457.927 1306.46 456.124C1307.73 454.269 1307.96 451.965 1307.08 449.801C1305.78 446.57 1303.37 445.864 1302.07 445.485C1301.92 445.441 1301.73 445.386 1301.61 445.343C1298.57 441.145 1295.17 438.759 1291.51 438.251C1287.06 437.634 1283.93 440.078 1283.8 440.182C1283.48 440.431 1283.29 440.803 1283.27 441.205C1283.25 441.605 1283.4 441.994 1283.69 442.268L1286.82 445.29C1286.93 446.321 1287.41 448.365 1289.31 450.866C1291.22 453.387 1292.85 453.96 1293.93 454.34C1294.27 454.46 1294.57 454.564 1294.66 454.67C1294.76 454.778 1294.87 454.906 1295 455.048C1296.01 456.21 1297.79 458.255 1300.13 458.779Z" fill="#371A45"/>
<path d="M1317.34 477.406C1315.08 480.406 1314.97 479.1 1314.21 480.476C1312.41 483.722 1314.23 485.792 1315.7 486.413C1318.72 487.693 1322.37 485.576 1324.43 482.849C1326.35 480.308 1327.48 476.068 1325.47 473.446C1324.5 472.173 1322.05 470.933 1319.44 473.541C1318.33 474.646 1319.6 474.406 1317.34 477.406Z" fill="#F1EEFF"/>
<path d="M1315.72 486.412C1318.74 487.693 1322.39 485.575 1324.45 482.848C1324.53 482.74 1324.61 482.631 1324.69 482.513C1323.51 482.416 1321.93 481.92 1322.34 479.916C1322.65 478.351 1320.6 477.077 1318.22 476.149C1318.02 476.491 1317.74 476.906 1317.36 477.408C1315.09 480.406 1314.99 479.1 1314.23 480.478C1312.43 483.722 1314.25 485.79 1315.72 486.412Z" fill="#E0E0E0"/>
<path d="M1315.72 486.412C1318.74 487.693 1322.39 485.575 1324.45 482.848C1324.53 482.74 1324.61 482.631 1324.69 482.513C1323.51 482.416 1321.93 481.92 1322.34 479.916C1322.65 478.351 1320.6 477.077 1318.22 476.149C1318.02 476.491 1317.74 476.906 1317.36 477.408C1315.09 480.406 1314.99 479.1 1314.23 480.478C1312.43 483.722 1314.25 485.79 1315.72 486.412Z" fill="#8976FF"/>
<path d="M1323.14 473.097C1323.83 473.251 1324.37 473.685 1324.68 474.082C1326.28 476.182 1325.41 479.87 1323.64 482.222C1321.81 484.641 1318.64 486.53 1316.1 485.456C1315.57 485.229 1314.9 484.69 1314.62 483.861C1314.34 483.031 1314.5 482.059 1315.1 480.975C1315.27 480.675 1315.29 480.666 1315.49 480.565C1316.1 480.256 1316.81 479.806 1318.15 478.028C1319.49 476.249 1319.73 475.437 1319.86 474.757C1319.91 474.533 1319.91 474.515 1320.15 474.274C1321.03 473.403 1321.91 472.989 1322.77 473.044C1322.9 473.051 1323.02 473.07 1323.14 473.097ZM1316.29 487.679C1319.54 488.407 1323.15 486.242 1325.24 483.471C1327.46 480.535 1328.58 475.799 1326.28 472.804C1325.47 471.745 1324.22 471.064 1322.91 470.981C1321.91 470.917 1320.37 471.181 1318.74 472.804C1318.09 473.445 1317.97 473.875 1317.87 474.371C1317.8 474.716 1317.7 475.238 1316.54 476.78C1315.38 478.32 1314.91 478.557 1314.6 478.714C1314.15 478.939 1313.78 479.174 1313.33 479.972C1312.22 481.992 1312.37 483.572 1312.69 484.541C1313.11 485.793 1314.09 486.848 1315.31 487.365C1315.63 487.501 1315.96 487.605 1316.29 487.679Z" fill="#371A45"/>
<path d="M1288.65 463.589L1301.83 474.815C1301.83 474.815 1313.93 483.208 1314.47 483.622C1316.26 485.017 1319.52 483.754 1321.74 480.804C1321.76 480.778 1321.79 480.747 1321.8 480.719C1323.97 477.792 1324.29 474.324 1322.52 472.944C1321.98 472.528 1310.83 462.879 1310.83 462.879L1296.7 452.911C1296.7 452.911 1291.17 454.318 1289.64 455.377C1289.5 455.471 1289.4 455.564 1289.33 455.652C1288.52 456.727 1288.65 463.589 1288.65 463.589Z" fill="#8976FF"/>
<path d="M1321.61 477.176C1321.88 475.737 1321.59 474.461 1320.71 473.776C1320.46 473.583 1317.58 471.103 1314.96 468.834C1314.82 469.515 1314.61 470.205 1314.32 470.891C1316.89 473.111 1319.89 475.702 1321.61 477.176Z" fill="#F1EEFF"/>
<path d="M1292.22 463.961L1303.53 473.596C1303.53 473.596 1313.91 480.799 1314.37 481.154C1315.91 482.351 1318.7 481.267 1320.61 478.736C1320.63 478.712 1320.65 478.687 1320.66 478.662L1293.06 456.914C1292.95 456.994 1292.86 457.074 1292.8 457.149C1292.1 458.072 1292.22 463.961 1292.22 463.961Z" fill="#6630EA"/>
<path d="M1290.11 456.302L1290.11 456.301L1290.11 456.302ZM1310.2 463.703C1311.51 464.836 1321.36 473.353 1321.89 473.769C1322.67 474.377 1322.68 475.552 1322.62 476.199C1322.5 477.475 1321.88 478.926 1320.93 480.182C1319.12 482.588 1316.39 483.813 1315.08 482.801C1314.55 482.385 1303.87 474.974 1302.45 473.989L1289.66 463.096C1289.63 460.227 1289.8 456.957 1290.13 456.28C1290.69 455.779 1293.75 454.75 1296.49 454.029L1310.2 463.703ZM1315.29 485.127C1317.53 485.628 1320.44 484.227 1322.54 481.431C1323.73 479.853 1324.48 478.062 1324.64 476.388C1324.83 474.535 1324.29 473.02 1323.13 472.122C1322.74 471.815 1315.95 465.955 1311.49 462.092L1311.41 462.03L1296.9 451.796L1296.46 451.909C1293.88 452.566 1289.42 453.845 1288.52 455.029C1287.63 456.216 1287.58 460.919 1287.63 463.618L1287.64 464.086L1301.25 475.671C1306.1 479.031 1313.44 484.141 1313.84 484.447C1314.28 484.785 1314.77 485.009 1315.29 485.127Z" fill="#371A45"/>
<path d="M1286.45 453.425C1285.42 454.792 1282.67 462.814 1282.67 462.814C1282.67 462.814 1300.76 475.85 1302.59 476.726C1305.19 477.98 1309.02 476.893 1311.85 473.138C1314.68 469.383 1314.71 465.344 1312.84 463.123C1311.53 461.567 1294.39 447.262 1294.39 447.262C1294.39 447.262 1287.48 452.06 1286.45 453.425Z" fill="#AAAAAA"/>
<path d="M1282.67 462.814C1282.67 462.814 1300.76 475.854 1302.58 476.729C1305.19 477.984 1309.02 476.895 1311.85 473.142C1312.15 472.756 1312.41 472.365 1312.64 471.976C1314.67 468.573 1314.52 465.121 1312.84 463.126C1311.53 461.57 1294.39 447.264 1294.39 447.264C1294.39 447.264 1289.98 450.326 1287.68 452.251C1287.1 452.74 1286.66 453.153 1286.45 453.428C1285.42 454.794 1282.67 462.814 1282.67 462.814Z" fill="#8976FF"/>
<path d="M1312.24 467.644C1312.29 466.299 1311.91 465.107 1311.18 464.247C1310.43 463.357 1303.41 457.415 1299.16 453.845C1299.04 454.775 1298.8 455.74 1298.45 456.708L1312.24 467.644Z" fill="#F1EEFF"/>
<path d="M1286.52 463.013C1286.52 463.013 1301.25 473.631 1302.74 474.344C1304.86 475.366 1307.98 474.479 1310.29 471.423C1310.53 471.107 1310.74 470.79 1310.93 470.472L1290.61 454.411C1290.14 454.808 1289.77 455.144 1289.6 455.368C1288.77 456.481 1286.52 463.013 1286.52 463.013Z" fill="#6630EA"/>
<path d="M1294.32 448.554C1301.18 454.287 1311.16 462.739 1312.06 463.801C1313.47 465.474 1313.75 468.915 1311.04 472.515C1308.32 476.114 1304.98 476.737 1303.02 475.792C1301.77 475.195 1291.12 467.633 1283.87 462.416C1284.94 459.343 1286.62 454.88 1287.24 454.05C1287.87 453.221 1291.68 450.411 1294.32 448.554ZM1303.43 478.11C1306.48 478.794 1310.1 477.144 1312.65 473.763C1315.56 469.893 1315.96 465.239 1313.6 462.448C1312.27 460.868 1296.79 447.932 1295.03 446.462L1294.44 445.972L1293.81 446.41C1292.63 447.228 1286.71 451.376 1285.64 452.801L1285.64 452.802C1284.56 454.229 1282.16 461.114 1281.69 462.481L1281.44 463.213L1282.06 463.659C1283.92 464.998 1300.28 476.773 1302.13 477.662C1302.55 477.862 1302.98 478.01 1303.43 478.11Z" fill="#371A45"/>
<path d="M1310.89 474.516C1311.02 474.544 1311.15 474.497 1311.24 474.384C1311.35 474.231 1311.32 474.015 1311.17 473.902L1285.81 454.725C1285.66 454.613 1285.45 454.644 1285.34 454.796C1285.23 454.95 1285.26 455.166 1285.41 455.279L1310.76 474.456C1310.8 474.486 1310.85 474.506 1310.89 474.516Z" fill="#371A45"/>
<path d="M1307.85 473.71C1307.8 473.911 1307.92 474.109 1308.12 474.153C1308.32 474.197 1308.51 474.07 1308.56 473.87C1308.6 473.669 1308.48 473.471 1308.28 473.427C1308.09 473.383 1307.89 473.509 1307.85 473.71Z" fill="#371A45"/>
<path d="M1305.58 472.034C1305.53 472.235 1305.66 472.434 1305.85 472.478C1306.05 472.522 1306.25 472.395 1306.29 472.194C1306.34 471.994 1306.21 471.795 1306.02 471.751C1305.82 471.707 1305.62 471.834 1305.58 472.034Z" fill="#371A45"/>
<path d="M1303.32 470.351C1303.28 470.552 1303.4 470.751 1303.6 470.795C1303.8 470.839 1303.99 470.711 1304.04 470.511C1304.08 470.311 1303.96 470.112 1303.76 470.068C1303.56 470.023 1303.37 470.151 1303.32 470.351Z" fill="#371A45"/>
<path d="M1301.08 468.669C1301.03 468.87 1301.15 469.068 1301.35 469.112C1301.55 469.156 1301.74 469.029 1301.79 468.829C1301.83 468.629 1301.71 468.43 1301.51 468.386C1301.32 468.341 1301.12 468.469 1301.08 468.669Z" fill="#371A45"/>
<path d="M1298.84 466.987C1298.8 467.188 1298.92 467.386 1299.12 467.43C1299.31 467.474 1299.51 467.347 1299.55 467.147C1299.6 466.946 1299.48 466.748 1299.28 466.703C1299.08 466.659 1298.89 466.786 1298.84 466.987Z" fill="#371A45"/>
<path d="M1296.58 465.302C1296.54 465.503 1296.66 465.701 1296.86 465.745C1297.06 465.789 1297.25 465.663 1297.3 465.462C1297.34 465.261 1297.22 465.063 1297.02 465.019C1296.83 464.975 1296.63 465.102 1296.58 465.302Z" fill="#371A45"/>
<path d="M1294.33 463.627C1294.28 463.827 1294.41 464.026 1294.6 464.07C1294.8 464.115 1295 463.987 1295.04 463.787C1295.09 463.586 1294.96 463.387 1294.77 463.343C1294.57 463.299 1294.37 463.427 1294.33 463.627Z" fill="#371A45"/>
<path d="M1290.97 445.391L1279.99 459.961C1281.16 464.121 1284.7 465.12 1286.04 465.349C1286.06 465.356 1286.09 465.361 1286.12 465.362C1286.17 465.374 1286.23 465.38 1286.27 465.387C1286.45 465.412 1286.56 465.418 1286.56 465.418C1289.27 465.639 1292.75 463.72 1295.32 460.311C1297.88 456.903 1298.8 452.991 1297.88 450.394C1297.88 450.394 1297.83 450.231 1297.71 449.965C1297.17 448.762 1295.3 445.449 1290.97 445.391Z" fill="#E0E0E0"/>
<path d="M1279.99 459.961C1281.16 464.121 1284.7 465.12 1286.04 465.349C1286.06 465.354 1286.09 465.36 1286.11 465.362C1286.17 465.375 1286.22 465.38 1286.27 465.387C1286.45 465.413 1286.56 465.418 1286.56 465.418C1289.26 465.639 1292.75 463.72 1295.32 460.31C1295.53 460.028 1295.73 459.742 1295.92 459.455C1298.02 456.266 1298.72 452.775 1297.88 450.392C1297.88 450.392 1297.82 450.228 1297.71 449.964C1297.17 448.76 1295.3 445.447 1290.97 445.388L1284.85 453.512L1279.99 459.961Z" fill="#F1EEFF"/>
<path d="M1279.99 459.964C1281.16 464.124 1284.7 465.123 1286.04 465.352C1286.07 465.357 1286.09 465.363 1286.12 465.365C1286.18 465.378 1286.23 465.383 1286.28 465.39C1286.46 465.416 1286.56 465.421 1286.56 465.421C1289.27 465.643 1292.75 463.723 1295.32 460.313C1295.53 460.032 1295.74 459.745 1295.92 459.458C1294.72 459.367 1293.39 458.803 1293.51 456.71C1293.61 455.113 1288.68 454.045 1284.85 453.515L1279.99 459.964Z" fill="#8976FF"/>
<path d="M1286.23 464.335L1286.21 464.331C1285.02 464.127 1282.24 463.317 1281.11 460.154L1291.43 446.454C1294.77 446.73 1296.27 449.279 1296.77 450.402C1296.85 450.596 1296.9 450.718 1296.9 450.739C1297.74 453.09 1296.77 456.679 1294.5 459.688C1292.23 462.698 1289.07 464.588 1286.63 464.389C1286.6 464.386 1286.53 464.381 1286.41 464.364L1286.23 464.335ZM1285.46 466.291C1285.59 466.321 1285.71 466.344 1285.81 466.361C1285.85 466.371 1285.9 466.381 1285.95 466.385C1286 466.395 1286.04 466.402 1286.09 466.407C1286.35 466.444 1286.48 466.451 1286.48 466.451C1289.6 466.706 1293.39 464.541 1296.11 460.937C1298.83 457.333 1299.89 453.056 1298.82 450.043C1298.82 450.028 1298.75 449.833 1298.62 449.534C1298.09 448.342 1295.96 444.432 1290.98 444.364L1290.47 444.357L1278.86 459.754L1279 460.255C1280.24 464.651 1283.87 465.935 1285.46 466.291Z" fill="#371A45"/>
<path d="M1282.72 450.544C1279.35 455.01 1278.83 460.338 1281.54 462.446C1284.26 464.555 1289.19 462.645 1292.56 458.18C1295.92 453.715 1296.45 448.387 1293.73 446.277C1291.01 444.169 1286.08 446.079 1282.72 450.544Z" fill="#F1EEFF"/>
<path d="M1291.92 446.547C1292.37 446.648 1292.77 446.831 1293.12 447.105C1295.35 448.836 1294.73 453.622 1291.77 457.557C1288.8 461.491 1284.41 463.353 1282.18 461.623C1279.95 459.892 1280.57 455.106 1283.54 451.171C1286.04 447.859 1289.54 446.015 1291.92 446.547ZM1282.95 464.208C1286.13 464.92 1290.31 462.865 1293.38 458.805C1297.14 453.812 1297.58 447.95 1294.37 445.459C1291.16 442.968 1285.69 444.929 1281.93 449.923C1278.17 454.916 1277.73 460.778 1280.94 463.269C1281.54 463.734 1282.22 464.044 1282.95 464.208Z" fill="#371A45"/>
<path d="M1284.32 451.771C1281.89 454.996 1281.25 458.645 1282.89 459.92C1284.53 461.195 1287.84 459.615 1290.27 456.39C1292.7 453.165 1293.34 449.517 1291.69 448.241C1290.05 446.966 1286.75 448.547 1284.32 451.771Z" fill="#57DBFF"/>
<path d="M1282.89 459.92C1283.56 460.437 1284.49 460.484 1285.54 460.145C1286.55 459.812 1287.68 459.109 1288.73 458.105C1289.27 457.607 1289.78 457.029 1290.27 456.392C1292.7 453.166 1293.34 449.517 1291.69 448.241C1291.17 447.833 1290.47 447.72 1289.69 447.859C1288.37 448.088 1286.81 449.031 1285.4 450.5C1285.03 450.889 1284.66 451.314 1284.32 451.773C1281.88 454.995 1281.25 458.644 1282.89 459.92Z" fill="#F1EEFF"/>
<path d="M1285.55 460.148C1286.56 459.815 1287.69 459.112 1288.74 458.108C1287.66 453.932 1288.93 449.786 1289.7 447.862C1288.38 448.091 1286.82 449.034 1285.41 450.502C1284.02 454.753 1284.74 458.119 1285.55 460.148Z" fill="#F7F4FE"/>
<path d="M1290.74 448.546C1290.95 448.592 1291.13 448.674 1291.28 448.792C1292.43 449.687 1292.08 452.857 1289.73 455.975C1288.62 457.448 1287.3 458.6 1286 459.22C1284.87 459.764 1283.88 459.818 1283.31 459.372C1282.73 458.924 1282.53 457.948 1282.74 456.693C1283 455.261 1283.74 453.662 1284.85 452.189C1286.9 449.481 1289.37 448.239 1290.74 448.546ZM1283.56 460.977C1284.43 461.17 1285.46 461 1286.57 460.466C1288.06 459.753 1289.56 458.454 1290.81 456.807C1293.51 453.225 1294.08 449.222 1292.11 447.693C1290.14 446.166 1286.48 447.774 1283.78 451.356C1282.54 453.002 1281.7 454.816 1281.41 456.462C1281.09 458.267 1281.47 459.69 1282.48 460.47C1282.8 460.718 1283.16 460.887 1283.56 460.977Z" fill="#371A45"/>
</g>
<defs>
<filter id="filter0_d_10741_277723" x="55.9016" y="40.3783" width="2094.88" height="580.079" filterUnits="userSpaceOnUse" color-interpolation-filters="sRGB">
<feFlood flood-opacity="0" result="BackgroundImageFix"/>
<feColorMatrix in="SourceAlpha" type="matrix" values="0 0 0 0 0 0 0 0 0 0 0 0 0 0 0 0 0 0 127 0" result="hardAlpha"/>
<feOffset dx="9.1161" dy="5.60991"/>
<feGaussianBlur stdDeviation="10.8692"/>
<feComposite in2="hardAlpha" operator="out"/>
<feColorMatrix type="matrix" values="0 0 0 0 0.379167 0 0 0 0 0.254547 0 0 0 0 0.0126389 0 0 0 0.1 0"/>
<feBlend mode="normal" in2="BackgroundImageFix" result="effect1_dropShadow_10741_277723"/>
<feBlend mode="normal" in="SourceGraphic" in2="effect1_dropShadow_10741_277723" result="shape"/>
</filter>
<filter id="filter1_d_10741_277723" x="-1629.75" y="54.9775" width="1667.44" height="901.121" filterUnits="userSpaceOnUse" color-interpolation-filters="sRGB">
<feFlood flood-opacity="0" result="BackgroundImageFix"/>
<feColorMatrix in="SourceAlpha" type="matrix" values="0 0 0 0 0 0 0 0 0 0 0 0 0 0 0 0 0 0 127 0" result="hardAlpha"/>
<feOffset dx="9.1161" dy="5.60991"/>
<feGaussianBlur stdDeviation="10.8692"/>
<feComposite in2="hardAlpha" operator="out"/>
<feColorMatrix type="matrix" values="0 0 0 0 0.379167 0 0 0 0 0.254547 0 0 0 0 0.0126389 0 0 0 0.1 0"/>
<feBlend mode="normal" in2="BackgroundImageFix" result="effect1_dropShadow_10741_277723"/>
<feBlend mode="normal" in="SourceGraphic" in2="effect1_dropShadow_10741_277723" result="shape"/>
</filter>
<filter id="filter2_d_10741_277723" x="-1581.3" y="89.5439" width="1595.74" height="769.003" filterUnits="userSpaceOnUse" color-interpolation-filters="sRGB">
<feFlood flood-opacity="0" result="BackgroundImageFix"/>
<feColorMatrix in="SourceAlpha" type="matrix" values="0 0 0 0 0 0 0 0 0 0 0 0 0 0 0 0 0 0 127 0" result="hardAlpha"/>
<feOffset dx="9.1161" dy="5.60991"/>
<feGaussianBlur stdDeviation="10.8692"/>
<feComposite in2="hardAlpha" operator="out"/>
<feColorMatrix type="matrix" values="0 0 0 0 0.379167 0 0 0 0 0.254547 0 0 0 0 0.0126389 0 0 0 0.1 0"/>
<feBlend mode="normal" in2="BackgroundImageFix" result="effect1_dropShadow_10741_277723"/>
<feBlend mode="normal" in="SourceGraphic" in2="effect1_dropShadow_10741_277723" result="shape"/>
</filter>
<filter id="filter3_d_10741_277723" x="-138.472" y="-6.08308" width="1703.64" height="429.809" filterUnits="userSpaceOnUse" color-interpolation-filters="sRGB">
<feFlood flood-opacity="0" result="BackgroundImageFix"/>
<feColorMatrix in="SourceAlpha" type="matrix" values="0 0 0 0 0 0 0 0 0 0 0 0 0 0 0 0 0 0 127 0" result="hardAlpha"/>
<feOffset dx="9.1161" dy="5.60991"/>
<feGaussianBlur stdDeviation="10.8692"/>
<feComposite in2="hardAlpha" operator="out"/>
<feColorMatrix type="matrix" values="0 0 0 0 0.379167 0 0 0 0 0.254547 0 0 0 0 0.0126389 0 0 0 0.1 0"/>
<feBlend mode="normal" in2="BackgroundImageFix" result="effect1_dropShadow_10741_277723"/>
<feBlend mode="normal" in="SourceGraphic" in2="effect1_dropShadow_10741_277723" result="shape"/>
</filter>
<linearGradient id="paint0_linear_10741_277723" x1="1122.42" y1="786.204" x2="-137.811" y2="142.409" gradientUnits="userSpaceOnUse">
<stop stop-color="#F9D543"/>
<stop offset="0.593456" stop-color="#463921"/>
<stop offset="0.971875" stop-color="#212123"/>
</linearGradient>
<linearGradient id="paint1_linear_10741_277723" x1="-679.658" y1="706.566" x2="235.239" y2="-55.2476" gradientUnits="userSpaceOnUse">
<stop stop-color="#F9D543"/>
<stop offset="0.593456" stop-color="#463921"/>
<stop offset="0.971875" stop-color="#212123"/>
</linearGradient>
<linearGradient id="paint2_linear_10741_277723" x1="-1058.08" y1="978.356" x2="-514.629" y2="190.759" gradientUnits="userSpaceOnUse">
<stop stop-color="#FAD543"/>
<stop offset="1" stop-color="#FFE600"/>
</linearGradient>
<linearGradient id="paint3_linear_10741_277723" x1="1100.59" y1="661.527" x2="414.078" y2="-9.68669" gradientUnits="userSpaceOnUse">
<stop stop-color="#FAD543"/>
<stop offset="1" stop-color="#FFE600"/>
</linearGradient>
<linearGradient id="paint4_linear_10741_277723" x1="1512.58" y1="569.944" x2="1269.65" y2="623.4" gradientUnits="userSpaceOnUse">
<stop stop-color="#DE5EC3"/>
<stop offset="1" stop-color="#7D10B0"/>
</linearGradient>
<linearGradient id="paint5_linear_10741_277723" x1="1359.89" y1="484.421" x2="1397.68" y2="626.399" gradientUnits="userSpaceOnUse">
<stop stop-color="#5D1293"/>
<stop offset="1" stop-color="#9F3AAF"/>
</linearGradient>
<clipPath id="clip0_10741_277723">
<rect width="1440" height="785" fill="white"/>
</clipPath>
</defs>
</svg>
