<svg width="1440" height="560" viewBox="0 0 1440 560" fill="none" xmlns="http://www.w3.org/2000/svg">
    <g clip-path="url(#clip0_5616_137710)">
        <mask id="mask0_5616_137710" style="mask-type:alpha" maskUnits="userSpaceOnUse" x="-517" y="-399" width="2684"
              height="1192">
            <path d="M1930.07 689.937C2264.14 1080.71 2145.89 228.556 2145.89 228.556L2019.25 -268.016L-516.367 -398.299L-279.745 374.338C-279.745 374.338 -29.4723 -111.898 348.138 228.554C725.747 569.006 810.206 111.412 1160.12 430.304C1510.04 749.196 1596 299.168 1930.07 689.937Z"
                  fill="white"/>
        </mask>
        <g mask="url(#mask0_5616_137710)">
            <rect width="2628.01" height="3946.24" transform="matrix(1 0 0 -1 -265.385 2844.16)" fill="white"/>
            <path d="M1789.69 205.277C2185.29 397.656 2016.39 533.551 2016.39 533.551L1504.36 1390.94L66.3934 694.039C66.3934 694.039 -126.321 140.519 260.719 365.978C647.758 591.437 640.675 171.066 1024.45 302.631C1408.23 434.196 1394.09 12.8969 1789.69 205.277Z"
                  fill="url(#paint0_linear_5616_137710)"/>
            <path d="M1243.44 379.619C1242.83 379.742 1242.54 381.083 1242.61 382.982C1242.64 383.941 1242.04 384.824 1241.13 385.161C1239.31 385.829 1238.16 386.608 1238.28 387.208C1238.4 387.809 1239.76 388.079 1241.68 387.989C1242.66 387.943 1243.55 388.523 1243.88 389.423C1244.53 391.206 1245.31 392.332 1245.92 392.209C1246.54 392.084 1246.83 390.742 1246.76 388.842C1246.72 387.882 1247.32 386.998 1248.24 386.66C1250.06 385.992 1251.21 385.214 1251.09 384.613C1250.97 384.012 1249.61 383.742 1247.68 383.833C1246.71 383.879 1245.82 383.297 1245.49 382.396C1244.83 380.617 1244.06 379.494 1243.44 379.619Z"
                  fill="white"/>
            <path d="M1407.99 334.42C1407.3 334.41 1406.66 335.797 1406.27 337.875C1406.07 338.925 1405.21 339.741 1404.14 339.891C1402.02 340.187 1400.59 340.761 1400.57 341.442C1400.55 342.122 1401.95 342.735 1404.06 343.091C1405.12 343.271 1405.94 344.112 1406.08 345.166C1406.35 347.255 1406.92 348.662 1407.61 348.671C1408.3 348.681 1408.94 347.293 1409.32 345.215C1409.52 344.164 1410.38 343.345 1411.46 343.195C1413.58 342.899 1415.01 342.326 1415.03 341.646C1415.05 340.965 1413.65 340.351 1411.54 339.996C1410.48 339.815 1409.66 338.974 1409.52 337.918C1409.25 335.832 1408.68 334.43 1407.99 334.42Z"
                  fill="white"/>
            <path d="M1352.55 339.158C1351.52 339.143 1350.66 339.953 1350.64 340.966C1350.61 341.979 1351.42 342.812 1352.45 342.826C1353.48 342.841 1354.33 342.031 1354.36 341.018C1354.38 340.005 1353.57 339.172 1352.55 339.158Z"
                  fill="white"/>
            <path d="M1222.54 352.309C1221.7 352.775 1221.39 353.82 1221.86 354.643C1222.32 355.465 1223.38 355.755 1224.22 355.288C1225.06 354.821 1225.36 353.776 1224.9 352.954C1224.44 352.131 1223.38 351.842 1222.54 352.309Z"
                  fill="white"/>
            <path d="M1180.94 335.875C1179.88 336.468 1179.49 337.795 1180.08 338.839C1180.67 339.884 1182.01 340.251 1183.08 339.658C1184.14 339.066 1184.53 337.739 1183.94 336.693C1183.35 335.648 1182.01 335.282 1180.94 335.875Z"
                  fill="white"/>
            <path d="M1418.64 387.507C1417.61 387.492 1416.76 388.301 1416.73 389.314C1416.7 390.327 1417.51 391.16 1418.54 391.175C1419.57 391.189 1420.42 390.38 1420.45 389.367C1420.48 388.354 1419.67 387.521 1418.64 387.507Z"
                  fill="white"/>
            <path d="M1306.34 357.473C1305.81 357.466 1305.37 357.882 1305.36 358.403C1305.35 358.924 1305.76 359.353 1306.29 359.36C1306.82 359.368 1307.26 358.951 1307.27 358.43C1307.29 357.909 1306.87 357.481 1306.34 357.473Z"
                  fill="white"/>
            <path d="M1147.44 367.099C1146.89 367.403 1146.69 368.086 1146.99 368.623C1147.3 369.16 1147.99 369.349 1148.54 369.044C1149.08 368.74 1149.28 368.057 1148.98 367.519C1148.68 366.982 1147.99 366.794 1147.44 367.099Z"
                  fill="white"/>
            <path d="M1416.24 552.037C1415.51 552.027 1414.91 552.597 1414.89 553.311C1414.87 554.025 1415.44 554.613 1416.17 554.623C1416.89 554.633 1417.49 554.062 1417.51 553.348C1417.53 552.634 1416.96 552.048 1416.24 552.037Z"
                  fill="white"/>
            <path d="M1301.75 549.518C1300.55 549.621 1299.65 550.665 1299.74 551.848C1299.83 553.03 1300.88 553.904 1302.08 553.8C1303.28 553.696 1304.18 552.653 1304.09 551.47C1304 550.288 1302.95 549.414 1301.75 549.518Z"
                  fill="white"/>
            <path d="M1934.23 403.283C2314.34 681.113 2110.61 792.142 2110.61 792.142L1408.32 1597.88L26.2132 590.503C26.2132 590.503 -71.5494 -29.1414 293.253 281.903C658.056 592.947 730.504 148.833 1109.72 360.361C1488.94 571.888 1554.12 125.454 1934.23 403.283Z"
                  fill="url(#paint1_linear_5616_137710)"/>
            <path d="M498.918 199.479C498.918 199.912 498.157 200.289 497.022 200.497C496.449 200.602 495.998 201.128 495.908 201.797C495.729 203.122 495.406 204.009 495.035 204.009C494.664 204.009 494.341 203.122 494.163 201.797C494.073 201.128 493.621 200.602 493.048 200.497C491.912 200.289 491.15 199.912 491.15 199.479C491.15 199.044 491.911 198.666 493.047 198.46C493.621 198.356 494.073 197.829 494.163 197.16C494.341 195.833 494.664 194.946 495.035 194.946C495.406 194.946 495.729 195.833 495.908 197.16C495.998 197.829 496.449 198.356 497.024 198.46C498.158 198.666 498.918 199.044 498.918 199.479Z"
                  fill="#212123"/>
            <path d="M656.851 134.454C656.769 134.886 655.939 135.066 654.766 134.982C654.174 134.939 653.624 135.348 653.408 135.993C652.979 137.269 652.489 138.072 652.118 137.976C651.749 137.88 651.593 136.911 651.666 135.544C651.703 134.853 651.352 134.211 650.799 133.958C649.704 133.458 649.015 132.886 649.097 132.454C649.179 132.019 650.01 131.838 651.183 131.925C651.776 131.968 652.327 131.559 652.543 130.914C652.972 129.635 653.463 128.833 653.833 128.929C654.203 129.025 654.358 129.993 654.285 131.363C654.248 132.054 654.6 132.697 655.153 132.949C656.247 133.447 656.934 134.019 656.851 134.454Z"
                  fill="#212123"/>
            <path d="M632.261 27.2956C632.261 27.728 631.247 28.1053 629.733 28.3133C628.969 28.4182 628.367 28.9447 628.247 29.6135C628.009 30.9377 627.578 31.8252 627.084 31.8252C626.589 31.8252 626.159 30.9377 625.921 29.6135C625.801 28.9447 625.199 28.4182 624.435 28.3133C622.919 28.1053 621.904 27.728 621.904 27.2956C621.904 26.8607 622.919 26.4827 624.433 26.2767C625.198 26.1724 625.801 25.6452 625.921 24.9752C626.159 23.6497 626.59 22.7628 627.084 22.7628C627.578 22.7628 628.009 23.6497 628.247 24.9758C628.367 25.6452 628.97 26.1724 629.735 26.2767C631.248 26.4827 632.261 26.8607 632.261 27.2956Z"
                  fill="#212123"/>
            <path d="M645.204 59.012C645.204 59.727 644.625 60.3066 643.91 60.3066C643.195 60.3066 642.615 59.727 642.615 59.012C642.615 58.297 643.195 57.7174 643.91 57.7174C644.625 57.7174 645.204 58.297 645.204 59.012Z"
                  fill="#212123"/>
            <path d="M637.263 154.177C636.9 154.793 636.107 155 635.491 154.638C634.874 154.277 634.668 153.484 635.029 152.867C635.39 152.25 636.183 152.044 636.8 152.405C637.417 152.767 637.624 153.56 637.263 154.177Z"
                  fill="#212123"/>
            <path d="M655.298 178.452C654.755 179.377 653.566 179.688 652.64 179.145C651.715 178.603 651.405 177.413 651.948 176.488C652.49 175.563 653.68 175.253 654.604 175.795C655.529 176.338 655.84 177.527 655.298 178.452Z"
                  fill="#212123"/>
            <path d="M474.314 53.8323C474.314 54.5475 473.445 55.127 472.372 55.127C471.3 55.127 470.43 54.5475 470.43 53.8323C470.43 53.1172 471.3 52.5377 472.372 52.5377C473.445 52.5377 474.314 53.1172 474.314 53.8323Z"
                  fill="#212123"/>
            <path d="M598.6 33.1237C598.6 33.8389 598.02 34.418 597.306 34.418C596.59 34.418 596.011 33.8389 596.011 33.1237C596.011 32.4085 596.59 31.8287 597.306 31.8287C598.02 31.8287 598.6 32.4085 598.6 33.1237Z"
                  fill="#212123"/>
            <path d="M487.26 18.2329C487.26 19.3056 486.391 20.1748 485.318 20.1748C484.246 20.1748 483.376 19.3056 483.376 18.2329C483.376 17.1602 484.246 16.2909 485.318 16.2909C486.391 16.2909 487.26 17.1602 487.26 18.2329Z"
                  fill="#212123"/>
            <path d="M474.315 174.231C474.315 174.947 473.735 175.526 473.02 175.526C472.305 175.526 471.726 174.947 471.726 174.231C471.726 173.517 472.305 172.937 473.02 172.937C473.735 172.937 474.315 173.517 474.315 174.231Z"
                  fill="#212123"/>
            <path d="M658.149 84.258C658.149 84.6154 657.859 84.9053 657.502 84.9053C657.144 84.9053 656.854 84.6154 656.854 84.258C656.854 83.9005 657.144 83.6107 657.502 83.6107C657.859 83.6107 658.149 83.9005 658.149 84.258Z"
                  fill="#212123"/>
            <path d="M628.283 201.098C628.102 201.406 627.705 201.51 627.397 201.329C627.089 201.148 626.985 200.751 627.166 200.443C627.347 200.135 627.743 200.032 628.052 200.212C628.36 200.393 628.464 200.789 628.283 201.098Z"
                  fill="#212123"/>
            <path d="M506.678 16.2879C506.678 17.0036 506.389 17.583 506.031 17.583C505.673 17.583 505.384 17.0036 505.384 16.2879C505.384 15.5731 505.673 14.9938 506.031 14.9938C506.389 14.9938 506.678 15.5731 506.678 16.2879Z"
                  fill="#212123"/>
            <path d="M462.665 66.1308C462.665 66.4886 462.375 66.7783 462.017 66.7783C461.66 66.7783 461.37 66.4886 461.37 66.1308C461.37 65.7734 461.66 65.4837 462.017 65.4837C462.375 65.4837 462.665 65.7734 462.665 66.1308Z"
                  fill="#212123"/>
            <path d="M496.321 136.043C496.321 136.401 496.032 136.69 495.674 136.69C495.317 136.69 495.027 136.401 495.027 136.043C495.027 135.686 495.317 135.396 495.674 135.396C496.032 135.396 496.321 135.686 496.321 136.043Z"
                  fill="#212123"/>
            <path d="M483.369 121.283C483.296 121.995 482.66 122.512 481.949 122.439C481.238 122.366 480.72 121.731 480.793 121.02C480.866 120.309 481.501 119.791 482.213 119.864C482.924 119.937 483.441 120.573 483.369 121.283Z"
                  fill="#212123"/>
            <path d="M559.833 188.105C614.582 192.989 674.226 231.988 674.226 309.642C674.226 387.307 571.748 497.759 459.051 394.254C346.354 290.748 535.166 415.988 591.333 317.872C647.501 219.757 505.085 183.22 559.833 188.105Z"
                  fill="#FECE8B"/>
            <path d="M533.628 169.036C611.292 169.036 674.24 231.994 674.24 309.648C674.24 387.313 611.292 450.26 533.628 450.26C455.974 450.26 393.015 387.313 393.015 309.648C393.015 231.994 455.974 169.036 533.628 169.036Z"
                  fill="#FECE8B"/>
            <path d="M425.959 251.304C407.306 277.307 399.18 348.137 453.777 357.423C508.384 366.689 554.744 277.055 533.107 235.847C511.47 194.64 459.968 203.916 425.959 251.304Z"
                  fill="#FDF09F"/>
            <path d="M561.512 328.593C571.81 293.564 614.16 312.117 587.566 348.682C574.269 366.97 555.377 349.434 561.512 328.593ZM523.124 376.718C544.75 388.033 516.131 403.132 499.422 394.221C483.974 385.988 501.488 365.38 523.124 376.718ZM533.614 169.036C611.278 169.036 674.226 231.994 674.226 309.648C674.226 387.313 611.278 450.26 533.614 450.26C510.346 450.26 488.403 444.603 469.077 434.6C447.812 406.3 465.549 393.67 502.484 410.379C530.467 423.03 566.523 411.301 584.578 384.908C599.676 362.827 612.539 330.924 636.474 330.924C673.06 330.924 659.075 234.209 606.532 232.143C554 230.077 559.149 217.712 535.447 197.114C511.755 176.506 514.849 213.601 480.849 204.319C471.175 201.691 465.019 195.959 461.141 189.136C482.3 176.379 507.104 169.036 533.614 169.036ZM614.468 265.995C598.373 257.042 607.009 248.131 617.127 252.708C627.235 257.286 625.455 272.119 614.468 265.995ZM441.698 214.459C449.942 197.972 459.213 206.226 455.091 216.525C450.969 226.824 436.072 225.711 441.698 214.459ZM408.291 373.475C414.913 383.424 421.09 385.226 421.09 369.163C421.09 341.35 393.277 312.499 400.493 289.835C405.144 275.181 424.428 236.021 426.091 219.036C405.451 243.522 393.002 275.128 393.002 309.648C393.002 332.63 398.522 354.319 408.291 373.475Z"
                  fill="url(#paint2_linear_5616_137710)"/>
            <path d="M496.699 222.543C519.533 218.916 530.286 243.335 510.712 247.458C491.139 251.581 475.728 225.873 496.699 222.543ZM439.088 317.011C424.658 338.646 418.633 309.053 423.39 289.093C431.814 253.682 453.508 295.376 439.088 317.011Z"
                  fill="#FFDB8C"/>
            <path d="M441.44 249.25C437.647 259.136 449.957 272.625 458.055 270.533C462.913 269.269 470.517 258.071 472.59 245.096C475.936 224.174 449.367 228.67 441.44 249.25Z"
                  fill="#FEBD81"/>
            <path d="M557.674 284.201C515.796 301.161 485.882 265.256 517.79 249.312C549.697 233.348 575.622 238.334 590.579 255.285C605.535 272.245 600.55 297.173 580.617 286.195C560.666 275.236 557.674 284.201 557.674 284.201Z"
                  fill="#FFA775"/>
            <path d="M535.825 242.267C530.063 243.861 524.042 246.175 517.79 249.296C492.369 262.002 506.179 287.375 534.02 288.595C539.1 272.086 540.176 255.462 535.825 242.267Z"
                  fill="#FFDB8C"/>
            <path d="M431.011 386.908C438.6 389.57 434.005 366.968 431.011 350.011C428.017 333.065 440.981 326.089 454.944 339.053C468.906 352.018 488.846 384.922 472.898 378.934C456.94 372.956 447.968 383.924 450.962 393.894C453.946 403.865 451.96 417.827 440.981 407.857C430.023 397.887 411.071 379.932 431.011 386.908Z"
                  fill="#FFA775"/>
            <path d="M430.687 347.544C436.666 352.319 444.26 355.8 453.76 357.415C459.257 358.348 464.654 358.267 469.92 357.354C465.376 350.493 459.799 343.571 454.943 339.057C441.692 326.758 429.343 332.426 430.687 347.544Z"
                  fill="#FFDB8C"/>
            <path d="M553.672 187.473C557.816 196.594 570.631 209.409 593.566 213.406C616.502 217.394 615.502 200.444 592.567 192.46C569.632 184.485 548.685 176.51 553.672 187.473Z"
                  fill="white" fill-opacity="0.51"/>
            <path d="M605.523 383.638C596.29 398.439 590.564 429.509 609.511 414.55C628.459 399.591 652.388 367.684 642.423 363.696C632.447 359.708 615.499 367.684 605.523 383.638Z"
                  fill="white" fill-opacity="0.51"/>
            <path d="M475.892 424.808C483.203 431.453 513.79 447.746 526.751 439.768C539.711 431.78 512.785 425.813 496.841 419.825C480.876 413.837 464.921 414.831 475.892 424.808Z"
                  fill="#FFA775"/>
            <path d="M544.702 382.912C542.75 393.134 549.685 397.871 554.668 387.895C559.651 377.929 548.688 361.973 544.702 382.912Z"
                  fill="#FFA775"/>
            <path d="M604.553 306.147C597.607 313.094 608.539 327.086 617.512 318.112C626.486 309.138 616.519 294.182 604.553 306.147Z"
                  fill="#FFA775"/>
            <path d="M636.442 292.194C637.526 300.159 645.422 314.135 645.422 299.183C645.422 284.22 633.456 270.263 636.442 292.194Z"
                  fill="#FFA775"/>
            <path d="M499.427 352.231C493.122 362.312 510.333 364.688 512.669 355.343C515.005 345.998 511.108 333.541 499.427 352.231Z"
                  fill="#FFA775"/>
            <path d="M522.03 212.797C526.559 222.373 546.951 229.935 539.168 214.35C531.375 198.774 515.023 197.998 522.03 212.797Z"
                  fill="#FFA775"/>
            <path d="M557.055 423.085C547.341 429.379 557.834 438.661 569.516 431.652C581.198 424.643 585.871 404.394 557.055 423.085Z"
                  fill="white" fill-opacity="0.51"/>
            <path d="M621.461 217.213C619.05 230.87 645.609 240.579 638.599 228.114C631.59 215.659 623.798 203.976 621.461 217.213Z"
                  fill="#FFA775"/>
            <path d="M487.747 187.1C482.97 193.153 498.65 198.003 505.662 187.878C512.674 177.754 499.428 172.298 487.747 187.1Z"
                  fill="#FFA775"/>
            <path d="M655.973 326.498C653.63 338.183 657.528 348.303 662.204 335.85C666.88 323.378 655.973 326.498 655.973 326.498Z"
                  fill="#FFA775"/>
            <path d="M530.578 361.582C528.645 367.99 537.583 373.254 539.922 363.91C542.26 354.556 532.907 353.777 530.578 361.582Z"
                  fill="#FFA775"/>
            <path d="M565.613 301.599C570.104 304.286 579.639 303.927 572.635 298.476C565.613 293.025 557.833 296.914 565.613 301.599Z"
                  fill="#FFA775"/>
            <path d="M572.635 368.571C567.302 377.72 574.194 395.054 579.651 378.705C585.097 362.335 578.092 359.227 572.635 368.571Z"
                  fill="#FFA775"/>
            <path d="M474.51 298.485C476.552 316.893 469.058 338.989 483.857 334.31C498.657 329.641 497.091 296.146 487.743 276.687C478.405 257.209 472.953 284.469 474.51 298.485Z"
                  fill="#FFDB8C"/>
            <path d="M502.542 311.731C500.838 320.271 504.099 328.861 508.768 316.4C513.447 303.929 505.665 296.147 502.542 311.731Z"
                  fill="#FFDB8C"/>
            <path d="M451.125 319.51C448.371 325.57 455.024 331.976 461.251 327.297C467.479 322.629 455.024 310.943 451.125 319.51Z"
                  fill="#FFDB8C"/>
            <path d="M588.379 359.487C587.855 362.652 592.099 366.24 594.427 360.011C596.766 353.771 589.942 350.132 588.379 359.487Z"
                  fill="#FFA775"/>
            <path d="M594.369 345.327C593.17 347.524 595.368 351.25 598.684 347.254C602.01 343.269 597.905 338.845 594.369 345.327Z"
                  fill="#FFA775"/>
            <path d="M597.845 245.235C600.338 245.44 602.86 241.929 597.873 240.491C592.886 239.071 590.486 244.6 597.845 245.235Z"
                  fill="#FFA775"/>
            <path d="M617.262 247.131C618.975 248.956 623.206 248.02 620.444 243.621C617.692 239.23 612.207 241.748 617.262 247.131Z"
                  fill="#FFA775"/>
            <path d="M569.246 289.719C570.959 291.548 575.183 290.614 572.431 286.227C569.679 281.82 564.195 284.341 569.246 289.719Z"
                  fill="#FFA775"/>
            <path d="M539.073 181.635C540.784 183.462 545.012 182.521 542.253 178.132C539.503 173.742 534.02 176.25 539.073 181.635Z"
                  fill="#FFA775"/>
            <path d="M556.096 208.505C557.811 210.329 562.035 209.399 559.28 205.011C556.524 200.604 551.041 203.122 556.096 208.505Z"
                  fill="#FFA775"/>
            <path d="M574.599 184.448C579.213 186.423 585.64 185.094 576.879 180.238C568.127 175.372 560.99 178.595 574.599 184.448Z"
                  fill="#FFA775"/>
            <path d="M593.132 430.877C597.228 427.981 599.45 421.811 590.732 426.739C582.014 431.656 581.035 439.426 593.132 430.877Z"
                  fill="#FFA775"/>
            <path d="M658.643 368.288C660.454 363.586 658.887 357.226 654.358 366.151C649.829 375.086 653.31 382.099 658.643 368.288Z"
                  fill="#FFA775"/>
            <path d="M407.909 344.405C406.945 339.447 400.573 335.554 401.024 345.75C401.486 355.946 410.729 359.007 407.909 344.405Z"
                  fill="#FFA775"/>
            <path d="M477.133 389.024C472.118 388.5 466.526 393.464 476.414 395.992C486.301 398.531 491.923 390.586 477.133 389.024Z"
                  fill="#FFA775"/>
            <path d="M616.542 278.25C619.033 278.47 621.552 274.949 616.571 273.518C611.581 272.087 609.176 277.621 616.542 278.25Z"
                  fill="#FFA775"/>
            <path d="M642.399 279.678C643.671 281.83 647.993 281.868 646.281 276.963C644.57 272.076 638.66 273.31 642.399 279.678Z"
                  fill="#FFA775"/>
            <path d="M547.831 312.821C540.254 312.821 535.143 299.597 542.682 301.06C550.201 302.533 556.54 312.821 547.831 312.821Z"
                  fill="#FEBD81"/>
            <path d="M459.519 397.775C454.541 396.139 454.057 386.348 458.686 388.95C463.304 391.542 465.237 399.667 459.519 397.775Z"
                  fill="#FEBD81"/>
            <path d="M484.61 373.471C479.643 371.829 479.157 362.038 483.779 364.632C488.401 367.237 490.337 375.356 484.61 373.471Z"
                  fill="#FEBD81"/>
            <path d="M476.5 228.807C471.534 227.161 471.044 217.385 475.668 219.975C480.292 222.574 482.216 230.694 476.5 228.807Z"
                  fill="white" fill-opacity="0.68"/>
            <path d="M515.474 305.582C510.498 303.939 510.012 294.152 514.638 296.747C519.255 299.342 521.189 307.467 515.474 305.582Z"
                  fill="white" fill-opacity="0.68"/>
            <path d="M497.267 283.928C493.635 282.721 493.281 275.571 496.654 277.469C500.027 279.366 501.446 285.299 497.267 283.928Z"
                  fill="white" fill-opacity="0.68"/>
            <path d="M522.799 298.823C519.171 297.624 518.813 290.474 522.189 292.38C525.566 294.276 526.968 300.207 522.799 298.823Z"
                  fill="white" fill-opacity="0.68"/>
            <path d="M492.974 303.98C489.345 302.767 488.996 295.628 492.367 297.527C495.738 299.416 497.149 305.352 492.974 303.98Z"
                  fill="#FEBD81"/>
            <path d="M526.842 239.421C523.221 238.23 522.867 231.089 526.237 232.979C529.617 234.878 531.023 240.809 526.842 239.421Z"
                  fill="white" fill-opacity="0.68"/>
            <path d="M426.521 268.57C422.768 262.36 434.712 249.416 436.836 256.569C438.97 263.722 430.845 275.733 426.521 268.57Z"
                  fill="white" fill-opacity="0.68"/>
            <path d="M429.795 232.811C428.031 229.888 433.637 223.817 434.64 227.177C435.633 230.528 431.827 236.162 429.795 232.811Z"
                  fill="#FEBD81"/>
            <path d="M461.765 209.996C460.001 207.08 465.605 201.009 466.601 204.364C467.607 207.719 463.785 213.36 461.765 209.996Z"
                  fill="#FEBD81"/>
            <path d="M417.386 295.263C414.643 293.254 417.473 285.498 419.685 288.203C421.896 290.907 420.554 297.581 417.386 295.263Z"
                  fill="white" fill-opacity="0.68"/>
            <path d="M543.954 233.031C540.32 231.835 539.967 224.687 543.342 226.587C546.717 228.478 548.126 234.412 543.954 233.031Z"
                  fill="#FEBD81"/>
            <path d="M457.806 307.506C452.171 305.628 451.616 294.523 456.862 297.472C462.108 300.431 464.298 309.648 457.806 307.506Z"
                  fill="white" fill-opacity="0.68"/>
            <path d="M473.221 347.651C467.593 345.775 467.034 334.668 472.283 337.622C477.532 340.565 479.717 349.786 473.221 347.651Z"
                  fill="white" fill-opacity="0.68"/>
            <path d="M440.32 103.838C440.32 103.838 445.137 100.336 451.262 101.249C457.833 102.227 462.861 105.032 471.281 104.394C481.663 103.606 488.773 92.0205 488.773 92.0205C488.773 92.0205 481.207 71.2367 481.207 62.9408C479.923 63.0825 478.698 63.4671 477.516 64.0094C472.248 66.4236 467.782 71.9808 462.343 73.3111C461.556 73.5044 460.75 73.6077 459.918 73.6028C459.05 73.5972 458.217 73.4883 457.406 73.3055C451.505 71.9863 446.669 66.7649 437.477 68.283C436.832 68.3891 436.162 68.528 435.468 68.7052C435.468 68.7052 440.44 103.617 440.32 103.838Z"
                  fill="white"/>
            <path d="M439.118 103.035L439.116 103.038L439.118 103.035ZM439.116 103.038L439.115 103.04L439.116 103.038ZM439.114 103.041V103.042V103.041ZM489.546 91.7618C488.086 93.7947 481.403 102.389 472.405 103.032C466.773 103.434 462.553 102.383 458.472 101.367C456.322 100.831 454.099 100.277 451.703 99.9401C447.037 99.2843 443.09 100.76 441.011 101.792C440.738 99.6353 440.083 95.2399 438.708 86.0024C437.682 79.1096 436.646 72.2339 436.27 69.7406C442.906 68.4097 447.263 70.3497 451.481 72.2298C454.445 73.5504 457.243 74.7974 460.592 74.8208C460.618 74.8215 460.646 74.8215 460.673 74.8215C465.314 74.8215 469.159 72.0474 472.878 69.3642C475.85 67.2205 478.676 65.1828 481.809 64.4932C482.419 72.6544 488.353 88.6175 489.546 91.7618ZM469.933 105.271C470.778 105.271 471.655 105.242 472.57 105.177C483.867 104.369 491.421 92.9606 491.737 92.4747C491.922 92.1919 491.959 91.843 491.838 91.5299C491.76 91.3268 483.991 71.1273 483.991 63.2318C483.991 62.927 483.857 62.6358 483.621 62.4321C483.385 62.2284 483.071 62.1314 482.755 62.1631C478.529 62.6021 474.975 65.1656 471.539 67.6437C467.956 70.2292 464.569 72.6716 460.673 72.6716C460.651 72.6716 460.63 72.6716 460.608 72.6716C457.743 72.6517 455.157 71.4989 452.42 70.2795C447.867 68.2507 442.706 65.9515 434.745 67.8722C434.189 68.0064 433.829 68.5239 433.912 69.0697C435.9 82.2304 438.87 102.129 438.978 103.525C438.969 103.834 439.098 104.141 439.351 104.358C439.74 104.692 440.317 104.722 440.743 104.431C440.788 104.4 445.517 101.243 451.381 102.067C453.656 102.387 455.723 102.902 457.912 103.448C461.519 104.347 465.231 105.271 469.933 105.271Z"
                  fill="#212123"/>
            <path d="M540.14 122.517L540.708 127.609L540.999 130.202L545.999 174.928C545.999 174.928 543.002 175.105 538.966 175.01C538.176 174.991 537.347 174.963 536.493 174.921C530.125 174.609 522.366 173.536 519.305 170.321C514.728 165.514 513 141.156 516.506 131.317C518.112 126.806 527.119 124.485 533.538 123.385C534.254 123.261 534.94 123.154 535.579 123.061C538.271 122.664 540.14 122.517 540.14 122.517Z"
                  fill="white"/>
            <path d="M544.398 172.803C538.073 173.046 524.185 172.701 520.255 168.599C516.095 164.255 514.507 140.885 517.757 131.825C519.498 126.969 532.765 124.685 538.916 124.078L544.398 172.803ZM541.004 175.038C543.6 175.038 545.407 174.938 545.652 174.924L546.783 174.858L540.806 121.733L539.779 121.814C537.598 121.984 518.394 123.694 515.746 131.077C514.111 135.64 513.475 143.78 514.089 152.318C514.326 155.606 515.359 166.607 518.723 170.119C522.822 174.399 534.435 175.038 541.004 175.038Z"
                  fill="#212123"/>
            <path d="M518.653 151.522L527.047 151.58C527.797 151.585 528.449 152.102 528.632 152.839C529.303 155.542 530.534 161.864 528.055 164.152C525.998 166.051 522.452 166.09 520.263 164.455C517.815 162.625 517.168 156.386 516.997 153.286C516.944 152.323 517.702 151.515 518.653 151.522Z"
                  fill="white"/>
            <path d="M518.682 152.425L527.012 152.483C527.378 152.486 527.695 152.737 527.784 153.094C529.061 158.23 528.939 162.111 527.459 163.476C525.759 165.042 522.7 165.155 520.779 163.721C519.259 162.587 518.174 158.685 517.876 153.283C517.864 153.056 517.941 152.842 518.095 152.678C518.25 152.513 518.45 152.428 518.682 152.425ZM523.982 166.415C525.678 166.415 527.362 165.845 528.578 164.725C531.278 162.236 530.25 156.111 529.397 152.681C529.123 151.578 528.147 150.803 527.024 150.795L518.694 150.738L518.677 150.737C518.005 150.737 517.354 151.02 516.89 151.514C516.423 152.012 516.177 152.691 516.214 153.378C516.452 157.675 517.265 163.194 519.792 165.081C520.99 165.974 522.491 166.415 523.982 166.415Z"
                  fill="#212123"/>
            <path d="M524.842 166.22C525.043 166.102 525.142 166.023 525.273 165.923C525.394 165.828 525.509 165.731 525.616 165.631C525.834 165.431 526.031 165.222 526.211 165.005C526.567 164.568 526.878 164.111 527.109 163.628C527.593 162.671 527.849 161.656 527.935 160.654C528.017 159.648 527.941 158.656 527.815 157.696C527.75 157.212 527.666 156.73 527.554 156.25C527.433 155.764 527.318 155.306 527.072 154.806C527.01 154.68 526.844 154.622 526.701 154.677C526.568 154.729 526.502 154.86 526.544 154.98L526.556 155.012C526.697 155.407 526.775 155.895 526.831 156.35C526.884 156.813 526.911 157.282 526.919 157.751C526.934 158.696 526.894 159.623 526.715 160.514C526.535 161.407 526.204 162.261 525.714 163.009C525.48 163.39 525.184 163.73 524.872 164.042C524.713 164.197 524.545 164.341 524.371 164.47C524.285 164.537 524.197 164.596 524.108 164.652C524.03 164.703 523.913 164.768 523.885 164.777C523.391 164.942 523.141 165.43 523.328 165.868C523.514 166.304 524.066 166.525 524.561 166.36C524.628 166.337 524.691 166.309 524.749 166.276L524.842 166.22Z"
                  fill="#212123"/>
            <path d="M529.023 129.817C527.966 129.726 526.922 129.667 525.868 129.625C524.816 129.584 523.762 129.563 522.705 129.577C521.647 129.59 520.586 129.624 519.516 129.725C518.445 129.827 517.37 129.962 516.262 130.258C515.682 130.413 515.321 131.08 515.455 131.747C515.59 132.415 516.17 132.831 516.75 132.675C516.779 132.668 516.808 132.659 516.836 132.648L516.843 132.645C517.75 132.309 518.742 132.079 519.74 131.889C520.741 131.696 521.762 131.565 522.787 131.453C523.812 131.34 524.844 131.262 525.878 131.203C526.911 131.146 527.952 131.105 528.98 131.094H528.987C529.293 131.091 529.54 130.802 529.537 130.45C529.535 130.116 529.307 129.842 529.023 129.817Z"
                  fill="#212123"/>
            <path d="M488.774 133.794C488.774 133.794 497.36 163.721 532.072 149.033C533.541 148.412 535.057 147.714 536.62 146.923L536.96 135.594L537.053 132.46L537.376 121.733C537.376 121.733 535.998 122.762 533.661 124.097C532.429 124.81 530.93 125.601 529.228 126.376C523.703 128.888 516.032 131.197 508.347 129.688C505.376 129.107 502.406 127.952 499.554 126.021L488.774 133.794Z"
                  fill="white"/>
            <path d="M514.447 153.873C521.109 153.873 528.588 151.765 536.808 147.56C537.354 147.28 537.574 146.605 537.297 146.053C537.021 145.499 536.354 145.278 535.809 145.557C523.337 151.939 512.759 153.298 504.372 149.596C495.195 145.546 491.356 136.456 490.408 133.811L499.765 126.949C506.737 131.437 515.432 132.074 524.969 128.784C532.307 126.252 537.498 122.349 537.716 122.184C538.206 121.813 538.305 121.11 537.938 120.614C537.572 120.119 536.877 120.018 536.387 120.389C536.187 120.541 516.082 135.498 500.358 124.659C499.972 124.392 499.463 124.4 499.084 124.677L488.448 132.478C488.071 132.755 487.905 133.241 488.033 133.695C488.179 134.213 491.754 146.459 503.461 151.641C506.824 153.13 510.492 153.873 514.447 153.873Z"
                  fill="#212123"/>
            <path d="M511.784 153.873C511.86 153.873 511.936 153.864 512.012 153.847C514.34 153.312 516.08 151.961 517.186 149.832C520.76 142.944 516.268 130.061 516.075 129.516C515.87 128.938 515.259 128.644 514.709 128.859C514.159 129.074 513.88 129.717 514.084 130.296C514.128 130.419 518.433 142.769 515.32 148.763C514.512 150.319 513.281 151.269 511.559 151.665C510.986 151.796 510.623 152.391 510.748 152.994C510.856 153.516 511.296 153.873 511.784 153.873Z"
                  fill="#212123"/>
            <path d="M480.213 63.1073L496.339 127.593L500.999 146.23L513.119 194.691L516.24 207.178L520.13 206.188L516.095 190.047L504.898 145.276L500.409 127.322L484.104 62.1173C483.873 61.2001 483.058 60.5891 482.16 60.5891C481.999 60.5891 481.832 60.6106 481.669 60.6508C480.594 60.9244 479.942 62.0252 480.213 63.1073Z"
                  fill="#FFF599"/>
            <path d="M518.999 205.643L517.122 206.106L480.054 62.3746C479.991 62.1295 480.029 61.8754 480.161 61.6582C480.293 61.441 480.505 61.2878 480.755 61.2259C481.272 61.0992 481.799 61.4062 481.93 61.9116L518.999 205.643ZM515.51 208.746L521.698 207.219L484.086 61.3797C483.656 59.7117 481.916 58.6959 480.212 59.1171C479.385 59.3211 478.689 59.8272 478.252 60.5436C477.815 61.2593 477.69 62.0982 477.898 62.9072L515.51 208.746Z"
                  fill="#212123"/>
            <path d="M496.611 119.129C496.611 119.262 496.619 119.4 496.641 119.546C497.063 122.965 502.294 129.697 502.294 129.697C502.294 129.697 506.167 130.985 507.894 129.958C508.581 129.548 509.043 126.893 509.137 124.339C509.212 122.251 509.04 120.229 508.538 119.556C507.093 117.619 496.614 117.049 496.611 119.129Z"
                  fill="white"/>
            <path d="M506.297 130.318C505.472 130.78 503.484 130.427 502.181 129.993C500.637 127.718 497.257 122.24 497.113 119.682C497.55 119.392 499.217 119.02 501.915 119.247C504.718 119.484 506.422 120.192 506.69 120.595C507.401 121.683 507.09 129.088 506.297 130.318ZM501.537 130.908H501.534H501.537ZM505.092 132.708C505.953 132.708 506.803 132.552 507.471 132.106C508.053 131.717 508.427 130.888 508.723 129.336C509.198 126.837 509.51 121.048 508.383 119.354C506.836 117.027 499.538 116.572 496.907 117.439C495.287 117.972 495.044 118.967 495.044 119.512C495.04 123.266 500.123 130.709 500.702 131.546L500.889 131.817L501.191 131.93C501.655 132.103 503.394 132.708 505.092 132.708Z"
                  fill="#212123"/>
            <path d="M489.271 134.701C491.479 140.142 495.904 141.33 497.35 141.33C499.445 141.33 500.26 140.5 504.236 139.593C508.209 138.683 504.463 124.079 503.326 121.962C502.182 119.835 498.504 118.231 496.401 117.884C496.12 117.838 495.867 117.813 495.651 117.813C493.824 117.813 488.254 122.732 488.103 124.543C487.737 128.968 488.282 132.262 489.271 134.701Z"
                  fill="white"/>
            <path d="M489.598 124.752H489.595H489.598ZM496.046 119.163C497.612 119.163 501.702 120.771 502.735 122.637C503.644 124.279 506.387 134.742 504.873 137.822C504.66 138.256 504.464 138.3 504.4 138.314C502.585 138.717 501.417 139.101 500.479 139.409C499.352 139.779 498.731 139.983 497.749 139.983C497.065 139.983 494.861 139.547 492.896 137.559C490.251 134.885 489.111 130.456 489.598 124.751C489.752 123.517 494.692 119.235 496.046 119.163ZM497.749 142.115C499.121 142.115 500.055 141.809 501.237 141.42C502.125 141.128 503.23 140.766 504.928 140.389C505.54 140.253 506.389 139.852 506.949 138.711C508.947 134.645 505.694 123.339 504.764 121.658C503.201 118.833 498.157 117.031 496.041 117.031C493.551 117.031 487.522 122.252 487.322 124.58C486.641 132.558 489.065 136.828 491.217 139.006C493.645 141.461 496.464 142.115 497.749 142.115Z"
                  fill="#212123"/>
            <path d="M613.414 113.118C613.414 113.118 617.404 120.165 623.576 120.165C626.655 120.168 629.745 117.108 630.934 114.103C631.341 113.072 631.526 112.046 631.408 111.151C631.208 109.61 629.529 108.004 627.467 106.577C623.841 104.072 619.034 102.135 619.034 102.135L613.414 113.118Z"
                  fill="white"/>
            <path d="M623.634 120.949C625.857 120.949 628.239 119.778 630.169 117.737C632.18 115.609 633.251 113.034 632.966 111.015C632.328 106.507 621.46 102.237 619.287 101.427C618.711 101.213 618.057 101.471 617.826 102.006C617.594 102.541 617.873 103.149 618.449 103.363C623.007 105.065 630.374 108.72 630.737 111.286C630.935 112.683 630.027 114.723 628.479 116.361C626.999 117.927 625.187 118.862 623.634 118.862H623.633C617.899 118.861 613.986 112.607 613.946 112.544C613.639 112.044 612.953 111.87 612.414 112.154C611.875 112.439 611.687 113.075 611.993 113.576C612.177 113.877 616.582 120.947 623.632 120.949H623.634Z"
                  fill="#212123"/>
            <path d="M619.578 118.597C619.631 118.597 619.684 118.589 619.736 118.573C620.034 118.482 620.206 118.156 620.119 117.845C619.917 117.124 619.999 116.459 620.368 115.813C621.825 113.259 627.027 112.064 627.08 112.052C627.377 111.985 627.569 111.684 627.515 111.372C627.459 111.06 627.176 110.849 626.877 110.898C621.843 111.694 619.27 107.312 619.164 107.125C619.004 106.847 618.659 106.755 618.393 106.921C618.126 107.086 618.038 107.445 618.196 107.723C618.219 107.766 620.104 111.007 623.741 111.927C622.107 112.622 620.268 113.694 619.402 115.21C618.871 116.14 618.748 117.137 619.038 118.174C619.11 118.43 619.335 118.597 619.578 118.597Z"
                  fill="#212123"/>
            <path d="M560.29 137.282C561.747 138.706 563.491 139.998 565.469 141.045C568.513 142.66 572.108 143.683 576.041 143.683C577.556 143.683 579.026 143.618 580.447 143.493C600.871 141.743 611.858 128.265 614.215 127.07C616.732 125.791 629.83 125.702 628.833 119.747C628.755 119.289 628.489 118.83 628.093 118.377C625.817 115.771 619.255 113.296 619.585 111.852C620.114 109.53 626.886 103.405 628.204 100.651C630.921 94.9679 626.75 90.8489 624.404 93.6085C620.446 98.2607 615.904 100.634 608.744 106.104C606.38 107.912 600.79 111.685 598.004 113.368C594.232 115.647 590.606 117.435 586.848 118.717C581.054 120.694 574.949 121.468 567.524 120.977C567.278 120.961 567.028 120.942 566.776 120.923C552.856 119.858 553.017 130.185 560.29 137.282Z"
                  fill="white"/>
            <path d="M625.09 92.5774C625.269 92.5774 625.453 92.6379 625.644 92.7603C626.741 93.4609 627.623 95.8849 626.15 99.082C625.617 100.237 623.894 102.246 622.228 104.189C619.57 107.288 617.933 109.275 617.616 110.715C617.275 112.264 619.037 113.353 621.705 115.002C623.608 116.178 626.484 117.956 626.68 119.169C627.182 122.281 622.164 123.48 616.982 124.443C615.156 124.782 613.714 125.049 612.905 125.475C612.344 125.771 611.632 126.422 610.453 127.501C606.148 131.441 596.065 140.667 580.176 142.08C578.798 142.205 577.376 142.268 575.947 142.268C570.5 142.268 565.148 140.01 561.26 136.073V136.073C557.495 132.261 555.889 127.679 557.263 124.67C558.439 122.094 561.816 120.893 566.771 121.285L566.827 121.289C567.059 121.308 567.289 121.326 567.516 121.341C574.791 121.839 580.954 121.089 586.912 118.98C590.477 117.719 594.129 115.903 598.073 113.43C600.907 111.653 606.376 107.816 608.711 105.964C610.91 104.221 612.88 102.769 614.619 101.49C618.462 98.66 621.497 96.4259 624.244 93.0747C624.516 92.7427 624.796 92.5774 625.09 92.5774ZM575.947 144.466C577.441 144.466 578.929 144.4 580.369 144.269C596.983 142.791 607.445 133.218 611.912 129.13C612.779 128.338 613.597 127.589 613.91 127.425C614.429 127.151 615.927 126.873 617.375 126.604C622.288 125.692 629.713 124.313 628.826 118.815C628.47 116.607 625.607 114.838 622.839 113.127C621.775 112.47 620.207 111.501 619.797 111C620.212 109.894 622.23 107.541 623.871 105.628C625.716 103.476 627.459 101.444 628.121 100.01C630.033 95.861 628.87 92.2215 626.806 90.9026C625.368 89.9846 623.705 90.2864 622.569 91.6728C619.997 94.8122 617.204 96.8676 613.339 99.7137C611.586 101.004 609.598 102.468 607.369 104.235C605.123 106.016 599.658 109.851 596.927 111.563C593.119 113.95 589.608 115.698 586.193 116.906C580.522 118.914 574.634 119.627 567.663 119.149C567.442 119.133 567.219 119.116 566.994 119.099L566.939 119.095C558.942 118.46 556.207 121.738 555.289 123.749C553.535 127.589 555.316 133.165 559.721 137.625H559.721C564.013 141.972 569.927 144.466 575.947 144.466Z"
                  fill="#212123"/>
            <path d="M595.92 140.547C596.208 140.547 596.495 140.416 596.699 140.161C597.073 139.694 597.027 138.985 596.597 138.579C590.041 132.389 591.277 116.844 591.29 116.687C591.342 116.07 590.925 115.524 590.358 115.467C589.792 115.409 589.288 115.864 589.236 116.48C589.177 117.165 587.887 133.325 595.244 140.273C595.439 140.456 595.68 140.547 595.92 140.547Z"
                  fill="#212123"/>
            <path d="M541.048 171.385C552.436 173.229 585.333 175.542 586.708 169.983C587.119 168.311 585.144 156.172 580.964 143.467C579.583 139.282 577.967 135.033 576.117 131.081C574.884 128.443 573.548 125.938 572.11 123.666C571.604 122.868 570.121 121.783 568.004 120.585C556.769 114.221 527.649 104.734 531.843 118.965C532.346 120.67 532.699 122.399 532.929 124.143C533.201 126.152 533.313 128.18 533.307 130.206C533.293 136.258 532.257 142.288 531.407 147.801C529.563 159.806 528.613 169.37 541.048 171.385Z"
                  fill="white"/>
            <path d="M532.679 136.983C531.549 142.059 530.662 147.142 529.992 152.373C529.825 153.679 529.697 154.999 529.613 156.331C529.525 157.661 529.508 159.013 529.592 160.377C529.678 161.739 529.87 163.123 530.278 164.487C530.682 165.847 531.325 167.186 532.24 168.335C533.146 169.491 534.311 170.422 535.558 171.098C536.805 171.778 538.124 172.245 539.449 172.574C539.78 172.661 540.113 172.714 540.446 172.785C540.778 172.851 541.113 172.922 541.432 172.969C542.076 173.073 542.719 173.171 543.363 173.261C544.648 173.441 545.933 173.602 547.218 173.747C549.788 174.04 552.36 174.279 554.935 174.477C557.51 174.678 560.089 174.829 562.673 174.921C565.256 175.014 567.843 175.06 570.436 175.028C573.03 174.993 575.628 174.893 578.242 174.615C579.549 174.472 580.858 174.289 582.179 173.992C582.839 173.841 583.502 173.665 584.171 173.423C584.838 173.176 585.519 172.885 586.197 172.379C586.533 172.116 586.874 171.786 587.146 171.332C587.21 171.213 587.276 171.096 587.329 170.969C587.377 170.837 587.421 170.702 587.461 170.567C587.489 170.432 587.508 170.295 587.527 170.158L587.543 169.843C587.56 169.059 587.49 168.413 587.425 167.734C587.284 166.397 587.083 165.094 586.864 163.794C586.421 161.199 585.885 158.633 585.294 156.079C584.698 153.528 584.054 150.989 583.317 148.476C581.846 143.453 580.069 138.505 577.769 133.801C577.635 133.526 577.305 133.413 577.033 133.55C576.783 133.675 576.669 133.967 576.757 134.228L576.757 134.23C578.406 139.143 579.905 144.082 581.25 149.071C582.591 154.057 583.783 159.1 584.623 164.179C584.83 165.446 585.016 166.719 585.14 167.971C585.2 168.586 585.254 169.24 585.237 169.757L585.228 169.93C585.221 169.954 585.22 169.978 585.219 170.002C585.207 170.021 585.2 170.041 585.197 170.063C585.187 170.085 585.168 170.107 585.159 170.133C585.094 170.235 584.973 170.37 584.8 170.502C584.442 170.769 583.931 171.007 583.393 171.197C582.85 171.389 582.268 171.543 581.675 171.674C580.485 171.935 579.245 172.103 577.998 172.231C575.499 172.482 572.957 172.566 570.414 172.584C567.87 172.6 565.319 172.539 562.768 172.431C557.669 172.197 552.562 171.849 547.487 171.285C546.218 171.146 544.953 170.991 543.694 170.819C543.064 170.732 542.436 170.64 541.813 170.541C541.495 170.495 541.202 170.432 540.904 170.374C540.608 170.31 540.305 170.264 540.014 170.189C537.689 169.61 535.482 168.603 534.081 166.825C532.65 165.074 532.055 162.675 531.889 160.219C531.714 157.75 531.924 155.194 532.212 152.645C532.5 150.091 532.921 147.527 533.249 144.941C533.568 142.353 533.808 139.735 533.77 137.097C533.766 136.788 533.515 136.541 533.21 136.545C532.95 136.55 532.734 136.736 532.679 136.983Z"
                  fill="#212123"/>
            <path d="M590.548 109.071C570.403 154.129 506.125 128.709 520.69 83.5038C540.205 36.8977 606.621 63.2351 590.548 109.071Z"
                  fill="white"/>
            <path d="M590.548 109.071C570.403 154.129 506.125 128.709 520.69 83.5038C540.205 36.8977 606.621 63.2351 590.548 109.071Z"
                  fill="white"/>
            <path d="M584.41 120.165C585.155 119.955 585.895 119.726 586.632 119.478C586.943 118.935 587.247 118.38 587.545 117.813C586.951 118.033 586.354 118.241 585.754 118.435C585.317 119.028 584.868 119.605 584.41 120.165Z"
                  fill="#212123"/>
            <path d="M529.595 128.004C530.732 127.086 531.765 126.164 532.672 125.3C532.348 124.902 532.027 124.497 531.711 124.084C530.827 124.902 529.835 125.759 528.753 126.601C529.029 127.077 529.31 127.545 529.595 128.004Z"
                  fill="#212123"/>
            <path d="M590.548 109.071C570.403 154.129 506.125 128.709 520.69 83.5038C540.205 36.8977 606.621 63.2351 590.548 109.071Z"
                  fill="white"/>
            <path d="M589.069 108.787C579.053 131.39 558.616 135.466 542.798 129.478C527.344 123.626 514.059 106.829 521.394 83.7715C531.045 60.5195 552.309 56.331 567.987 62.2827C583.82 68.2923 597.166 85.4069 589.069 108.787ZM556.039 133.491C560.461 133.491 564.823 132.706 568.923 131.134C578.345 127.522 585.807 120.002 590.505 109.386L590.528 109.327C594.307 98.4343 593.802 87.8588 589.065 78.7443C584.838 70.6115 577.549 64.2496 568.54 60.83C559.549 57.4174 549.938 57.372 541.476 60.7023C531.934 64.4582 524.488 72.24 519.945 83.2077L519.922 83.2691C516.492 94.0267 517.19 104.431 521.939 113.356C526.187 121.339 533.399 127.58 542.247 130.931C546.753 132.636 551.428 133.491 556.039 133.491Z"
                  fill="#212123"/>
            <path d="M589.191 108.567C579.132 130.788 558.625 134.798 542.754 128.91C527.246 123.158 513.915 106.647 521.27 83.9787C530.963 61.1191 552.299 56.9998 568.03 62.8498C583.918 68.7572 597.309 85.5813 589.191 108.567ZM556.047 133.491C560.561 133.491 565.017 132.706 569.204 131.133C578.823 127.521 586.439 120.006 591.229 109.4L591.263 109.318C595.118 98.4321 594.6 87.86 589.763 78.7425C585.448 70.6096 578.008 64.2476 568.815 60.8292C559.639 57.4163 549.826 57.3728 541.186 60.7039C531.445 64.4607 523.845 72.2372 519.212 83.1933L519.18 83.2784C515.681 94.0297 516.395 104.431 521.244 113.358C525.581 121.341 532.942 127.582 541.971 130.932C546.569 132.637 551.341 133.491 556.047 133.491Z"
                  fill="#212123"/>
            <path d="M589.191 108.567C579.132 130.788 558.625 134.798 542.754 128.91C527.246 123.158 513.915 106.647 521.27 83.9787C530.963 61.1191 552.299 56.9998 568.03 62.8498C583.918 68.7572 597.309 85.5813 589.191 108.567ZM556.047 133.491C560.561 133.491 565.017 132.706 569.204 131.133C578.823 127.521 586.439 120.006 591.229 109.4L591.263 109.318C595.118 98.4321 594.6 87.86 589.763 78.7425C585.448 70.6096 578.008 64.2476 568.815 60.8292C559.639 57.4163 549.826 57.3728 541.186 60.7039C531.445 64.4607 523.845 72.2372 519.212 83.1933L519.18 83.2784C515.681 94.0297 516.395 104.431 521.244 113.358C525.581 121.341 532.942 127.582 541.971 130.932C546.569 132.637 551.341 133.491 556.047 133.491Z"
                  fill="#212123"/>
            <path d="M585.963 116.462C552.54 144.515 512.988 107.52 536.801 77.8815C565.542 46.2652 610.503 79.8402 585.963 116.462Z"
                  fill="#6630EA"/>
            <path opacity="0.35"
                  d="M590.05 88.8095C597.125 127.808 542.568 141.069 530.321 106.49C551.706 124.289 583.064 109.571 590.05 88.8095Z"
                  fill="#212123"/>
            <path d="M588.585 107.738C580.201 128.157 563.119 131.246 551.038 127.685C537.15 123.591 524.905 109.501 528.374 90.4924C530.258 81.4856 536.233 73.3323 544.764 68.1502C553.297 62.966 563.293 61.4257 572.204 63.9178C589.24 72.1209 594.43 93.179 588.585 107.738ZM559.89 131.14C564.422 131.14 568.863 130.189 572.915 128.307C580.641 124.718 586.75 117.889 590.58 108.559L590.583 108.552C596.807 93.0579 591.246 70.625 573.049 61.9255L572.878 61.8611C563.371 59.1718 552.718 60.7902 543.647 66.3005C534.607 71.7921 528.27 80.4576 526.259 90.0757C524.55 99.4397 526.273 108.299 531.235 115.723C535.733 122.452 542.55 127.437 550.43 129.76C553.558 130.682 556.746 131.14 559.89 131.14Z"
                  fill="#212123"/>
            <path d="M584.881 116.044C567.949 130.531 550.079 127.184 539.86 117.419C530.583 108.554 526.381 93.0266 537.89 78.3112C552.058 62.3497 569.328 63.5514 580.162 71.8277C590.935 80.0574 596.988 97.3912 584.881 116.044ZM560.784 128.004C569.67 128.004 578.522 124.421 586.434 117.611L586.552 117.509L586.637 117.378C592.489 108.422 594.832 98.9747 593.413 90.0588C592.143 82.0742 587.911 74.9786 581.497 70.0786C575.228 65.29 567.501 63.0893 559.737 63.8832C551.107 64.7645 542.975 69.258 536.222 76.8763L536.179 76.9277C530.66 83.9726 528.136 91.891 528.881 99.8263C529.555 107.011 532.914 113.825 538.34 119.01C544.215 124.624 551.926 127.815 560.051 127.995C560.296 128.001 560.54 128.004 560.784 128.004Z"
                  fill="#212123"/>
            <path d="M515.313 109.775C520.776 125.967 538.131 122.072 534.539 106.109C529.463 88.9365 510.91 93.098 515.313 109.775Z"
                  fill="white"/>
            <path d="M516.372 110.06H516.369H516.372ZM533.985 106.821C535.572 113.778 532.669 117.809 529.082 118.717C525.281 119.682 520.01 117.293 517.41 109.779C515.469 102.532 518.514 98.237 522.171 97.3128C526.295 96.269 531.674 99.2015 533.985 106.821ZM527.432 120.949C528.196 120.949 528.939 120.856 529.643 120.678C534.222 119.518 537.99 114.641 536.087 106.361L536.071 106.298C533.383 97.3914 526.763 94.0501 521.61 95.3519C516.959 96.5283 513.008 101.71 515.326 110.31L515.346 110.373C517.928 117.872 523.034 120.949 527.432 120.949Z"
                  fill="#212123"/>
            <path d="M515.22 110.764C519.456 123.898 531.909 121.187 529.139 108.259C525.236 94.1501 511.706 97.1108 515.22 110.764Z"
                  fill="white"/>
            <path d="M515.439 110.723H515.436H515.439ZM527.91 108.532C529.089 114.119 527.189 117.285 524.779 117.946C522.15 118.667 518.417 116.623 516.425 110.431C514.93 104.537 516.927 101.119 519.421 100.438C522.313 99.6453 526.155 102.174 527.91 108.532ZM523.759 120.165C524.297 120.165 524.819 120.094 525.314 119.959C528.665 119.04 531.386 115.005 529.909 108.061L529.895 108.001C527.785 100.315 522.76 97.3655 518.887 98.424C515.443 99.3657 512.585 103.698 514.446 110.985L514.464 111.046C516.531 117.504 520.45 120.165 523.759 120.165Z"
                  fill="#212123"/>
            <path opacity="0.7"
                  d="M541.683 102.136C544.386 102.136 546.79 99.7229 545.751 96.397C544.763 93.8039 542.844 92.729 541.019 92.729C538.138 92.729 535.485 95.4012 537.063 99.0046C538.221 101.211 540.01 102.136 541.683 102.136Z"
                  fill="white"/>
            <path opacity="0.7"
                  d="M544.561 109.19C545.538 109.19 546.406 108.063 545.795 106.418C545.42 105.618 544.843 105.271 544.301 105.271C543.324 105.271 542.456 106.399 543.066 108.043C543.442 108.843 544.018 109.19 544.561 109.19Z"
                  fill="white"/>
            <path opacity="0.7"
                  d="M586.76 93.5127C586.92 75.8142 575.419 69.9958 565.333 69.9958C559.872 69.9958 554.827 71.7008 552.27 74.149C553.553 74.0313 554.794 73.9743 555.992 73.9743C571.08 73.9743 579.618 83.0281 586.76 93.5127Z"
                  fill="white"/>
            <path d="M524.117 119.382C527.252 119.382 530.026 116.952 530.321 111.55C530.259 109.636 529.66 107.731 528.693 106.056C528.586 107.106 528.367 108.006 528.057 108.769C528.07 108.812 528.083 108.855 528.095 108.899C529.334 114.548 527.337 117.749 524.805 118.418C524.456 118.51 524.088 118.557 523.709 118.557C521.08 118.557 517.855 116.288 516.026 110.819C515.781 109.887 515.625 109.015 515.547 108.206C515.207 107.762 514.902 107.289 514.643 106.794C514.723 114.703 519.767 119.382 524.117 119.382Z"
                  fill="#212123"/>
            <path d="M518.049 212.497C523.35 213.333 532.665 211.158 536.03 203.422C536.03 203.422 539.938 189.669 548.979 180.681C555.653 174.046 570.154 172.523 573.276 177.061C576.291 181.439 570.127 193.308 573.873 199.631C575.364 202.142 584.488 206.52 596.881 204.686C602.057 203.918 602.826 200.056 602.297 197.489C602.254 197.277 602.202 197.074 602.143 196.885C600.627 191.966 593.812 190.848 593.812 190.848C593.812 190.848 602.671 177.916 599.315 167.212C596.504 158.258 589.388 154.879 583.668 154.83C581.057 154.809 578.736 155.48 577.246 156.633L549.156 151.524L531.907 148.386C531.625 151.224 531.249 153.878 530.78 156.427C530.329 158.9 529.791 161.272 529.164 163.621C526.585 173.275 522.524 182.488 516.909 196.263C511.956 199.394 509.255 202.318 508.556 204.821C507.507 208.577 510.958 211.38 518.049 212.497Z"
                  fill="white"/>
            <path d="M520.768 214.232C526.613 214.232 534.473 211.438 537.611 204.194L537.661 204.056C537.7 203.919 541.643 190.266 550.46 181.464C554.976 176.956 563.018 175.052 568.289 175.546C570.791 175.781 572.589 176.523 573.35 177.633C574.528 179.351 573.945 182.935 573.327 186.73C572.563 191.413 571.699 196.72 573.914 200.472C575.718 203.53 585.391 208.035 598.245 206.122C601.44 205.646 603.017 204.093 603.777 202.872C605.351 200.344 604.685 197.582 604.443 196.796C603.198 192.748 599.03 190.977 596.723 190.291C598.935 186.601 604.49 175.995 601.581 166.685C598.939 158.227 593.021 155.207 589.728 154.16C585.261 152.74 580.382 153.243 577.59 155.413C577.114 155.782 577.025 156.471 577.39 156.952C577.756 157.433 578.438 157.524 578.914 157.154C581.134 155.429 585.313 155.06 589.076 156.255C591.965 157.174 597.163 159.837 599.509 167.346C602.7 177.561 594.179 190.247 594.093 190.374L593.121 191.801L594.813 192.08C594.874 192.091 601.054 193.176 602.368 197.447C602.722 198.601 602.795 200.325 601.937 201.703C601.186 202.91 599.837 203.665 597.929 203.949C585.556 205.789 576.96 201.347 575.781 199.347C573.972 196.284 574.734 191.608 575.471 187.086C576.163 182.841 576.816 178.831 575.137 176.383C573.987 174.706 571.689 173.66 568.491 173.359C562.731 172.817 553.916 174.926 548.933 179.902C539.947 188.871 535.951 202.141 535.592 203.378C532.454 210.513 523.62 212.67 518.62 211.877C513.482 211.063 510.274 209.316 509.82 207.081C509.3 204.524 512.236 201.003 517.878 197.421L518.173 197.234L518.305 196.909C519.227 194.637 520.107 192.486 520.947 190.437C527.836 173.617 531.994 163.465 533.532 148.026C533.592 147.422 533.157 146.884 532.56 146.823C531.961 146.761 531.43 147.203 531.37 147.806C529.864 162.924 525.751 172.963 518.939 189.597C518.138 191.551 517.301 193.596 516.426 195.752C508.304 200.986 507.185 205.037 507.691 207.523C508.156 209.808 510.37 212.793 518.283 214.047C519.05 214.168 519.886 214.232 520.768 214.232Z"
                  fill="#212123"/>
            <path d="M585.19 152.14C585.29 154.303 583.442 156.13 581.063 156.221C578.685 156.312 576.675 154.632 576.575 152.469C576.475 150.307 578.322 148.48 580.702 148.389C583.08 148.298 585.09 149.978 585.19 152.14Z"
                  fill="white"/>
            <path d="M585.895 151.735H585.891H585.895ZM581.668 148.542C583.462 148.542 584.957 149.962 585.033 151.771C585.071 152.67 584.757 153.531 584.147 154.194C583.538 154.856 582.707 155.242 581.808 155.28C580.911 155.318 580.048 155.003 579.385 154.394C578.722 153.784 578.336 152.953 578.299 152.054C578.221 150.197 579.668 148.623 581.524 148.545C581.572 148.543 581.62 148.542 581.668 148.542ZM581.661 157.008C581.733 157.008 581.806 157.006 581.88 157.004C583.24 156.946 584.496 156.363 585.417 155.361C586.338 154.359 586.814 153.058 586.757 151.698C586.638 148.891 584.258 146.703 581.452 146.822C578.645 146.939 576.458 149.319 576.575 152.127C576.633 153.486 577.216 154.743 578.217 155.664C579.165 156.535 580.381 157.008 581.661 157.008Z"
                  fill="#212123"/>
            <path d="M578.642 163.871L556.657 166.383C554.054 166.681 551.668 164.896 551.355 162.415L549.952 151.274C549.678 149.102 551.082 147.092 553.184 146.425C553.482 146.329 553.794 146.263 554.118 146.226L576.1 143.715C578.705 143.416 581.092 145.201 581.402 147.682L582.515 156.506L582.808 158.822C583.121 161.304 581.244 163.573 578.642 163.871Z"
                  fill="white"/>
            <path d="M556.908 165.527C554.593 165.793 552.486 164.211 552.208 162.003L550.886 151.491C550.753 150.427 551.065 149.372 551.765 148.522C552.465 147.672 553.463 147.134 554.579 147.006L575.853 144.57C576.969 144.443 578.073 144.74 578.963 145.408C579.854 146.076 580.419 147.03 580.552 148.094L581.874 158.607C582.152 160.815 580.495 162.827 578.182 163.091L556.908 165.527ZM556.4 167.199C556.636 167.199 556.873 167.186 557.113 167.159L578.386 164.723C581.643 164.35 583.974 161.518 583.583 158.411L582.262 147.899C582.073 146.399 581.279 145.056 580.027 144.116C578.775 143.177 577.218 142.759 575.648 142.94L554.374 145.375C552.802 145.555 551.395 146.312 550.411 147.508C549.427 148.702 548.988 150.187 549.178 151.687L550.499 162.199C550.861 165.078 553.434 167.199 556.4 167.199Z"
                  fill="#212123"/>
            <path d="M578.922 163.631C578.65 163.722 578.366 163.784 578.068 163.818L556.522 166.382C554.653 166.604 552.899 165.687 551.975 164.18C551.637 163.633 551.41 163.007 551.33 162.332L550.717 157.278L550.514 155.611L549.952 150.957C549.645 148.424 551.485 146.107 554.035 145.803L558.691 145.25C556.593 145.906 555.186 147.977 555.456 150.217L556.197 156.362L556.831 161.595C557.137 164.125 559.477 165.95 562.026 165.646L578.922 163.631Z"
                  fill="white"/>
            <path d="M558.041 165.306L556.403 165.502C555.405 165.622 554.416 165.343 553.618 164.717C552.82 164.091 552.315 163.197 552.196 162.2V162.2L550.834 150.877C550.585 148.809 552.069 146.924 554.143 146.675L555.619 146.498C554.834 147.579 554.449 148.94 554.618 150.342L555.978 161.664C556.15 163.104 556.878 164.394 558.028 165.296L558.041 165.306ZM555.946 167.199C556.164 167.199 556.383 167.186 556.602 167.16L577.914 164.607C578.253 164.568 578.594 164.494 578.922 164.386L578.562 162.764L561.846 164.768C560.849 164.888 559.86 164.609 559.062 163.983C558.263 163.357 557.758 162.463 557.639 161.466L556.278 150.143C556.062 148.343 557.163 146.639 558.898 146.091L558.546 144.466L553.943 145.016C550.953 145.376 548.813 148.095 549.174 151.077L550.534 162.398C550.707 163.838 551.435 165.128 552.585 166.03C553.559 166.795 554.732 167.199 555.946 167.199Z"
                  fill="#212123"/>
            <path d="M564.021 154.818C564.07 155.276 563.858 159.046 563.858 159.046C563.858 159.046 562.737 159.179 561.36 159.344C559.639 159.549 558.041 157.855 557.791 155.56C557.539 153.266 558.731 151.24 560.451 151.035C561.613 150.897 562.95 150.737 562.95 150.737C562.95 150.737 563.939 154.072 564.021 154.818Z"
                  fill="#6C54FF"/>
            <path d="M564.021 154.818C564.07 155.276 563.858 159.046 563.858 159.046C563.858 159.046 562.737 159.179 561.36 159.344C559.639 159.549 558.041 157.855 557.791 155.56C557.539 153.266 558.731 151.24 560.451 151.035C561.613 150.897 562.95 150.737 562.95 150.737C562.95 150.737 563.939 154.072 564.021 154.818Z"
                  fill="#6630EA"/>
            <path d="M564.09 155.183H564.087H564.09ZM563.38 155.26C563.394 155.42 563.37 156.33 563.255 158.37C563.249 158.471 563.169 158.553 563.063 158.564L561.289 158.759C559.921 158.908 558.643 157.583 558.432 155.804C558.221 154.026 559.158 152.457 560.523 152.307L562.306 152.112C562.41 152.101 562.507 152.162 562.538 152.259C563.261 154.57 563.365 155.139 563.38 155.26ZM561.085 160.144C561.207 160.144 561.328 160.137 561.451 160.123L563.225 159.929C564.025 159.841 564.638 159.217 564.682 158.445C564.849 155.512 564.813 155.217 564.8 155.106C564.751 154.692 564.451 153.601 563.907 151.863C563.677 151.13 562.935 150.66 562.143 150.747L560.36 150.943C558.213 151.179 556.711 153.429 557.012 155.96C557.295 158.347 559.082 160.144 561.085 160.144Z"
                  fill="#212123"/>
            <path d="M566.355 154.665C566.543 157.036 565.653 159.131 564.368 159.343C563.083 159.554 561.89 157.804 561.702 155.433C561.514 153.061 562.404 150.967 563.689 150.755C564.975 150.543 566.168 152.294 566.355 154.665Z"
                  fill="#6C54FF"/>
            <path d="M566.38 155.44C566.379 155.261 566.37 155.079 566.353 154.894C566.217 153.397 565.612 152.154 564.813 151.521C565.612 152.154 566.217 153.398 566.353 154.895C566.369 155.079 566.379 155.261 566.38 155.44Z"
                  fill="white"/>
            <path d="M561.822 156.225C561.887 154.267 562.706 152.674 563.83 152.492C563.901 152.48 563.971 152.474 564.042 152.474C565.08 152.474 566.024 153.717 566.375 155.482C566.379 155.374 566.381 155.266 566.38 155.155C566.379 154.974 566.37 154.79 566.355 154.604C566.234 153.092 565.69 151.835 564.973 151.195C564.645 150.902 564.279 150.737 563.901 150.737C563.831 150.737 563.761 150.743 563.69 150.755C562.709 150.914 561.957 152.155 561.74 153.774C561.673 154.274 561.658 154.809 561.702 155.361C561.726 155.659 561.766 155.949 561.822 156.225Z"
                  fill="#BCE4FA"/>
            <path d="M564.368 159.345C563.084 159.534 561.889 157.987 561.701 155.89C561.659 155.408 561.673 154.941 561.735 154.502C562.197 155.878 563.135 156.763 564.125 156.618C565.115 156.472 565.87 155.343 566.078 153.873C566.217 154.28 566.313 154.732 566.355 155.211C566.543 157.307 565.653 159.158 564.368 159.345Z"
                  fill="#6630EA"/>
            <path d="M565.856 155.163C566.045 156.978 565.204 158.578 563.98 158.731C562.754 158.882 561.607 157.531 561.417 155.717C561.228 153.902 562.069 152.302 563.293 152.15C564.519 151.998 565.666 153.349 565.856 155.163ZM563.798 160.144C563.906 160.144 564.016 160.136 564.126 160.123C566.052 159.883 567.4 157.586 567.13 155.005C566.86 152.423 565.074 150.517 563.147 150.757C561.221 150.998 559.873 153.294 560.143 155.876C560.398 158.31 562 160.144 563.798 160.144Z"
                  fill="#212123"/>
            <path d="M570.315 165.632C570.341 165.632 570.369 165.631 570.397 165.629C570.866 165.592 571.21 165.258 571.165 164.882L570.46 159C570.323 157.862 570.905 156.754 572.013 156.034C573.606 155 574.415 153.41 574.179 151.778L572.976 143.504C572.922 143.129 572.499 142.859 572.029 142.904C571.56 142.947 571.225 143.287 571.28 143.662L572.482 151.937C572.651 153.099 572.074 154.233 570.938 154.971C569.383 155.98 568.569 157.535 568.759 159.131L569.465 165.013C569.508 165.367 569.88 165.632 570.315 165.632Z"
                  fill="#212123"/>
            <path d="M529.843 151.521C529.843 151.521 527.889 153.358 527.971 155.975C528.066 159 529.981 160.096 529.981 160.096C529.981 160.096 538.287 163.763 550.975 160.049C550.975 160.049 554.439 154.851 550.033 152.364C550.033 152.364 536.571 155.24 529.843 151.521Z"
                  fill="white"/>
            <path d="M550.701 160.928C550.701 160.928 551.004 160.649 551.486 160.143C551.034 160.614 550.74 160.89 550.701 160.928Z"
                  fill="#212123"/>
            <path d="M550.427 159.272C539.282 162.445 531.791 159.558 531.126 159.284C530.919 159.145 529.72 158.245 529.651 156.059C529.606 154.616 530.338 153.45 530.805 152.857C537.089 155.846 547.872 153.921 549.911 153.518C550.661 154.004 551.113 154.612 551.289 155.369C551.647 156.901 550.789 158.632 550.427 159.272ZM540.186 162.496C543.268 162.496 546.983 162.085 551.198 160.849L551.49 160.763L551.661 160.506C551.738 160.39 553.542 157.638 552.926 154.973C552.619 153.647 551.791 152.594 550.464 151.845L550.194 151.691L549.89 151.756C549.763 151.783 537.146 154.423 531.011 151.028L530.486 150.738L530.047 151.152C529.958 151.235 527.882 153.225 527.972 156.114C528.077 159.485 530.247 160.765 530.339 160.818L530.416 160.857C530.638 160.955 534.225 162.496 540.186 162.496Z"
                  fill="#212123"/>
            <path d="M544.923 186.796C545.517 186.796 545.999 186.33 545.999 185.754C545.999 185.179 545.517 184.713 544.923 184.713C537.946 184.711 526.234 183.512 524.511 180.302C524.237 179.792 523.588 179.593 523.061 179.858C522.534 180.124 522.329 180.752 522.603 181.263C525.489 186.641 542.943 186.796 544.923 186.796Z"
                  fill="#212123"/>
            <path d="M574.489 179.741C574.826 179.741 575.156 179.569 575.361 179.249C581.144 170.21 586.996 166.823 590.887 165.572C595.073 164.227 597.952 164.998 597.981 165.006C598.542 165.161 599.12 164.803 599.268 164.2C599.417 163.598 599.085 162.98 598.524 162.819C597.999 162.668 585.542 159.335 573.62 177.97C573.291 178.485 573.413 179.189 573.893 179.543C574.076 179.677 574.284 179.741 574.489 179.741Z"
                  fill="#212123"/>
            <path d="M594.6 190.716C594.6 190.716 590.406 192.236 582.842 191.044L594.6 190.716Z" fill="white"/>
            <path d="M593.807 190.187C593.774 190.218 593.67 190.299 593.589 190.355C593.506 190.42 593.409 190.476 593.318 190.538C593.13 190.652 592.939 190.771 592.738 190.867C592.342 191.077 591.923 191.243 591.501 191.39C590.652 191.681 589.768 191.849 588.874 191.935C588.427 191.962 587.976 191.996 587.524 191.974C587.072 191.98 586.62 191.924 586.166 191.883C585.712 191.843 585.262 191.737 584.808 191.668C584.358 191.567 583.908 191.446 583.456 191.336L583.423 191.328C583.157 191.263 582.9 191.491 582.85 191.837C582.803 192.164 582.959 192.479 583.2 192.568C583.661 192.737 584.121 192.916 584.586 193.075C585.057 193.203 585.524 193.366 586.002 193.464C586.48 193.564 586.958 193.676 587.444 193.725C587.927 193.803 588.416 193.824 588.906 193.849C589.886 193.867 590.876 193.793 591.862 193.574C592.355 193.462 592.848 193.326 593.337 193.131C593.582 193.042 593.825 192.928 594.07 192.809C594.193 192.746 594.315 192.689 594.44 192.613C594.57 192.538 594.674 192.479 594.843 192.356L594.877 192.332C595.353 191.988 595.525 191.209 595.26 190.59C594.995 189.972 594.394 189.75 593.918 190.094C593.88 190.121 593.84 190.154 593.807 190.187Z"
                  fill="#212123"/>
            <path d="M527.39 199.864C526.412 199.859 525.387 199.777 524.405 199.64C523.419 199.501 522.449 199.296 521.538 199.006C520.631 198.713 519.771 198.337 519.08 197.839C518.378 197.349 517.877 196.74 517.598 196.068C517.387 195.557 516.745 195.294 516.164 195.48C515.583 195.665 515.283 196.231 515.495 196.742C515.507 196.771 515.522 196.802 515.536 196.829C515.807 197.329 516.156 197.792 516.564 198.198C516.97 198.607 517.444 198.942 517.931 199.232C518.912 199.812 519.981 200.164 521.042 200.415C522.108 200.662 523.18 200.797 524.248 200.861C525.322 200.924 526.369 200.926 527.458 200.846C527.765 200.823 527.994 200.585 527.967 200.314C527.943 200.059 527.702 199.866 527.416 199.864H527.39Z"
                  fill="#212123"/>
            <path d="M471.72 97.3483C473.283 96.5603 474.236 95.4949 474.578 94.1532L474.579 94.1527C474.609 94.0379 474.634 93.9198 474.654 93.8001C474.708 93.4794 474.489 93.1708 474.134 93.0791L472.775 92.7292L469.959 96.1764L470.756 97.1594C470.974 97.4291 471.392 97.5131 471.72 97.3483Z"
                  fill="#9DA9B9"/>
            <path d="M469.959 85.5983L472.321 84.2024C472.578 84.0514 472.883 84.0802 473.116 84.2779L474.338 85.3164C474.679 85.6069 474.764 86.1678 474.53 86.582L472.826 89.5938L469.959 85.5983Z"
                  fill="#FFE600"/>
            <path d="M474.66 85.6738C474.676 85.4902 474.605 85.3038 474.461 85.1882L473.238 84.206C473.155 84.1401 473.057 84.106 472.96 84.106C472.887 84.106 472.815 84.1244 472.748 84.1618L470.743 85.2807C470.816 85.3671 470.889 85.4541 470.962 85.5426L472.631 84.6114C472.74 84.5509 472.858 84.5216 472.975 84.5216C473.134 84.5216 473.293 84.576 473.427 84.6842L474.651 85.6663C474.654 85.6684 474.657 85.6711 474.66 85.6738Z"
                  fill="#FFF78F"/>
            <path d="M463.973 98.6883L465.048 99.6289C465.348 99.8914 465.765 99.8132 465.987 99.4537L467.607 96.8311L465.389 95.7563L463.995 95.0808L463.695 97.8851L463.694 97.9007C463.661 98.2056 463.768 98.5085 463.973 98.6883Z"
                  fill="#FFE600"/>
            <path d="M471.467 98.2158C471.623 98.2158 471.78 98.1745 471.924 98.0883C473.495 97.1519 474.412 95.8347 474.652 94.1729C474.72 93.6989 474.44 93.24 473.999 93.1061L472.798 92.7402C472.653 92.696 472.501 92.7816 472.458 92.9315C472.416 93.082 472.499 93.2394 472.644 93.283L473.844 93.649C474.027 93.7047 474.14 93.8902 474.111 94.0896C473.894 95.5923 473.089 96.7401 471.651 97.5977C471.487 97.6954 471.271 97.6448 471.159 97.4817L470.456 96.454C470.368 96.3265 470.197 96.2954 470.074 96.3862C469.951 96.477 469.922 96.6533 470.009 96.7808L470.713 97.8091C470.894 98.0728 471.177 98.2158 471.467 98.2158Z"
                  fill="#212123"/>
            <path d="M473.236 89.5938C473.335 89.5938 473.432 89.5384 473.492 89.4351L475.255 86.3871C475.593 85.8027 475.472 85.024 474.979 84.6143L473.715 83.5633C473.38 83.2853 472.944 83.2453 472.576 83.4578L470.131 84.8697C469.978 84.9578 469.915 85.1732 469.991 85.3508C470.067 85.5283 470.252 85.6004 470.405 85.5123L472.85 84.0997C473.014 84.0058 473.208 84.024 473.357 84.147L474.621 85.1979C474.84 85.3806 474.894 85.7263 474.744 85.9861L472.98 89.0348C472.885 89.1993 472.923 89.422 473.064 89.5326C473.116 89.5741 473.177 89.5938 473.236 89.5938Z"
                  fill="#212123"/>
            <path d="M465.469 99.7842C465.72 99.7842 465.967 99.6444 466.131 99.3792L467.561 97.0728C467.637 96.9485 467.618 96.7714 467.516 96.6775C467.414 96.583 467.269 96.6076 467.192 96.7319L465.763 99.0383C465.641 99.2348 465.417 99.276 465.253 99.1334L464.305 98.3062C464.194 98.2088 464.135 98.0455 464.153 97.8794L464.419 95.4C464.435 95.2453 464.346 95.1032 464.22 95.0832C464.093 95.0631 463.977 95.172 463.961 95.3267L463.695 97.806C463.655 98.179 463.786 98.5468 464.036 98.7656L464.985 99.5928C465.132 99.7217 465.302 99.7842 465.469 99.7842Z"
                  fill="#212123"/>
            <path d="M467.79 97.3435C468.309 97.5374 468.891 97.4091 469.292 97.0156C470.982 95.3512 472.172 93.5695 472.973 91.6967C473.192 91.1844 473.111 90.5862 472.773 90.1482C472.718 90.0775 472.663 90.0061 472.608 89.9383L472.608 89.9369C468.038 84.0773 463.358 80.3463 458.568 78.7417C456.062 77.9029 453.527 77.6464 450.961 77.9714C450.042 78.088 449.421 78.9894 449.613 79.928C449.721 80.4585 449.851 80.9817 450.002 81.4948C450.597 83.5126 451.524 85.3912 452.784 87.1313C455.835 91.3513 460.837 94.7559 467.79 97.3435Z"
                  fill="#F6F6F6"/>
            <path d="M453.184 85.6738C456.966 84.8891 460.326 81.15 459.691 78.5992C456.871 77.892 454.02 77.6757 451.134 77.9497C450.1 78.048 449.402 78.8082 449.617 79.5996C450.219 81.8087 451.407 83.8334 453.184 85.6738Z"
                  fill="#FFE600"/>
            <path d="M449.628 80.1865C449.875 79.4832 450.418 78.9493 451.101 78.8492C451.941 78.7254 452.777 78.663 453.612 78.663C455.68 78.663 457.731 79.0444 459.767 79.8081C459.772 79.5813 459.767 79.3564 459.752 79.1365C457.602 78.2697 455.437 77.8348 453.261 77.8348C452.456 77.8348 451.649 77.8943 450.841 78.0141C450.435 78.0736 450.081 78.3252 449.845 78.7234C449.609 79.1216 449.526 79.606 449.61 80.0875C449.616 80.1202 449.622 80.1538 449.628 80.1865Z"
                  fill="#FFF78F"/>
            <path d="M470.008 95.8652C470.265 95.5595 470.51 95.2497 470.743 94.9344L468.457 93.0903C468.947 94.0955 469.465 95.0287 470.008 95.8652ZM461.07 93.2242C461.202 92.3805 461.274 91.468 461.294 90.5055C460.777 90.4097 460.281 90.1799 459.842 89.8258C459.034 89.1739 458.548 88.2003 458.421 87.1689C457.326 86.4417 456.299 85.6607 455.37 84.8907C454.78 85.3802 454.148 85.7708 453.497 86.0227C455.327 88.7342 457.856 91.1392 461.07 93.2242Z"
                  fill="#C2ACF7"/>
            <path d="M453.094 85.6738C453.779 85.4907 454.444 85.2067 455.065 84.8508C452.871 83.5957 451.191 82.3839 450.362 81.7543C450.989 83.1453 451.9 84.4528 453.094 85.6738Z"
                  fill="#F3C716"/>
            <path d="M472.104 93.5127C472.441 92.673 472.74 91.8058 473.002 90.9038C473.167 90.3398 473.109 89.686 472.851 89.1959C472.783 89.066 472.715 88.9371 472.647 88.8093C471.518 89.6585 470.352 90.1402 469.175 90.3282L472.104 93.5127Z"
                  fill="#C2ACF7"/>
            <path d="M453.309 77.7724C459.77 77.7724 466.109 81.8723 472.181 89.988C472.435 90.3272 472.492 90.7798 472.33 91.1702C471.531 93.1017 470.386 94.8095 468.831 96.3908C468.531 96.695 468.105 96.7915 467.718 96.6423C457.637 92.7661 451.768 86.976 450.277 79.4349C450.207 79.0795 450.276 78.7221 450.472 78.4282C450.668 78.1343 450.962 77.9486 451.299 77.9047C451.97 77.8162 452.64 77.7724 453.309 77.7724ZM467.604 96.9815H467.601H467.604ZM468.086 97.4326C468.528 97.4326 468.96 97.2528 469.294 96.9128C470.893 95.2884 472.122 93.4541 472.946 91.4619C473.21 90.8244 473.118 90.0874 472.708 89.5377C465.85 80.3736 458.618 76.2196 451.217 77.189C450.698 77.257 450.227 77.556 449.924 78.0092C449.622 78.4625 449.51 79.0364 449.618 79.584C451.161 87.3861 457.174 93.3539 467.491 97.3208C467.686 97.3961 467.887 97.4326 468.086 97.4326Z"
                  fill="#212123"/>
            <path d="M472.17 94.6835C472.412 94.2581 472.333 93.6672 471.996 93.3635L468.009 89.7693C467.672 89.4655 467.204 89.5636 466.963 89.989C466.722 90.4144 466.801 91.0062 467.137 91.3099L471.124 94.9032C471.462 95.2079 471.93 95.1089 472.17 94.6835Z"
                  fill="#FFE600"/>
            <path d="M471.527 95.0801C471.526 95.0579 471.525 95.0357 471.522 95.0135C471.504 94.8572 471.446 94.7201 471.357 94.6283L467.399 90.4876C467.33 90.415 467.248 90.3767 467.164 90.3767C467.142 90.3767 467.12 90.3797 467.097 90.3848C466.99 90.411 466.896 90.4967 466.834 90.6258C466.83 90.6328 466.827 90.6399 466.823 90.648C466.832 90.6742 466.839 90.6974 466.848 90.7236C466.922 90.6883 467 90.6702 467.079 90.6702C467.228 90.6702 467.38 90.7367 467.511 90.8739L471.47 95.0145C471.49 95.0347 471.509 95.0569 471.527 95.0801Z"
                  fill="#FFF78F"/>
            <path d="M467.289 90.3384C467.386 90.3384 467.479 90.3671 467.56 90.4216L472.117 93.5272C472.219 93.5961 472.286 93.6989 472.307 93.8162C472.327 93.9334 472.299 94.0514 472.226 94.1475V94.1482C472.154 94.245 472.046 94.3086 471.923 94.3282C471.8 94.3471 471.676 94.3207 471.575 94.2511L467.017 91.1462C466.916 91.0766 466.848 90.9737 466.828 90.8565C466.808 90.7392 466.836 90.622 466.909 90.5252C466.981 90.4284 467.089 90.3641 467.211 90.3444C467.238 90.3406 467.264 90.3384 467.289 90.3384ZM471.844 95.0801C471.913 95.0801 471.982 95.0748 472.051 95.0634C472.38 95.0112 472.668 94.8403 472.862 94.5816C473.056 94.3222 473.132 94.0075 473.077 93.6936C473.023 93.3797 472.843 93.1052 472.572 92.9199L468.014 89.8149C467.743 89.6304 467.411 89.557 467.083 89.6092C466.754 89.6614 466.466 89.8331 466.273 90.0918C466.078 90.3505 466.002 90.6659 466.057 90.9798C466.112 91.2929 466.292 91.5675 466.563 91.752L471.121 94.8577C471.335 95.0037 471.586 95.0801 471.844 95.0801Z"
                  fill="#212123"/>
            <path d="M459.678 89.0093C461.263 90.016 463.466 89.6898 464.598 88.2803C465.73 86.8716 465.363 84.9131 463.778 83.9065C462.193 82.9005 459.99 83.2267 458.858 84.6362C457.725 86.0449 458.093 88.0034 459.678 89.0093Z"
                  fill="#FFE600"/>
            <path d="M461.336 89.5938C461.335 89.4585 461.333 89.3217 461.329 89.1832C461.323 89.1811 461.318 89.1787 461.312 89.1762C461.056 89.1668 460.801 89.0558 460.577 88.8351C460.569 88.8265 460.56 88.8179 460.551 88.8092C460.633 89.0061 460.746 89.1824 460.888 89.3225C461.024 89.4573 461.177 89.5485 461.336 89.5938Z"
                  fill="#F3C716"/>
            <path d="M459.768 85.6738C459.855 85.477 459.976 85.2864 460.133 85.1081C460.449 84.749 460.869 84.4858 461.336 84.326C461.322 84.2529 461.307 84.1797 461.293 84.106C460.86 84.2508 460.484 84.4909 460.206 84.8078C459.971 85.0741 459.827 85.3704 459.768 85.6738Z"
                  fill="#FFF78F"/>
            <path d="M459.881 89.4342H459.877H459.881ZM461.732 84.0235C462.316 84.0235 462.884 84.205 463.369 84.5504C463.983 84.989 464.39 85.6405 464.514 86.3846C464.638 87.1294 464.465 87.877 464.026 88.4915C463.588 89.1053 462.936 89.5118 462.191 89.6357C461.447 89.7603 460.698 89.5873 460.084 89.148C458.817 88.243 458.522 86.475 459.427 85.2076C459.866 84.5931 460.517 84.1872 461.262 84.0626C461.419 84.037 461.577 84.0235 461.732 84.0235ZM461.719 90.377C461.914 90.377 462.111 90.3613 462.307 90.3285C463.236 90.1733 464.049 89.6656 464.598 88.8995C465.145 88.1326 465.361 87.1991 465.207 86.2692C465.051 85.34 464.544 84.5269 463.777 83.9793C463.01 83.4325 462.076 83.216 461.146 83.3705C460.217 83.525 459.404 84.0327 458.856 84.7996C457.726 86.3817 458.094 88.589 459.676 89.7197C460.281 90.1512 460.99 90.377 461.719 90.377Z"
                  fill="#212123"/>
            <path d="M461.209 88.4445C461.913 89.0735 462.892 88.8695 463.396 87.9883C463.899 87.1078 463.736 85.8841 463.031 85.2552C462.327 84.6262 461.348 84.8302 460.844 85.7107C460.341 86.5919 460.504 87.8156 461.209 88.4445Z"
                  fill="#6C54FF"/>
            <path d="M460.786 88.0264C460.721 87.4096 460.808 86.7545 461.063 86.2054C461.143 86.0336 461.235 85.8823 461.336 85.7523C461.313 85.4666 461.288 85.1792 461.262 84.8908C461.094 85.0448 460.944 85.2521 460.823 85.5111C460.598 85.9962 460.508 86.5881 460.572 87.1773C460.606 87.4852 460.679 87.7727 460.786 88.0264Z"
                  fill="#6630EA"/>
            <path d="M462.122 85.2117C462.385 85.2117 462.651 85.3102 462.882 85.5165C463.166 85.7703 463.355 86.1482 463.413 86.5802C463.47 87.0123 463.39 87.4463 463.186 87.8019C462.983 88.1583 462.681 88.3938 462.336 88.4663C461.991 88.5381 461.643 88.4376 461.359 88.1831C461.074 87.9285 460.885 87.5507 460.828 87.1193C460.77 86.6873 460.851 86.2533 461.054 85.8976C461.309 85.4505 461.713 85.2117 462.122 85.2117ZM462.118 88.8096C462.608 88.8096 463.09 88.5244 463.395 87.9892C463.639 87.5631 463.735 87.0436 463.666 86.5274C463.597 86.0111 463.371 85.5589 463.031 85.2548C462.327 84.6263 461.347 84.8306 460.844 85.7103C460.601 86.1364 460.505 86.6553 460.574 87.1722C460.643 87.6884 460.868 88.1406 461.209 88.4448C461.485 88.6908 461.803 88.8096 462.118 88.8096Z"
                  fill="#212123"/>
            <path d="M453.087 87.2412C453.119 87.2412 453.151 87.2371 453.184 87.2295C456.935 86.3175 460.339 81.9554 459.688 78.8937C459.649 78.7095 459.454 78.5888 459.251 78.6247C459.048 78.6605 458.915 78.8392 458.955 79.0234C459.531 81.7332 456.354 85.7552 452.991 86.5727C452.792 86.621 452.673 86.8073 452.726 86.9887C452.771 87.1405 452.922 87.2412 453.087 87.2412Z"
                  fill="#212123"/>
            <path d="M471.615 97.4326C471.653 97.426 471.69 97.4133 471.725 97.394C472.817 96.7936 473.527 96.0323 473.878 95.0809C473.453 95.3969 472.906 95.4974 472.467 95.5193C472.463 95.5259 472.458 95.532 472.454 95.5386C472.324 95.7123 472.131 95.8271 471.91 95.8621C471.864 95.8697 471.817 95.8733 471.771 95.8733C471.646 95.8733 471.524 95.8464 471.411 95.7946C471.2 96.0394 470.977 96.2786 470.743 96.5123C471.025 96.8495 471.316 97.1578 471.615 97.4326Z"
                  fill="#78818C"/>
            <path d="M471.781 97.4326C471.791 97.4283 471.801 97.4235 471.811 97.4187C473.37 96.6487 474.321 95.6078 474.662 94.297C474.531 94.48 474.371 94.6276 474.193 94.7461C473.779 95.7511 472.942 96.5554 471.657 97.1896C471.615 97.2099 471.572 97.2234 471.527 97.2303C471.61 97.2996 471.696 97.3672 471.781 97.4326Z"
                  fill="#212123"/>
            <path d="M470.133 96.6484C470.347 96.2403 470.55 95.8224 470.743 95.3947C470.703 95.3601 470.665 95.3193 470.629 95.2714L470.483 95.0806L470.397 95.117L469.959 96.2403C470.017 96.3787 470.074 96.5153 470.133 96.6484Z"
                  fill="#212123"/>
            <path d="M469.329 103.704C470.083 103.704 470.864 103.676 471.676 103.614C478.33 103.105 483.668 97.7681 486.421 94.3759L479.094 64.5093C478.616 64.701 478.145 64.9239 477.676 65.1723C478.751 73.57 485.099 92.6353 480.016 97.2572C478.473 98.6611 476.998 99.2795 475.608 99.2795C474.271 99.2795 473.011 98.7071 471.842 97.7101C471.819 97.7242 471.795 97.7377 471.771 97.7518C471.592 97.858 471.398 97.9089 471.204 97.9089C470.845 97.9089 470.494 97.7327 470.27 97.408L469.624 96.4711C469.604 96.4909 469.585 96.5107 469.564 96.5298C469.245 96.8426 468.835 97.0153 468.413 97.0315L466.424 99.7338C466.183 100.061 465.821 100.234 465.452 100.234C465.206 100.234 464.958 100.157 464.741 99.9977L463.349 98.976C462.981 98.7057 462.789 98.2514 462.849 97.7908L463.205 94.9887C462.375 94.5811 461.583 94.1573 460.827 93.7172C460.195 96.3593 458.696 98.0872 455.859 98.0872C455.559 98.0872 455.244 98.0681 454.913 98.0278C444.25 96.7492 445.395 79.3085 439.367 69.0053C438.623 69.0725 437.847 69.1864 437.036 69.3556C437.188 70.5924 437.524 73.3294 437.943 76.7562C438.339 79.5753 438.796 82.8373 439.251 86.1035C440.574 95.6015 441.204 100.121 441.467 102.338C443.124 101.46 446.014 100.267 449.51 100.267C450.235 100.267 450.985 100.319 451.755 100.434C454.061 100.78 456.2 101.35 458.268 101.901C461.607 102.79 465.043 103.704 469.329 103.704Z"
                  fill="#E0D6FB"/>
            <path d="M468.716 105.271C469.367 105.271 470.04 105.25 470.736 105.203C478.086 104.712 483.825 98.4272 486.421 95.0149L486.221 94.2068C483.44 97.5902 478.048 102.914 471.327 103.42C470.508 103.482 469.718 103.511 468.957 103.511C464.628 103.511 461.158 102.599 457.786 101.712C455.697 101.163 453.536 100.595 451.208 100.249C450.429 100.134 449.672 100.083 448.94 100.083C445.409 100.083 442.49 101.273 440.817 102.149C440.551 99.9368 439.915 95.4292 438.578 85.956C438.119 82.6982 437.657 79.4447 437.257 76.6331C438.557 87.1275 440.644 104.118 440.562 104.272C440.562 104.272 444.189 101.593 449.089 101.593C449.789 101.593 450.514 101.647 451.259 101.772C457.11 102.753 461.684 105.271 468.716 105.271ZM436.341 69.2517C437.16 69.083 437.944 68.9694 438.695 68.9023C438.54 68.6405 438.381 68.3843 438.216 68.1317C437.585 68.2326 436.93 68.3653 436.252 68.5375C436.252 68.5375 436.283 68.7894 436.341 69.2517ZM477.388 65.0793C477.861 64.8316 478.337 64.6093 478.82 64.418L478.648 63.725C478.191 63.8781 477.741 64.0602 477.297 64.2663C477.32 64.5246 477.351 64.7956 477.388 65.0793Z"
                  fill="#212123"/>
            <path d="M486.328 95.8652C487.405 94.5603 487.989 93.6709 487.989 93.6709C487.989 93.6709 480.524 73.2047 480.282 64.3166L480.123 63.7255C479.329 63.8119 478.555 63.981 477.798 64.2159L477.987 64.9169L486.107 95.0479L486.328 95.8652Z"
                  fill="#212123"/>
            <path d="M463.688 80.9707C463.21 78.7955 462.859 76.6572 462.648 74.6995C461.86 74.8886 461.047 74.9935 460.206 74.9935C460.181 74.9935 460.155 74.9935 460.131 74.9928C459.466 74.988 458.825 74.9275 458.201 74.8226C458.559 76.038 458.922 77.3452 459.262 78.6982C460.749 79.2438 462.224 80.002 463.688 80.9707Z"
                  fill="#E0D6FB"/>
            <path d="M460.835 74.6992C461.817 74.6992 462.767 74.6174 463.688 74.4701C463.661 74.3 463.636 74.1309 463.612 73.9646C462.807 74.0979 461.985 74.171 461.14 74.171C461.076 74.171 461.013 74.1705 460.949 74.1699C459.999 74.1575 459.088 74.0648 458.201 73.9153C458.297 74.1277 458.395 74.3449 458.492 74.566C459.221 74.6478 459.971 74.6949 460.747 74.6987C460.776 74.6992 460.806 74.6992 460.835 74.6992Z"
                  fill="#212123"/>
            <path d="M464.605 98.2158C465.283 98.2158 465.467 97.6957 464.985 96.4717C464.615 96.2746 464.255 96.0723 463.905 95.8641L463.69 97.9925C463.688 98.0024 463.688 98.0117 463.688 98.0211C464.052 98.1482 464.361 98.2158 464.605 98.2158Z"
                  fill="#F3C716"/>
            <path d="M465.516 99.7842C465.672 99.7842 465.824 99.7157 465.925 99.5851L467.607 97.4178C466.906 97.1705 466.224 96.9136 465.564 96.6486C466.261 97.9796 465.994 98.5452 465.016 98.5452C464.663 98.5452 464.217 98.4716 463.689 98.3334C463.677 98.5065 463.757 98.6733 463.902 98.7747L465.218 99.6903C465.309 99.7538 465.413 99.7842 465.516 99.7842Z"
                  fill="#F3C716"/>
            <path d="M471.076 98.2158C471.213 98.2158 471.351 98.1684 471.477 98.0696C471.494 98.0565 471.511 98.044 471.527 98.0308C471.463 97.9577 471.398 97.8833 471.334 97.8056C471.253 97.8622 471.165 97.8892 471.079 97.8892C470.899 97.8892 470.722 97.7733 470.612 97.562L470.133 96.648C470.075 96.7251 470.017 96.8015 469.959 96.8778L470.415 97.7496C470.574 98.0519 470.822 98.2158 471.076 98.2158Z"
                  fill="#212123"/>
            <path d="M465.526 99.7842C465.785 99.7842 466.04 99.6294 466.209 99.3356L467.607 96.9125C467.592 96.9132 467.576 96.9138 467.561 96.9138C467.42 96.9138 467.278 96.8821 467.139 96.8167C467.119 96.8078 467.1 96.799 467.081 96.7895L465.829 98.9581C465.754 99.0888 465.641 99.1573 465.525 99.1573C465.448 99.1573 465.371 99.1269 465.303 99.0634L464.324 98.1472C464.216 98.0457 464.156 97.8788 464.166 97.7056C464.166 97.6955 464.167 97.6853 464.168 97.6745L464.399 95.3587C464.246 95.2673 464.095 95.1741 463.946 95.0808L463.695 97.5933C463.654 98.0064 463.789 98.4137 464.047 98.6561L465.026 99.5723C465.178 99.715 465.353 99.7842 465.526 99.7842Z"
                  fill="#212123"/>
            <path d="M466.504 90.377C466.531 90.2937 466.567 90.2134 466.611 90.1382C466.67 90.0345 466.742 89.9461 466.823 89.8738C465.873 87.1841 465.088 84.1709 464.492 81.1789C463.188 80.093 461.874 79.2393 460.552 78.6185C460.87 80.1821 461.158 81.7916 461.387 83.3815C461.553 83.3077 461.725 83.2522 461.903 83.2157C462.066 83.1821 462.229 83.166 462.391 83.166C462.998 83.166 463.588 83.3975 464.09 83.8401C464.729 84.4017 465.151 85.2357 465.28 86.1887C465.409 87.1425 465.229 88.0999 464.774 88.8864C464.567 89.2421 464.316 89.543 464.031 89.781C464.846 90.0753 465.674 90.2835 466.504 90.377Z"
                  fill="#E0D6FB"/>
            <path d="M468.584 96.6484C468.854 96.6484 469.119 96.5283 469.323 96.3016C469.543 96.0567 469.755 95.8094 469.959 95.559C469.435 94.7247 468.935 93.794 468.463 92.7914L467.172 91.7138C466.94 91.5211 466.787 91.2343 466.74 90.9072C466.708 90.6781 466.729 90.4482 466.802 90.238C465.855 90.1369 464.909 89.9118 463.978 89.5934C463.584 89.9054 463.134 90.1172 462.65 90.2112C462.464 90.2475 462.277 90.2649 462.092 90.2649C461.91 90.2649 461.731 90.2483 461.553 90.2136C461.534 91.1735 461.464 92.0836 461.336 92.925C463.352 94.2767 465.648 95.4934 468.221 96.5734C468.34 96.6239 468.463 96.6484 468.584 96.6484Z"
                  fill="#A383F2"/>
            <path d="M468.555 97.4326C468.575 97.4326 468.595 97.4319 468.614 97.4312C468.992 97.4148 469.359 97.2406 469.645 96.9252C469.664 96.9059 469.682 96.886 469.699 96.866C469.773 96.7832 469.847 96.7004 469.92 96.6169L469.743 96.33L469.959 95.981C469.908 95.9032 469.857 95.8247 469.807 95.7448C469.621 95.971 469.428 96.1944 469.227 96.4157C469.041 96.6205 468.8 96.729 468.554 96.729C468.443 96.729 468.331 96.7068 468.223 96.6612C465.878 95.6856 463.786 94.5865 461.949 93.3655C461.91 93.6131 461.867 93.8543 461.817 94.0884C462.495 94.5323 463.204 94.9598 463.948 95.3708C464.138 95.4758 464.331 95.5807 464.526 95.6834C465.006 95.9382 465.499 96.1858 466.005 96.4271C466.631 96.7254 467.278 97.0144 467.943 97.2927C467.968 97.3034 467.992 97.3134 468.018 97.3234C468.194 97.3969 468.375 97.4326 468.555 97.4326ZM468.12 96.9923H468.117H468.12ZM464.836 81.9498C464.765 81.6179 464.697 81.2832 464.632 80.9528C463.282 79.9579 461.923 79.1793 460.552 78.6191C460.614 78.8939 460.676 79.17 460.736 79.4477C462.111 80.0543 463.479 80.8885 464.836 81.9498Z"
                  fill="#212123"/>
            <path d="M467.607 92.7295C467.402 91.9569 467.196 91.1698 466.996 90.3778C466.955 90.4021 466.915 90.4313 466.875 90.4628C466.825 90.6961 466.811 90.9536 466.835 91.2062C466.868 91.5828 466.982 91.9132 467.152 92.1367L467.607 92.7295Z"
                  fill="#F3C716"/>
            <path d="M467.607 93.5127C467.399 92.8929 467.197 92.2532 467.001 91.5924L466.792 91.3485C466.714 91.2566 466.662 91.1206 466.647 90.9657C466.636 90.8617 466.643 90.7558 466.665 90.6598C466.674 90.6208 466.685 90.5848 466.699 90.5499C466.612 90.235 466.524 89.9151 466.438 89.5932C466.355 89.6922 466.281 89.8131 466.219 89.9551C466.174 90.058 466.137 90.168 466.109 90.282C466.043 90.5478 466.024 90.8387 466.053 91.1286C466.095 91.5425 466.234 91.9053 466.442 92.1492L467.607 93.5127Z"
                  fill="#212123"/>
            <path d="M463.92 88.0264C463.936 87.9972 463.951 87.968 463.967 87.938C464.291 87.3178 464.455 86.6084 464.472 85.9007C464.349 85.4673 464.162 85.0755 463.919 84.7487C463.452 84.3153 462.921 84.1069 462.395 84.1069C462.032 84.1069 461.672 84.2052 461.336 84.3986C461.354 84.5562 461.371 84.7129 461.388 84.8696C461.647 84.6904 461.933 84.597 462.221 84.597C462.589 84.597 462.96 84.7487 463.283 85.063C463.68 85.4514 463.943 86.0291 464.024 86.6885C464.079 87.1461 464.043 87.6054 463.92 88.0264Z"
                  fill="#F3C716"/>
            <path d="M461.869 89.5937C462.012 89.5937 462.157 89.5807 462.301 89.5539C462.986 89.4277 463.585 89.0138 463.987 88.389C464.391 87.7634 464.55 87.0023 464.435 86.244C464.406 86.0469 464.359 85.8562 464.295 85.6743C464.277 86.2897 464.1 86.9066 463.753 87.4459C463.736 87.472 463.719 87.4974 463.702 87.5227C463.644 87.6837 463.568 87.8381 463.474 87.983C463.091 88.5774 462.486 88.8942 461.872 88.8942C461.692 88.8942 461.512 88.8667 461.336 88.8116C461.345 89.0559 461.349 89.2973 461.351 89.5357C461.521 89.5742 461.694 89.5945 461.869 89.5937Z"
                  fill="#F3C716"/>
            <path d="M463.688 84.8906C463.607 84.7902 463.518 84.6974 463.424 84.612C463.052 84.2809 462.617 84.1067 462.169 84.1067C462.049 84.1067 461.929 84.1197 461.808 84.1443C461.644 84.1784 461.486 84.2351 461.336 84.3123C461.349 84.4099 461.361 84.5069 461.373 84.6038C461.674 84.4454 461.998 84.3648 462.322 84.3648C462.794 84.3648 463.27 84.5356 463.688 84.8906Z"
                  fill="#FFF78F"/>
            <path d="M462.325 90.377C462.486 90.377 462.649 90.3613 462.812 90.3285C463.234 90.2438 463.627 90.053 463.97 89.7717C464.254 89.5396 464.505 89.2462 464.71 88.8994C465.164 88.1325 465.343 87.199 465.215 86.2691C465.086 85.3399 464.665 84.5267 464.03 83.9791C463.529 83.5476 462.941 83.3219 462.337 83.3219C462.175 83.3219 462.013 83.3376 461.85 83.3703C461.673 83.4059 461.501 83.46 461.336 83.5319C461.37 83.7676 461.404 84.0033 461.436 84.2376C461.597 84.1571 461.769 84.098 461.946 84.0624C462.076 84.0368 462.207 84.0233 462.336 84.0233C462.82 84.0233 463.29 84.2048 463.692 84.5502C463.794 84.6392 463.89 84.736 463.978 84.8407C464.213 85.1198 464.395 85.4545 464.514 85.8248C464.572 86.0035 464.614 86.1908 464.641 86.3844C464.744 87.1293 464.601 87.8769 464.236 88.4914C463.873 89.1052 463.333 89.5118 462.716 89.6357C462.586 89.6621 462.455 89.6749 462.326 89.6749C462.168 89.6756 462.012 89.6556 461.859 89.6179C461.861 89.8593 461.859 90.0964 461.854 90.3307C462.009 90.362 462.166 90.377 462.325 90.377Z"
                  fill="#212123"/>
            <path d="M462.076 88.8096C462.164 88.8096 462.254 88.8009 462.344 88.7843C462.767 88.7042 463.138 88.4438 463.388 88.0499C463.638 87.6566 463.736 87.1768 463.666 86.6992C463.627 86.4366 463.539 86.1913 463.41 85.9777C463.12 85.7728 462.795 85.674 462.474 85.674C462.064 85.674 461.659 85.8342 461.336 86.1401C461.432 87.0152 461.502 87.8731 461.538 88.7042C461.71 88.7735 461.892 88.8096 462.076 88.8096Z"
                  fill="#42A0D3"/>
            <path d="M461.426 85.6738C461.778 85.4224 462.22 85.2908 462.667 85.2908C463.018 85.2908 463.372 85.372 463.688 85.5404C463.573 85.3969 463.427 85.2706 463.256 85.1668C462.948 84.9795 462.591 84.8899 462.239 84.8899C461.923 84.8899 461.61 84.9617 461.336 85.0998C461.368 85.292 461.398 85.4835 461.426 85.6738Z"
                  fill="#6630EA"/>
            <path d="M462.068 88.8096C462.573 88.8096 463.071 88.5244 463.386 87.9893C463.463 87.8587 463.526 87.7197 463.574 87.5749C463.682 87.2453 463.715 86.8857 463.666 86.5274C463.595 86.0112 463.361 85.559 463.01 85.2549C462.726 85.0089 462.398 84.8901 462.072 84.8901C461.818 84.8901 461.565 84.9632 461.336 85.1035C461.35 85.217 461.364 85.3299 461.377 85.4428C461.588 85.2908 461.829 85.2118 462.072 85.2118C462.344 85.2118 462.618 85.3104 462.856 85.5166C462.988 85.6308 463.1 85.7698 463.189 85.9277C463.297 86.1209 463.371 86.3428 463.404 86.5803C463.463 87.0123 463.38 87.4463 463.17 87.802C462.96 88.1583 462.649 88.3939 462.293 88.4663C462.217 88.4813 462.142 88.4891 462.068 88.4891C461.912 88.4891 461.76 88.4565 461.615 88.3939C461.62 88.5081 461.624 88.6223 461.627 88.7352C461.772 88.7848 461.92 88.8096 462.068 88.8096Z"
                  fill="#212123"/>
            <path d="M471.473 97.4326C471.491 97.4326 471.509 97.4313 471.527 97.4283C471.269 97.1954 471.018 96.934 470.775 96.6481C470.764 96.6589 470.753 96.6696 470.742 96.6804L471.216 97.3086C471.277 97.3887 471.375 97.4326 471.473 97.4326Z"
                  fill="#6B6C7E"/>
            <path d="M471.193 97.4326C471.307 97.4326 471.421 97.4183 471.527 97.3882C471.44 97.3455 471.354 97.3014 471.269 97.2563C471.244 97.2588 471.22 97.2598 471.195 97.2598C471.058 97.2598 470.922 97.2241 470.839 97.1591L470.182 96.6487C470.108 96.6903 470.034 96.732 469.959 96.7732L470.584 97.2588C470.727 97.3711 470.959 97.4326 471.193 97.4326Z"
                  fill="#212123"/>
            <path d="M470.275 96.6484C470.405 96.5445 470.535 96.4398 470.663 96.335C470.69 96.313 470.716 96.291 470.743 96.2689C470.609 96.1369 470.477 96.0013 470.345 95.8639L469.958 96.2945L470.275 96.6484Z"
                  fill="#212123"/>
            <path d="M1556.99 1071.95C1556.99 1071.95 1831.56 1380.64 1554.7 1075.23L1078.02 1761.57L-311.055 318.611C-311.055 318.611 -74.6413 -174.506 312.45 155.126C492.922 307.359 567.799 465.028 771.734 375.541C771.734 375.541 1167.6 647.58 1512.59 1028.74C1527.87 1045.62 1541.88 1061.08 1554.7 1075.23L1556.99 1071.95Z"
                  fill="url(#paint3_linear_5616_137710)"/>
        </g>
    </g>
    <defs>
        <linearGradient id="paint0_linear_5616_137710" x1="1151.34" y1="291.1" x2="1210.62" y2="604.738"
                        gradientUnits="userSpaceOnUse">
            <stop stop-color="#5D4AD4"/>
            <stop offset="0.593456" stop-color="#212123"/>
        </linearGradient>
        <linearGradient id="paint1_linear_5616_137710" x1="1042.09" y1="670.626" x2="1089.91" y2="285.57"
                        gradientUnits="userSpaceOnUse">
            <stop stop-color="#6630EA"/>
            <stop offset="1" stop-color="#6C54FF"/>
        </linearGradient>
        <linearGradient id="paint2_linear_5616_137710" x1="554.219" y1="461.901" x2="509.769" y2="286.326"
                        gradientUnits="userSpaceOnUse">
            <stop stop-color="#FF7A5A"/>
            <stop offset="1" stop-color="#FFA775" stop-opacity="0"/>
        </linearGradient>
        <linearGradient id="paint3_linear_5616_137710" x1="180.879" y1="354.539" x2="194.814" y2="60.6351"
                        gradientUnits="userSpaceOnUse">
            <stop stop-color="#212123"/>
            <stop offset="1" stop-color="#6C54FF"/>
        </linearGradient>
        <clipPath id="clip0_5616_137710">
            <rect width="1800" height="560" fill="white" transform="translate(-180)"/>
        </clipPath>
    </defs>
</svg>
