<svg xmlns="http://www.w3.org/2000/svg" width="1440" height="309" fill="none" viewBox="0 0 1440 309"><g clip-path="url(#clip0_5616_431316)"><path fill="url(#paint0_linear_5616_431316)" d="M385.609 211.009C736.883 35.601 584.866-84.104 584.866-84.104L119.845-844.537-1157.03-209.068s-78.69 415.324 288.529 287.278c367.223-128.045 228.925 174.099 570.219 53.08C43.012 10.27 34.334 386.417 385.609 211.009Z"/><path fill="#fff" d="M40.394 108.816c-.453-.065-.759-1.07-.845-2.516a1.779 1.779 0 0 0-1.23-1.586c-1.363-.423-2.252-.961-2.209-1.423.043-.462 1.006-.73 2.41-.752a1.552 1.552 0 0 0 1.487-1.191c.348-1.385.83-2.277 1.282-2.212.454.066.761 1.072.846 2.519a1.78 1.78 0 0 0 1.23 1.588c1.364.423 2.253.961 2.21 1.423-.043.462-1.006.73-2.412.751a1.554 1.554 0 0 0-1.487 1.194c-.346 1.382-.828 2.271-1.282 2.205Zm122.46 26.697c-.499.04-1.062-.984-1.491-2.544-.217-.789-.9-1.369-1.687-1.433-1.559-.126-2.638-.495-2.7-1.012-.061-.516.909-1.047 2.408-1.415.758-.187 1.29-.864 1.315-1.671.051-1.6.359-2.695.859-2.734.502-.04 1.065.985 1.493 2.546.216.789.9 1.371 1.689 1.435 1.559.126 2.637.495 2.699 1.01.062.517-.908 1.048-2.409 1.417-.758.186-1.291.864-1.316 1.672-.048 1.598-.358 2.689-.86 2.729Zm-40.502-1.023c-.744.059-1.421-.516-1.513-1.284-.092-.769.436-1.439 1.179-1.498.744-.059 1.421.516 1.514 1.284.092.769-.436 1.439-1.18 1.498Zm-95.167-3.918c-.642-.315-.939-1.095-.661-1.742.276-.646 1.021-.915 1.663-.599.643.316.94 1.095.662 1.741-.276.647-1.022.915-1.664.6Zm-28.941 14.413c-.816-.4-1.193-1.39-.84-2.211.35-.821 1.297-1.163 2.113-.762.816.4 1.192 1.39.84 2.212-.351.821-1.298 1.162-2.113.761ZM166.75 94.681c-.743.06-1.421-.516-1.513-1.284-.092-.768.436-1.439 1.18-1.498.743-.059 1.421.516 1.513 1.285.092.768-.436 1.439-1.18 1.497Zm-79.191 28.056c-.382.03-.73-.266-.778-.661a.675.675 0 0 1 .606-.77c.383-.03.731.266.778.661a.674.674 0 0 1-.606.77Z"/><g filter="url(#filter0_d_5616_431316)"><path fill="url(#paint1_linear_5616_431316)" d="M1602.34 251.021c619.91-188.643 0-582.368 0-582.368L871.9-1217.58-642.434-176.528s-25.471 544.048 419.915 314.446C222.866-91.685 193.307 366.626 717.675 90.554c524.365-276.073 264.75 349.11 884.665 160.467Z"/></g><path fill="#fff" d="M-662.34-521.054c143.116 141.002 208.671 523.34 442.938 261.669C14.866-521.056 484.489-2.069 745.262-383.807 1006.04-765.545 1638.57-180.173 1642.47-636.07c3.9-455.9 242.79 355.599 332.14 51.668 72.77-247.505-77.32 629.161-303.82 699.263-51.64 15.982-107.25 41.693-165.09 77.806-311.58 194.517-487.51-244.36-834.343-91.787-346.836 152.574-509.389-266.852-908.754 13.981C-636.763 395.694-1187.87-1038.82-662.34-521.054Z"/></g><defs><linearGradient id="paint0_linear_5616_431316" x1="-438.726" x2="-214.383" y1="127.919" y2="-435.257" gradientUnits="userSpaceOnUse"><stop stop-color="#5D4AD4"/><stop offset=".369" stop-color="#212123"/></linearGradient><linearGradient id="paint1_linear_5616_431316" x1="1555.83" x2="770.345" y1="291.253" y2=".011" gradientUnits="userSpaceOnUse"><stop stop-color="#212123"/><stop offset="1" stop-color="#6F58E9"/></linearGradient><clipPath id="clip0_5616_431316"><path fill="#fff" d="M-180 0h1800v308.438H-180z"/></clipPath><filter id="filter0_d_5616_431316" width="2561.52" height="1545.69" x="-654.595" y="-1232.78" color-interpolation-filters="sRGB" filterUnits="userSpaceOnUse"><feFlood flood-opacity="0" result="BackgroundImageFix"/><feColorMatrix in="SourceAlpha" result="hardAlpha" values="0 0 0 0 0 0 0 0 0 0 0 0 0 0 0 0 0 0 127 0"/><feOffset dx="8.589" dy="5.286"/><feGaussianBlur stdDeviation="10.241"/><feComposite in2="hardAlpha" operator="out"/><feColorMatrix values="0 0 0 0 0.379167 0 0 0 0 0.254547 0 0 0 0 0.0126389 0 0 0 0.1 0"/><feBlend in2="BackgroundImageFix" result="effect1_dropShadow_5616_431316"/><feBlend in="SourceGraphic" in2="effect1_dropShadow_5616_431316" result="shape"/></filter></defs></svg>