<!-- https://www.useragentman.com/blog/2013/04/26/how-to-create-svg-paths-easily-using-the-gimp/ -->

<?xml version="1.0" encoding="UTF-8" standalone="no"?>
<!DOCTYPE svg PUBLIC "-//W3C//DTD SVG 20010904//EN"
              "http://www.w3.org/TR/2001/REC-SVG-20010904/DTD/svg10.dtd">

<svg xmlns="http://www.w3.org/2000/svg"
     width="3.26389in" height="3.26389in"
     viewBox="0 0 235 235">
  <path id="Unnamed #1"
        fill="none" stroke="black" stroke-width="1"
        d="M 37.00,72.00
           C 37.00,72.00 88.50,94.00 35.50,75.50
             -4.50,109.50 18.50,106.00 19.50,111.50
             20.50,117.00 27.50,148.50 28.00,153.00
             28.50,157.50 37.50,157.50 37.50,156.50
             37.50,155.50 48.00,153.00 48.00,153.00
             48.00,153.00 41.00,82.00 41.00,82.00
             41.00,82.00 45.00,88.50 45.00,88.50
             45.00,88.50 74.50,84.00 74.50,84.00
             74.50,84.00 78.00,95.00 78.00,95.00
             78.00,95.00 94.50,95.50 94.50,95.50" />
</svg>
